<?xml version="1.0" encoding="utf-8"?>
<!-- Generator: Adobe Illustrator 22.0.0, SVG Export Plug-In . SVG Version: 6.00 Build 0)  -->
<svg version="1.1" id="Layer_1" xmlns="http://www.w3.org/2000/svg" xmlns:xlink="http://www.w3.org/1999/xlink" x="0px" y="0px"
	 viewBox="0 0 34 34" style="enable-background:new 0 0 34 34;" xml:space="preserve">
<style type="text/css">
	.st0{fill:none;stroke:#091E42;stroke-miterlimit:10;}
	.st1{fill:none;stroke:#000000;stroke-linecap:round;stroke-miterlimit:10;}
	.st2{fill:none;stroke:#000000;stroke-miterlimit:10;}
	.st3{fill:#091E42;}
	.st4{fill:#383838;}
	.st5{fill:#CCCCCC;}
	.st6{fill:#AEAEAE;}
	.st7{fill:#09375B;}
	.st8{fill:#FF7200;}
	.st9{fill:none;stroke:#091E42;stroke-linecap:round;stroke-miterlimit:10;}
	.st10{clip-path:url(#SVGID_2_);}
	.st11{fill:#FFFFFF;stroke:#000000;stroke-linecap:round;stroke-miterlimit:10;}
	.st12{clip-path:url(#SVGID_4_);}
	.st13{clip-path:url(#SVGID_4_);fill:#091E42;}
	.st14{fill:none;stroke:#091E42;stroke-width:1.3;stroke-linecap:round;stroke-miterlimit:10;}
	.st15{fill:none;stroke:#091E42;stroke-width:1.3;stroke-miterlimit:10;}
	.st16{fill:none;}
</style>
<g>
	<line class="st0" x1="117.4" y1="29.5" x2="117.4" y2="32.6"/>
	<line class="st0" x1="113.5" y1="29.5" x2="113.5" y2="32.6"/>
	<line class="st0" x1="109" y1="29.5" x2="109" y2="32.6"/>
	<line class="st0" x1="104.8" y1="29.7" x2="104.8" y2="31.8"/>
	<line class="st0" x1="101" y1="29.7" x2="101" y2="31.8"/>
	<line class="st0" x1="98.6" y1="24.1" x2="119.3" y2="24.1"/>
	<line class="st0" x1="98.7" y1="26.9" x2="119.4" y2="26.9"/>
	<line class="st0" x1="98.9" y1="29.8" x2="119.6" y2="29.8"/>
	<line class="st1" x1="93.5" y1="32.2" x2="124.5" y2="32.2"/>
	<line class="st0" x1="102.9" y1="21.1" x2="102.9" y2="24.1"/>
	<line class="st0" x1="115.4" y1="21.1" x2="115.4" y2="24.1"/>
	<line class="st0" x1="111.2" y1="21.1" x2="111.2" y2="24.1"/>
	<line class="st0" x1="107" y1="21.1" x2="107" y2="24.1"/>
	<path class="st2" d="M120,21.1H97.8c-0.4,0-0.8-0.3-0.8-0.8v-1.9c0-0.4,0.3-0.8,0.8-0.8H120c0.4,0,0.8,0.3,0.8,0.8v1.9
		C120.8,20.7,120.4,21.1,120,21.1z"/>
	<g>
		<path class="st2" d="M101,17.6h-2.5V2.5c0-0.7,0.5-1.2,1.2-1.2l0,0c0.7,0,1.2,0.5,1.2,1.2V17.6z"/>
		<path class="st2" d="M119.3,17.6h-2.5V2.5c0-0.7,0.5-1.2,1.2-1.2l0,0c0.7,0,1.2,0.5,1.2,1.2V17.6z"/>
	</g>
	<path class="st0" d="M113.2,6.2h-8.6c-0.8,0-1.4-0.6-1.4-1.4V4.7c0-0.8,0.6-1.4,1.4-1.4h8.6c0.8,0,1.4,0.6,1.4,1.4v0.2
		C114.6,5.6,114,6.2,113.2,6.2z"/>
	<polyline class="st2" points="98.6,32.2 98.6,21.1 119.3,21.1 119.3,32.2 	"/>
	<line class="st2" x1="101" y1="4.8" x2="103.3" y2="4.8"/>
	<line class="st2" x1="114.6" y1="4.8" x2="116.8" y2="4.8"/>
	<polyline class="st1" points="119.3,4.8 121.9,4.8 121.9,7.6 123.2,7.6 	"/>
	<path class="st0" d="M113.8,17.6h-4l-0.7-3c-0.1-0.2,0.1-0.3,0.3-0.3h5c0.2,0,0.3,0.2,0.3,0.3L113.8,17.6z"/>
	<path class="st0" d="M113.5,14.3h-3.4v-1.8c0-0.8,0.6-1.4,1.4-1.4h0.5c0.8,0,1.4,0.6,1.4,1.4V14.3z"/>
	<line class="st0" x1="111.8" y1="6.7" x2="111.8" y2="11.1"/>
	<line class="st0" x1="104.8" y1="23.9" x2="104.8" y2="26.9"/>
	<line class="st0" x1="109.1" y1="23.9" x2="109.1" y2="26.9"/>
	<line class="st0" x1="113.3" y1="23.9" x2="113.3" y2="26.9"/>
	<line class="st0" x1="117.4" y1="23.9" x2="117.4" y2="26.9"/>
	<line class="st0" x1="101" y1="23.9" x2="101" y2="26.9"/>
	<line class="st0" x1="102.9" y1="27.1" x2="102.9" y2="30.1"/>
	<line class="st0" x1="107" y1="27.1" x2="107" y2="30.1"/>
	<line class="st0" x1="111.2" y1="27.1" x2="111.2" y2="30.1"/>
	<line class="st0" x1="115.4" y1="27.1" x2="115.4" y2="30.1"/>
	<line class="st0" x1="110.2" y1="3.3" x2="110.2" y2="6.2"/>
	<line class="st0" x1="108.6" y1="3.3" x2="108.6" y2="6.2"/>
	<line class="st0" x1="111.8" y1="3.3" x2="111.8" y2="6.2"/>
</g>
<g>
	<g>
		<path class="st3" d="M142.8,10c-0.7-0.5-0.8-1.5-0.3-2.2l2.4-3.5c0.1-0.1,0.2-0.1,0.2-0.1c0.1,0,0.1,0.1,0,0.2l-2.4,3.5
			c-0.4,0.6-0.3,1.4,0.2,1.8c0.3,0.2,0.6,0.2,0.9,0.2c0.3-0.1,0.6-0.3,0.8-0.6l4.6-6.7c0.5-0.8,1.5-1,2.2-0.6c0.3,0.2,0.5,0.6,0.6,1
			c0.1,0.4-0.1,0.9-0.3,1.2l-2.3,3.4c-0.1,0.1-0.2,0.1-0.2,0.1s-0.1-0.1,0-0.2l2.3-3.4c0.2-0.3,0.3-0.6,0.3-1c0-0.3-0.2-0.6-0.5-0.8
			c-0.5-0.4-1.3-0.2-1.8,0.4L145,9.4c-0.3,0.4-0.6,0.6-1,0.7C143.5,10.3,143.1,10.2,142.8,10z"/>
		<g>
			<rect x="144.6" y="4.4" transform="matrix(0.5651 -0.825 0.825 0.5651 59.283 121.5163)" class="st4" width="0.6" height="0.3"/>
			
				<rect x="149.2" y="7.2" transform="matrix(0.5651 -0.825 0.825 0.5651 58.9434 126.5291)" class="st4" width="0.6" height="0.3"/>
		</g>
		<rect x="147" y="9.7" transform="matrix(0.5651 -0.825 0.825 0.5651 55.692 126.1422)" class="st5" width="0.9" height="1.2"/>
		<rect x="147.4" y="9.5" transform="matrix(0.5651 -0.825 0.825 0.5651 55.8768 126.1637)" class="st6" width="0.5" height="1.2"/>
		<path class="st3" d="M149.5,8.7l-1.1,1.6c0,0.1-0.1,0.1-0.2,0l-1.2-0.8c-0.1,0-0.1-0.1,0-0.2l1.1-1.6c0.3-0.4,0.9-0.6,1.2-0.3
			C149.8,7.8,149.8,8.3,149.5,8.7z"/>
		<rect x="146.5" y="1.1" transform="matrix(0.5651 -0.825 0.825 0.5651 62.5087 121.9001)" class="st5" width="0.8" height="1.2"/>
		<rect x="146.6" y="1.3" transform="matrix(0.5651 -0.825 0.825 0.5651 62.3175 121.8779)" class="st6" width="0.4" height="1.2"/>
		<path class="st3" d="M147.3,2.5l-1.1,1.6c-0.3,0.4-0.8,0.6-1.2,0.3c-0.4-0.3-0.5-0.8-0.2-1.3l1.1-1.6c0-0.1,0.1-0.1,0.2,0l0,0
			l1.2,0.8l0,0C147.3,2.4,147.3,2.5,147.3,2.5z"/>
		<path class="st7" d="M149.4,7.5c-0.1-0.1-0.2-0.1-0.3-0.1c0,0,0,0,0,0c0.1,0,0.1,0,0.1,0.1c0.3,0.2,0.4,0.7,0.1,1.1l-1.1,1.6
			c0,0.1-0.1,0.1-0.2,0l-1-0.7c-0.1,0-0.1-0.1,0-0.2l0,0L147,9.4c0,0.1,0,0.2,0,0.2l1.2,0.8c0.1,0,0.1,0,0.2,0l1.1-1.6
			C149.8,8.3,149.8,7.8,149.4,7.5z"/>
		<path class="st8" d="M144.8,3.3L144.8,3.3C144.8,3.3,144.7,3.3,144.8,3.3C144.7,3.3,144.8,3.3,144.8,3.3z"/>
		<path class="st7" d="M147.3,2.3l-0.2-0.1c0,0,0,0.1,0,0.2L145.9,4c-0.2,0.4-0.7,0.5-1,0.3c0,0,0,0,0,0c-0.2-0.1-0.3-0.3-0.3-0.5
			c0,0.3,0.1,0.5,0.3,0.6c0.4,0.2,0.9,0.1,1.2-0.3l1.1-1.6C147.3,2.5,147.3,2.4,147.3,2.3z"/>
	</g>
	<g>
		<rect x="143.1" y="30.3" class="st3" width="7.8" height="2.7"/>
		<line class="st1" x1="140" y1="33" x2="154" y2="33"/>
		<path class="st2" d="M161,30.3h-28c-0.2,0-0.4-0.2-0.4-0.4V13c0-0.2,0.2-0.4,0.4-0.4h28c0.2,0,0.4,0.2,0.4,0.4v16.9
			C161.4,30.1,161.2,30.3,161,30.3z"/>
	</g>
</g>
<g>
	<line class="st0" x1="188.6" y1="33" x2="188.6" y2="20.8"/>
	<line class="st0" x1="190.9" y1="20.8" x2="190.9" y2="33"/>
	<line class="st0" x1="188.5" y1="23.7" x2="190.9" y2="23.7"/>
	<line class="st0" x1="188.5" y1="25.9" x2="190.9" y2="25.9"/>
	<line class="st0" x1="188.5" y1="27.9" x2="190.9" y2="27.9"/>
	<line class="st0" x1="188.5" y1="30" x2="190.9" y2="30"/>
	<rect x="169.7" y="18.6" class="st2" width="22.6" height="2.6"/>
	<rect x="171.4" y="6.2" class="st2" width="15.2" height="15"/>
	<rect x="171.4" y="6.2" class="st2" width="15.2" height="2.2"/>
	<g>
		<path class="st0" d="M173.2,33"/>
		<polyline class="st2" points="173.1,33 173.1,21.2 184.9,21.2 184.9,33 		"/>
		<line class="st2" x1="173.2" y1="22.7" x2="184.8" y2="31.3"/>
		<line class="st2" x1="184.8" y1="22.7" x2="173.2" y2="31.3"/>
	</g>
	<polygon class="st2" points="188.3,6.2 170.1,6.2 179.2,1 	"/>
</g>
<g>
	<path class="st3" d="M179,17.4c-1.3,0-2.5-1.1-2.3-2.8L179,10l2.3,4.6C181.5,16.2,180.3,17.4,179,17.4z M179,12.5l-1,2.1
		c-0.2,0.4-0.2,0.8,0.1,1.1c0.4,0.7,1.6,0.7,2,0c0.2-0.3,0.2-0.8,0.1-1.1L179,12.5z"/>
</g>
<g>
	<path class="st1" d="M228.4,30.2h-22.9V11l11.1-6.8c0.2-0.1,0.5-0.1,0.7,0l11.1,6.8V30.2z"/>
	<polygon class="st9" points="223.8,30.2 210.2,30.2 210.2,18 223.8,18 	"/>
	<line class="st9" x1="209.4" y1="18" x2="224.6" y2="18"/>
	<rect x="202.2" y="30.2" class="st9" width="29.7" height="2.8"/>
	<g>
		<line class="st9" x1="206.8" y1="25" x2="227.2" y2="25"/>
		<g>
			<rect x="223.7" y="25" class="st9" width="2.3" height="5.2"/>
			<rect x="219.2" y="25" class="st9" width="2.3" height="5.2"/>
			<rect x="212.4" y="25" class="st9" width="2.3" height="5.2"/>
			<rect x="210.1" y="25" class="st9" width="2.3" height="5.2"/>
			<rect x="207.8" y="25" class="st9" width="2.3" height="5.2"/>
			<rect x="214.7" y="25" class="st9" width="2.3" height="5.2"/>
		</g>
	</g>
	<path class="st1" d="M231.7,9.7L218,1.2c-0.4-0.3-1-0.3-1.4,0l-14.2,8.6c-0.7,0.4-0.9,1.2-0.5,1.9l0,0c0.4,0.7,1.2,0.9,1.9,0.5
		l12.8-7.7c0.4-0.3,1-0.3,1.4,0l12.2,7.6c0.7,0.4,1.5,0.2,1.9-0.5v0C232.5,10.9,232.3,10.1,231.7,9.7z"/>
	<line class="st1" x1="201" y1="33" x2="233" y2="33"/>
	<rect x="214.9" y="10.3" class="st0" width="4.1" height="4.1"/>
	<rect x="214.7" y="21" class="st9" width="4.6" height="9.2"/>
</g>
<g>
	<g>
		<defs>
			<rect id="SVGID_1_" x="242" y="1" width="32" height="32"/>
		</defs>
		<clipPath id="SVGID_2_">
			<use xlink:href="#SVGID_1_"  style="overflow:visible;"/>
		</clipPath>
		<path class="st10" d="M247.5,6.7c5.7-5.8,15-5.9,20.7-0.2l-1.6,0c-0.4,0-0.6,0.3-0.6,0.7c0,0.4,0.3,0.6,0.6,0.6h0l3.2,0
			c0.4,0,0.6-0.3,0.6-0.7l0-3.2c0-0.4-0.3-0.6-0.7-0.6c-0.4,0-0.6,0.3-0.6,0.7l0,1.6c-6.3-6.2-16.4-6-22.6,0.3
			c-2.1,2.2-3.6,4.9-4.2,7.9c-0.6,2.9-0.4,5.9,0.6,8.7c0.1,0.3,0.3,0.4,0.6,0.4c0.1,0,0.1,0,0.2,0c0.3-0.1,0.5-0.5,0.4-0.8
			C242.2,16.6,243.5,10.7,247.5,6.7L247.5,6.7z M247.5,6.7"/>
		<path class="st10" d="M246.8,28.4c3,2.9,7,4.5,11.1,4.5h0.2c4.3-0.1,8.3-1.8,11.2-4.8c2.1-2.2,3.6-4.9,4.2-7.9
			c0.6-2.9,0.4-5.9-0.6-8.7c-0.1-0.3-0.5-0.5-0.8-0.4c-0.3,0.1-0.5,0.5-0.4,0.8c1.9,5.3,0.6,11.2-3.3,15.2
			c-2.7,2.8-6.4,4.4-10.3,4.4c-3.9,0-7.6-1.4-10.4-4.2l1.6,0c0.4,0,0.6-0.3,0.6-0.7c0-0.4-0.3-0.6-0.6-0.6h0l-3.2,0
			c-0.2,0-0.3,0.1-0.5,0.2c-0.1,0.1-0.2,0.3-0.2,0.5l0,3.2c0,0.4,0.3,0.6,0.6,0.6h0c0.4,0,0.6-0.3,0.6-0.7L246.8,28.4z M246.8,28.4"
			/>
	</g>
	<path class="st3" d="M266.9,13.2c-1.4-3.4-4.7-5.7-8.3-5.9c-0.1,0-0.1,0-0.2,0h0c0,0-0.1,0-0.1,0h0c-0.1,0-0.1,0-0.2,0
		c-1.3,0-2.5,0.2-3.7,0.7c-2.4,1-4.2,2.8-5.2,5.2c-1,2.4-1,5,0,7.4c1.5,3.6,5,6,8.9,6c0.1,0,0.1,0,0.1,0c0,0,0.1,0,0.1,0
		c0,0,0,0,0,0c0.1,0,0.1,0,0.2,0h0.1c0,0,0,0,0.1,0c1.1-0.1,2.1-0.3,3.1-0.7c2.4-1,4.2-2.8,5.2-5.2
		C267.9,18.3,267.9,15.6,266.9,13.2C266.9,13.3,266.9,13.3,266.9,13.2C266.9,13.3,266.9,13.3,266.9,13.2L266.9,13.2z M254.6,9.3
		c-0.7,0.9-1.3,2.2-1.7,3.6h-2.3C251.6,11.3,252.9,10,254.6,9.3L254.6,9.3z M250.1,14.2h2.6c-0.1,0.9-0.2,1.8-0.2,2.8
		c0,1,0.1,1.9,0.2,2.8h-2.6C249.4,17.9,249.4,16,250.1,14.2L250.1,14.2z M250.7,21h2.3c0.4,1.4,1,2.7,1.8,3.6
		C253,24,251.6,22.7,250.7,21L250.7,21z M257.6,25.2c-1.3-0.4-2.5-2-3.2-4.2h3.2V25.2z M257.6,19.8H254c-0.2-0.9-0.3-1.8-0.3-2.8
		c0-1,0.1-1.9,0.2-2.8h3.6V19.8z M257.6,12.9h-3.3c0.7-2.2,1.9-3.8,3.3-4.2V12.9z M265.3,12.9h-1.8c-0.3-1.2-0.8-2.3-1.4-3.2
		C263.4,10.4,264.5,11.5,265.3,12.9L265.3,12.9z M258.9,8.7c1.4,0.4,2.6,2,3.3,4.2h-3.3V8.7z M258.9,14.2h3.6
		c0.2,0.9,0.2,1.8,0.2,2.8c0,1-0.1,1.9-0.3,2.8h-3.6V14.2z M258.9,25.2V21h3.2C261.4,23.2,260.2,24.8,258.9,25.2L258.9,25.2z
		 M261.9,24.3c0.6-0.9,1.1-2,1.5-3.3h1.8C264.5,22.4,263.3,23.6,261.9,24.3L261.9,24.3z M265.9,19.8h-2.1c0.2-0.9,0.2-1.8,0.2-2.8
		c0-1-0.1-1.9-0.2-2.8h2.1C266.5,16,266.5,17.9,265.9,19.8L265.9,19.8z M265.9,19.8"/>
</g>
<g>
	<path class="st3" d="M96.2,51.1L96.2,51.1c-0.1,0-0.1,0-0.2,0c-1-0.1-1.5-1.3-0.9-2.1l1.1-1.7l1.1,1.7c0.5,0.8,0.1,2-0.9,2.1
		C96.3,51.1,96.3,51.1,96.2,51.1z"/>
	<path class="st1" d="M113,53.3H95.8c-2.1,0-3.7-1.7-3.7-3.7v-0.8c0-2.1,1.7-3.7,3.7-3.7h18c2.1,0,3.7,1.7,3.7,3.7v0
		C117.5,51.3,115.5,53.3,113,53.3z"/>
	<ellipse class="st1" cx="96.2" cy="49.2" rx="4.2" ry="4.1"/>
	<polygon class="st1" points="121.1,70.9 102.6,70.9 95.8,53.3 113.6,53.3 	"/>
	<line class="st9" x1="106" y1="56.2" x2="110.9" y2="68"/>
	<line class="st9" x1="109.3" y1="56.2" x2="114.2" y2="68"/>
	<line class="st9" x1="102.6" y1="56.2" x2="107.4" y2="68"/>
	<g>
		<ellipse class="st1" cx="118.8" cy="42.7" rx="1.9" ry="1.9"/>
		<line id="XMLID_1_" class="st1" x1="118.8" y1="39.5" x2="118.8" y2="40.8"/>
		<line id="XMLID_2_" class="st1" x1="116.6" y1="40.4" x2="117.5" y2="41.4"/>
		<line id="XMLID_3_" class="st1" x1="115.6" y1="42.7" x2="116.9" y2="42.7"/>
		<line id="XMLID_4_" class="st1" x1="116.6" y1="44.9" x2="117.5" y2="44"/>
		<line id="XMLID_5_" class="st1" x1="118.8" y1="45.9" x2="118.8" y2="44.6"/>
		<line id="XMLID_6_" class="st1" x1="121.1" y1="44.9" x2="120.2" y2="44.1"/>
		<line id="XMLID_7_" class="st1" x1="122" y1="42.7" x2="120.7" y2="42.7"/>
		<line id="XMLID_8_" class="st1" x1="121.1" y1="40.4" x2="120.2" y2="41.3"/>
	</g>
</g>
<g>
	<path d="M129.9,68"/>
	<path class="st3" d="M136.8,64.1c-1.2,0-2.1,0.9-2.1,2.1s0.9,2.1,2.1,2.1h3.8c1.2,0,2.1-0.9,2.1-2.1s-0.9-2.1-2.1-2.1H136.8z
		 M141.6,66.2c0,0.5-0.4,1-1,1h-3.8c-0.5,0-1-0.4-1-1s0.4-1,1-1h3.8C141.2,65.2,141.6,65.6,141.6,66.2L141.6,66.2z M141.6,66.2"/>
	<path class="st3" d="M136.8,70.3c-1.2,0-2.1,0.9-2.1,2.1c0,1.2,0.9,2.1,2.1,2.1h3.8c1.2,0,2.1-0.9,2.1-2.1c0-1.2-0.9-2.1-2.1-2.1
		H136.8z M141.6,72.4c0,0.5-0.4,1-1,1h-3.8c-0.5,0-1-0.4-1-1c0-0.5,0.4-1,1-1h3.8C141.2,71.5,141.6,71.9,141.6,72.4L141.6,72.4z
		 M141.6,72.4"/>
	<g>
		<rect x="140.6" y="54.3" class="st3" width="2" height="1.2"/>
		<rect x="137.7" y="54.3" class="st3" width="2" height="1.2"/>
		<rect x="134.8" y="54.3" class="st3" width="2" height="1.2"/>
		<rect x="140.6" y="56.7" class="st3" width="2" height="1.2"/>
		<rect x="137.7" y="56.7" class="st3" width="2" height="1.2"/>
		<rect x="134.8" y="56.7" class="st3" width="2" height="1.2"/>
		<rect x="134.8" y="51.9" class="st3" width="2" height="1.2"/>
		<rect x="137.7" y="51.9" class="st3" width="2" height="1.2"/>
		<rect x="140.6" y="51.9" class="st3" width="2" height="1.2"/>
		<rect x="134.8" y="49.5" class="st3" width="2" height="1.2"/>
		<rect x="137.7" y="49.5" class="st3" width="2" height="1.2"/>
		<rect x="140.6" y="49.5" class="st3" width="2" height="1.2"/>
	</g>
	<g>
		<path d="M158.7,45.9c1.5,0,2.8,1.2,2.8,2.8v24.5c0,1.5-1.2,2.8-2.8,2.8h-24.1c-1.5,0-2.8-1.2-2.8-2.8V48.7c0-1.5,1.2-2.8,2.8-2.8
			H158.7 M158.7,44.9h-24.1c-2.1,0-3.8,1.7-3.8,3.8v24.5c0,2.1,1.7,3.8,3.8,3.8h24.1c2.1,0,3.8-1.7,3.8-3.8V48.7
			C162.4,46.6,160.7,44.9,158.7,44.9L158.7,44.9z"/>
	</g>
	<g>
		<g>
			<rect x="154.5" y="73.4" class="st3" width="1.2" height="1.2"/>
			<rect x="152.1" y="73.4" class="st3" width="1.2" height="1.2"/>
			<rect x="149.7" y="73.4" class="st3" width="1.2" height="1.2"/>
		</g>
		<g>
			<path d="M155.9,64.4c1,0,1.8,0.8,1.8,1.8v9.7h-10v-9.7c0-1,0.8-1.8,1.8-1.8H155.9 M155.9,63.4h-6.5c-1.5,0-2.8,1.2-2.8,2.8v10.4
				c0,0.2,0.2,0.4,0.4,0.4h11.3c0.2,0,0.4-0.2,0.4-0.4V66.2C158.6,64.7,157.4,63.4,155.9,63.4L155.9,63.4z"/>
		</g>
	</g>
	<g>
		<g>
			<path class="st2" d="M152.6,54.5L152.6,54.5c-0.7,0-1.3-0.6-1.3-1.3v-0.9c0-0.7,0.6-1.3,1.3-1.3l0,0c0.7,0,1.3,0.6,1.3,1.3v0.9
				C153.9,54,153.3,54.5,152.6,54.5z"/>
			<g>
				<g>
					<path class="st2" d="M150,58.2c0,0-0.4-2.9,1.7-4"/>
					<path class="st2" d="M155.1,58.2c0,0,0.3-2.9-1.6-4"/>
				</g>
				<g>
					<line class="st1" x1="151.5" y1="57" x2="151.5" y2="58.1"/>
					<line class="st1" x1="153.7" y1="57" x2="153.7" y2="58.2"/>
				</g>
			</g>
		</g>
		<rect x="146.8" y="49.5" class="st2" width="11.6" height="8.6"/>
	</g>
</g>
<g>
	<g>
		<path class="st3" d="M171.6,58.1c-0.3,0-0.5-0.2-0.5-0.5V46.9c0-1.6,0.9-4.8,4.2-4.8c3.3,0,4.2,3.1,4.2,4.8v1c0,0.3-0.9,0.3-0.9,0
			v-1c0-0.2-0.1-3.8-3.3-3.8c-3.3,0-3.3,3.7-3.3,3.8v10.7C172,57.9,171.8,58.1,171.6,58.1z"/>
	</g>
	<g>
		<g>
			<path d="M192.3,74.1c-1.7,0-3.1-1.4-3.1-3.1s1.4-3.1,3.1-3.1c1.7,0,3.1,1.4,3.1,3.1S194,74.1,192.3,74.1z M192.3,68.8
				c-1.2,0-2.2,1-2.2,2.2s1,2.2,2.2,2.2c1.2,0,2.2-1,2.2-2.2S193.5,68.8,192.3,68.8z"/>
		</g>
	</g>
	<g>
		<path d="M198.8,58.1h-28.6c-0.3,0-0.5-0.2-0.5-0.5c0-0.3,0.2-0.5,0.5-0.5h28.6c0.3,0,0.5,0.2,0.5,0.5
			C199.2,57.9,199,58.1,198.8,58.1z"/>
	</g>
	<g>
		<path d="M194.4,68.8h-17.8c-3.1,0-5.5-2.5-5.5-5.5v-6.1h28c0.5,0,0.9,0.4,0.9,0.9v5.3C200,66.4,197.5,68.8,194.4,68.8z M172,58.1
			v5.2c0,2.5,2.1,4.6,4.6,4.6h17.8c2.5,0,4.6-2.1,4.6-4.6v-5.2H172z"/>
	</g>
	<g>
		<g>
			<path d="M178.5,74.1c-1.7,0-3.1-1.4-3.1-3.1s1.4-3.1,3.1-3.1c1.7,0,3.1,1.4,3.1,3.1S180.2,74.1,178.5,74.1z M178.5,68.8
				c-1.2,0-2.2,1-2.2,2.2s1,2.2,2.2,2.2c1.2,0,2.2-1,2.2-2.2S179.7,68.8,178.5,68.8z"/>
		</g>
	</g>
	<g>
		<path class="st3" d="M180.7,50.3h-3.3c-0.2,0-0.4-0.1-0.5-0.2c-0.1-0.1-0.2-0.3-0.2-0.5c0.2-1.2,1.2-2,2.3-2c1.2,0,2.2,0.9,2.3,2
			c0,0.2,0,0.4-0.2,0.5C181.1,50.2,180.9,50.3,180.7,50.3z M180.5,49.6L180.5,49.6L180.5,49.6z M177.6,49.6
			C177.6,49.6,177.6,49.6,177.6,49.6C177.6,49.6,177.6,49.6,177.6,49.6z M177.7,49.3h2.7c-0.2-0.6-0.7-1-1.4-1
			S177.9,48.8,177.7,49.3z"/>
	</g>
	<g>
		<g>
			<path class="st3" d="M178.8,52.7c-0.3,0-0.5-0.2-0.5-0.5v-0.5c0-0.3,0.2-0.5,0.5-0.5s0.5,0.2,0.5,0.5v0.5
				C179.3,52.5,179.1,52.7,178.8,52.7z"/>
		</g>
		<g>
			<path class="st3" d="M178.8,54.5c-0.3,0-0.5-0.2-0.5-0.5v-0.5c0-0.3,0.2-0.5,0.5-0.5s0.5,0.2,0.5,0.5v0.5
				C179.3,54.3,179.1,54.5,178.8,54.5z"/>
		</g>
		<g>
			<path class="st3" d="M178.8,56.3c-0.3,0-0.5-0.2-0.5-0.5v-0.5c0-0.3,0.2-0.5,0.5-0.5s0.5,0.2,0.5,0.5v0.5
				C179.3,56.1,179.1,56.3,178.8,56.3z"/>
		</g>
	</g>
	<g>
		<g>
			<path class="st3" d="M177.3,52.7c-0.3,0-0.5-0.2-0.5-0.5v-0.5c0-0.3,0.2-0.5,0.5-0.5s0.5,0.2,0.5,0.5v0.5
				C177.8,52.5,177.6,52.7,177.3,52.7z"/>
		</g>
		<g>
			<path class="st3" d="M177.3,54.5c-0.3,0-0.5-0.2-0.5-0.5v-0.5c0-0.3,0.2-0.5,0.5-0.5s0.5,0.2,0.5,0.5v0.5
				C177.8,54.3,177.6,54.5,177.3,54.5z"/>
		</g>
		<g>
			<path class="st3" d="M177.3,56.3c-0.3,0-0.5-0.2-0.5-0.5v-0.5c0-0.3,0.2-0.5,0.5-0.5s0.5,0.2,0.5,0.5v0.5
				C177.8,56.1,177.6,56.3,177.3,56.3z"/>
		</g>
	</g>
	<g>
		<g>
			<path class="st3" d="M180.3,52.7c-0.3,0-0.5-0.2-0.5-0.5v-0.5c0-0.3,0.2-0.5,0.5-0.5s0.5,0.2,0.5,0.5v0.5
				C180.8,52.5,180.6,52.7,180.3,52.7z"/>
		</g>
		<g>
			<path class="st3" d="M180.3,54.5c-0.3,0-0.5-0.2-0.5-0.5v-0.5c0-0.3,0.2-0.5,0.5-0.5s0.5,0.2,0.5,0.5v0.5
				C180.8,54.3,180.6,54.5,180.3,54.5z"/>
		</g>
		<g>
			<path class="st3" d="M180.3,56.3c-0.3,0-0.5-0.2-0.5-0.5v-0.5c0-0.3,0.2-0.5,0.5-0.5s0.5,0.2,0.5,0.5v0.5
				C180.8,56.1,180.6,56.3,180.3,56.3z"/>
		</g>
	</g>
</g>
<g>
	<path class="st0" d="M217.8,69.4"/>
	<path class="st0" d="M209.2,73.5"/>
	<polyline class="st0" points="209.2,73.5 207.1,73.5 207.1,52.1 220.7,52.1 220.7,73.5 218.6,73.5 	"/>
	
		<rect x="207.1" y="62.8" transform="matrix(-1 -1.224647e-16 1.224647e-16 -1 416.2981 136.2547)" class="st2" width="2" height="10.7"/>
	<path class="st2" d="M217.8,62.8H210v-3.5c0-2.2,1.8-3.9,3.9-3.9h0c2.2,0,3.9,1.8,3.9,3.9V62.8z"/>
	<line class="st9" x1="211.6" y1="62.8" x2="211.6" y2="73.5"/>
	<line class="st9" x1="216.2" y1="62.8" x2="216.2" y2="73.5"/>
	<line class="st9" x1="216.2" y1="65" x2="211.6" y2="65"/>
	<line class="st9" x1="228.2" y1="65" x2="223.6" y2="65"/>
	<line class="st9" x1="228.2" y1="67.8" x2="223.6" y2="67.8"/>
	<line class="st0" x1="232.6" y1="69.4" x2="232.6" y2="74"/>
	<line class="st0" x1="230.1" y1="69.4" x2="230.1" y2="74"/>
	<line class="st9" x1="216.2" y1="67.2" x2="211.6" y2="67.2"/>
	<line class="st9" x1="216.2" y1="69.4" x2="211.6" y2="69.4"/>
	<line class="st9" x1="216.2" y1="71.6" x2="211.6" y2="71.6"/>
	<g>
		<path class="st0" d="M220.7,63.4h1.7c0.7,0,1.2,0.6,1.2,1.2v5.1"/>
		<path class="st0" d="M235,73.8h-7.5c-2.1,0-4-1.7-4-3.9v-3.8"/>
	</g>
	<g>
		<path class="st9" d="M220.7,59.1h4.5c1.8,0,3.2,1.4,3.2,3.2v4.5"/>
		<path class="st9" d="M228.4,61.8v6.3c0,0.8,0.6,1.4,1.4,1.4h5.1c0.1,0,0.2,0.1,0.2,0.2l0,4.1"/>
	</g>
	<path class="st2" d="M205.7,51.3l7.9-8.8c0.1-0.2,0.4-0.2,0.6,0l7.9,8.8c0.2,0.2,0,0.6-0.3,0.6l-15.8,0
		C205.7,51.9,205.5,51.5,205.7,51.3z"/>
	<rect x="207.1" y="52.1" class="st2" width="13.5" height="10.7"/>
	
		<rect x="218.6" y="62.8" transform="matrix(-1 -1.224647e-16 1.224647e-16 -1 439.2981 136.2547)" class="st2" width="2" height="10.7"/>
</g>
<g>
	<rect x="266.4" y="70.5" class="st0" width="2.5" height="4.6"/>
	<rect x="244.5" y="70.5" class="st0" width="2.5" height="4.6"/>
	<path class="st2" d="M267.5,55.8h-21.5c-0.1,0-0.2-0.1-0.2-0.2V44.9c0-0.4,0.3-0.7,0.7-0.8l10.2-1c0,0,0.1,0,0.1,0l10.2,1
		c0.4,0,0.7,0.4,0.7,0.8v10.7C267.6,55.7,267.5,55.8,267.5,55.8z"/>
	<path class="st2" d="M270.3,70.5h-27.2c-0.2,0-0.4-0.1-0.4-0.2v-3.1c0-0.1,0.2-0.2,0.4-0.2h13.6h13.6c0.2,0,0.4,0.1,0.4,0.2v3.1
		C270.7,70.4,270.5,70.5,270.3,70.5z"/>
	<g>
		<path class="st0" d="M256.6,55.8h-9.5v-0.9c0-1.4,1.1-2.5,2.5-2.5h4.6c1.4,0,2.5,1.1,2.5,2.5V55.8z"/>
		<path class="st0" d="M266.3,55.8h-9.5v-0.9c0-1.4,1.1-2.5,2.5-2.5h4.6c1.4,0,2.5,1.1,2.5,2.5V55.8z"/>
	</g>
	<path class="st2" d="M272.5,66.9h-31.6c-0.1,0-0.2-0.3-0.2-0.6v-5.7c0-0.3,0.1-0.6,0.2-0.6h15.8h15.8c0.1,0,0.2,0.3,0.2,0.6v5.7
		C272.7,66.7,272.6,66.9,272.5,66.9z"/>
	<polyline class="st1" points="240.7,60.1 245.8,55.8 267.6,55.8 272.7,60.1 	"/>
</g>
<g>
	<g>
		<g>
			<path class="st3" d="M124.4,109.8H92.9c-0.2,0-0.4-0.2-0.4-0.4c0-0.2,0.2-0.4,0.4-0.4h31.5c0.2,0,0.4,0.2,0.4,0.4
				C124.8,109.7,124.6,109.8,124.4,109.8z"/>
		</g>
		<g>
			<path d="M108.5,107.2h-5.8c-4.3,0-8-3.2-8.6-7.4l-1.6-12.4c0-0.2,0-0.5,0.2-0.7c0.2-0.2,0.4-0.3,0.7-0.3h24.4
				c0.3,0,0.5,0.1,0.7,0.3c0.2,0.2,0.2,0.4,0.2,0.7l-1.6,12.4C116.5,104.1,112.8,107.2,108.5,107.2z M93.4,87.3L95,99.7
				c0.5,3.8,3.8,6.7,7.7,6.7h5.8c3.9,0,7.2-2.9,7.7-6.7l1.6-12.4L93.4,87.3z"/>
		</g>
		<g>
			<path d="M118.1,100.5c-0.1,0-0.2,0-0.3,0c-0.7-0.1-1.2-0.6-1.5-1.5l0-0.1l1.1-8.5l0.1-0.1c0.1-0.1,2.5-2.7,4.5-2.4
				c0.8,0.1,1.5,0.6,1.9,1.5c1.9,3.7-2.5,8.9-2.7,9.1C121.1,98.7,119.6,100.5,118.1,100.5z M117.2,98.7c0.2,0.5,0.5,0.8,0.8,0.9
				c0.9,0.2,2.2-1.2,2.7-1.7c0-0.1,4.2-5,2.6-8.2c-0.3-0.7-0.7-1-1.3-1.1c-1.3-0.2-3,1.3-3.7,2.1L117.2,98.7z"/>
		</g>
		<g>
			<path class="st3" d="M103.4,84.8c-0.1,0-0.1,0-0.2,0c-0.2-0.1-0.3-0.4-0.2-0.6c0,0,0.8-1.6,0-3.1c-1-2,0-3.1,0.1-3.1
				c0.2-0.2,0.4-0.1,0.6,0c0.2,0.2,0.2,0.4,0,0.6c0,0-0.6,0.7,0.1,2.1c1,1.9,0,3.8,0,3.8C103.8,84.7,103.6,84.8,103.4,84.8z"/>
		</g>
		<g>
			<path class="st3" d="M106.1,84.8c-0.1,0-0.1,0-0.2-0.1c-0.2-0.1-0.3-0.4-0.2-0.6c0-0.1,0.9-1.6,0-3c-1.1-2,0-3.1,0.1-3.1
				c0.2-0.2,0.5-0.1,0.6,0c0.2,0.2,0.1,0.4,0,0.6c0,0-0.7,0.7,0.1,2.1c1.1,1.9,0,3.8,0,3.9C106.4,84.7,106.2,84.8,106.1,84.8z"/>
		</g>
		<g>
			<path class="st3" d="M108.7,84.8c-0.1,0-0.1,0-0.2-0.1c-0.2-0.1-0.3-0.4-0.2-0.6c0-0.1,0.9-1.6,0-3c-1.1-2,0-3.1,0.1-3.1
				c0.2-0.2,0.5-0.1,0.6,0c0.2,0.2,0.1,0.4,0,0.6c0,0-0.7,0.7,0.1,2.1c1.1,1.9,0,3.8,0,3.9C109,84.7,108.9,84.8,108.7,84.8z"/>
		</g>
	</g>
	<line class="st11" x1="115.6" y1="90" x2="114.7" y2="97.9"/>
</g>
<g>
	<g>
		<g>
			<path class="st3" d="M139.5,103.6"/>
		</g>
		<g>
			<path class="st3" d="M139.5,104.2c-0.2,0-0.3-0.1-0.4-0.2c-2.2-2.1-5.1-3.2-8.1-3.1c-0.3,0-0.6-0.3-0.6-0.6
				c0-0.3,0.3-0.6,0.6-0.6c3.4-0.1,6.6,1.1,9,3.5c0.2,0.2,0.3,0.6,0,0.9C139.8,104.2,139.6,104.2,139.5,104.2z"/>
		</g>
		<g>
			<path class="st3" d="M137,106.8c-0.2,0-0.3-0.1-0.4-0.2c-1.5-1.4-3.5-2.2-5.6-2.2c-0.4,0-0.6-0.3-0.6-0.6c0-0.3,0.3-0.6,0.6-0.6
				c2.4,0,4.7,0.8,6.5,2.5c0.2,0.2,0.3,0.6,0,0.9C137.4,106.7,137.2,106.8,137,106.8z"/>
		</g>
		<g>
			<path class="st3" d="M143.2,112.6c-0.3,0-0.6-0.3-0.6-0.6c-0.1-3-1.3-5.9-3.5-8c-0.2-0.2-0.3-0.6,0-0.9c0.2-0.2,0.6-0.3,0.9,0
				c2.4,2.3,3.8,5.5,3.9,8.8C143.8,112.3,143.5,112.6,143.2,112.6C143.2,112.6,143.2,112.6,143.2,112.6z"/>
		</g>
		<g>
			<path class="st3" d="M139.7,112.7c-0.3,0-0.6-0.3-0.6-0.6c-0.1-2.1-0.9-4.1-2.4-5.5c-0.2-0.2-0.3-0.6,0-0.9
				c0.2-0.2,0.6-0.3,0.9,0c1.8,1.7,2.8,3.9,2.8,6.4C140.3,112.4,140,112.7,139.7,112.7C139.7,112.7,139.7,112.7,139.7,112.7z"/>
		</g>
		<g>
			<path class="st3" d="M139.7,112.7c-0.3,0-0.6-0.3-0.6-0.6c-0.1-2.1-0.9-4.1-2.4-5.5c-0.2-0.2-0.3-0.6,0-0.9
				c0.2-0.2,0.6-0.3,0.9,0c1.8,1.7,2.8,3.9,2.8,6.4C140.3,112.4,140,112.7,139.7,112.7C139.7,112.7,139.7,112.7,139.7,112.7z"/>
		</g>
		<g>
			<path class="st3" d="M137,106.8c-0.2,0-0.3-0.1-0.4-0.2c-1.5-1.4-3.5-2.2-5.6-2.2c-0.4,0-0.6-0.3-0.6-0.6c0-0.3,0.3-0.6,0.6-0.6
				c2.4,0,4.7,0.8,6.5,2.5c0.2,0.2,0.3,0.6,0,0.9C137.4,106.7,137.2,106.8,137,106.8z"/>
		</g>
		<g>
			<path class="st3" d="M148.2,112.5c-0.3,0-0.6-0.3-0.6-0.6c-0.1-4.4-1.9-8.4-5.1-11.5c0,0,0,0,0,0c-3.2-3-7.3-4.6-11.7-4.5
				c-0.3,0-0.6-0.3-0.6-0.6c0-0.3,0.3-0.6,0.6-0.6c4.7-0.1,9.2,1.6,12.6,4.8c0,0,0,0,0,0c3.4,3.2,5.4,7.6,5.5,12.3
				C148.8,112.2,148.5,112.5,148.2,112.5C148.2,112.5,148.2,112.5,148.2,112.5z"/>
		</g>
	</g>
	<g>
		<path class="st3" d="M133.2,112.9c-0.7,0-1.3-0.2-1.8-0.7c-1.1-1-1.1-2.7-0.1-3.8c1-1.1,2.7-1.1,3.8-0.1c1.1,1,1.1,2.7,0.1,3.8
			l0,0C134.6,112.6,133.9,112.9,133.2,112.9z M133.2,108.8c-0.4,0-0.8,0.1-1,0.4c-0.5,0.6-0.5,1.5,0.1,2c0.6,0.5,1.5,0.5,2-0.1
			c0.5-0.6,0.5-1.5-0.1-2C133.9,108.9,133.5,108.8,133.2,108.8z M134.7,111.6L134.7,111.6L134.7,111.6z"/>
	</g>
	<path d="M162.2,112.9h-10.4c-0.3,0-0.6-0.3-0.6-0.6s0.2-0.6,0.6-0.6h9.3V82.1h-29.8V92c0,0.3-0.2,0.6-0.6,0.6
		c-0.3,0-0.6-0.3-0.6-0.6V80.9h32V112.9z"/>
</g>
<g>
	<g>
		<path d="M196.4,89.1v25.6h-22.6V89.1H196.4 M197.4,88.1h-24.6v27.6h24.6V88.1L197.4,88.1z"/>
	</g>
	<g>
		<path d="M196.4,84.7v30h-22.6v-30H196.4 M197.4,83.7h-24.6v32h24.6V83.7L197.4,83.7z"/>
	</g>
	<g>
		<g>
			<g>
				<path class="st3" d="M180.5,96.3c1.2,0,2.1,0.9,2.1,2.1s-0.9,2.1-2.1,2.1s-2.1-0.9-2.1-2.1S179.3,96.3,180.5,96.3 M180.5,95.3
					c-1.7,0-3.1,1.4-3.1,3.1c0,1.7,1.4,3.1,3.1,3.1s3.1-1.4,3.1-3.1C183.6,96.7,182.2,95.3,180.5,95.3L180.5,95.3z"/>
			</g>
			<g>
				<path class="st3" d="M181.6,102.2c1,0,1.8,0.8,1.8,1.8v8.2h-5.7V104c0-1,0.8-1.8,1.8-1.8H181.6 M181.6,101.2h-2.2
					c-1.5,0-2.8,1.3-2.8,2.8v8.6c0,0.3,0.3,0.6,0.6,0.6h6.6c0.3,0,0.6-0.3,0.6-0.6V104C184.4,102.5,183.1,101.2,181.6,101.2
					L181.6,101.2z"/>
			</g>
		</g>
		<g>
			<g>
				<path class="st3" d="M189.7,96.3c1.2,0,2.1,0.9,2.1,2.1s-0.9,2.1-2.1,2.1s-2.1-0.9-2.1-2.1S188.6,96.3,189.7,96.3 M189.7,95.3
					c-1.7,0-3.1,1.4-3.1,3.1c0,1.7,1.4,3.1,3.1,3.1s3.1-1.4,3.1-3.1C192.8,96.7,191.4,95.3,189.7,95.3L189.7,95.3z"/>
			</g>
			<g>
				<path class="st3" d="M190.8,102.2c1,0,1.8,0.8,1.8,1.8v8.2h-5.7V104c0-1,0.8-1.8,1.8-1.8H190.8 M190.8,101.2h-2.2
					c-1.5,0-2.8,1.3-2.8,2.8v8.6c0,0.3,0.3,0.6,0.6,0.6h6.6c0.3,0,0.6-0.3,0.6-0.6V104C193.6,102.5,192.4,101.2,190.8,101.2
					L190.8,101.2z"/>
			</g>
		</g>
	</g>
	<g>
		<polyline class="st9" points="198.3,98.5 200.5,96.4 202.6,98.5 		"/>
		<polyline class="st9" points="198.3,100 200.5,102.2 202.6,100 		"/>
	</g>
</g>
<g>
	<g>
		<g>
			<rect x="217.4" y="97.2" class="st3" width="0.9" height="1.3"/>
		</g>
		<g>
			<rect x="219.1" y="97.2" class="st3" width="0.9" height="1.3"/>
		</g>
		<g>
			<rect x="220.7" y="97.2" class="st3" width="0.9" height="1.3"/>
		</g>
	</g>
	<g>
		<g>
			<rect x="230.8" y="97.2" class="st3" width="0.9" height="1.3"/>
		</g>
		<g>
			<rect x="232.4" y="97.2" class="st3" width="0.9" height="1.3"/>
		</g>
		<g>
			<rect x="234" y="97.2" class="st3" width="0.9" height="1.3"/>
		</g>
	</g>
	<g>
		<path class="st3" d="M213.5,99c-0.2,0-0.4-0.2-0.4-0.4V93c0.1-0.7,0.7-1.8,2.4-1.7c0.6,0.2,1.7,0.8,1.7,2v1c0,0.2-0.2,0.4-0.4,0.4
			s-0.4-0.2-0.4-0.4v-1c0-0.9-0.8-1.2-0.9-1.2c-1.2-0.1-1.3,0.7-1.4,0.9l0,5.5C213.9,98.8,213.7,99,213.5,99z"/>
	</g>
	<g>
		<path class="st3" d="M221.3,113.4h-10.3v-13.2h10.3V113.4z M211.8,112.5h8.6V101h-8.6V112.5z"/>
	</g>
	<g>
		<path d="M221.3,105.1h-10.3v-5h10.3V105.1z M211.8,104.3h8.6V101h-8.6V104.3z"/>
	</g>
	<g>
		<path d="M241.1,113.4h-10.3v-13.2h10.3V113.4z M231.7,112.5h8.6V101h-8.6V112.5z"/>
	</g>
	<g>
		<path d="M241.1,105.1h-10.3v-5h10.3V105.1z M231.7,104.3h8.6V101h-8.6V104.3z"/>
	</g>
	<g>
		<path d="M231.7,114.5h-11.3v-14.4h11.3V114.5z M221.3,113.7h9.5V101h-9.5V113.7z"/>
	</g>
	<g>
		<path class="st3" d="M229.6,112.4h-7.1v-8.2h7.1V112.4z M223.4,111.6h5.3v-6.4h-5.3V111.6z"/>
	</g>
	<g>
		<path d="M231.7,105.1h-11.3v-5h11.3V105.1z M221.3,104.3h9.5V101h-9.5V104.3z"/>
	</g>
	<g>
		<path d="M241.3,101h-30.6c-0.4,0-0.7-0.3-0.7-0.7v-1.5c0-0.4,0.3-0.7,0.7-0.7h30.6c0.4,0,0.7,0.3,0.7,0.7v1.5
			C242,100.7,241.7,101,241.3,101z M210.8,100.1h30.3V99h-30.3V100.1z"/>
	</g>
	<g>
		<g>
			<g>
				<g>
					<polygon class="st3" points="218.3,90.7 218.3,88.2 219.1,88.2 219.1,89.9 232.9,89.7 232.9,88.2 233.8,88.2 233.8,90.6 					
						"/>
				</g>
				<g>
					<rect x="218.7" y="87.8" class="st3" width="14.7" height="0.9"/>
				</g>
				<g>
					<path class="st3" d="M233.3,88.6h-15v-0.5l2.3-3.5h10.6l2.6,3.5v0.6L233.3,88.6z M219.5,87.8h13l-1.7-2.3h-9.7L219.5,87.8z"/>
				</g>
				<g>
					<path class="st3" d="M231.7,85.5h-11.3v-2.9h11.3V85.5z M221.3,84.6h9.6v-1.2h-9.6V84.6z"/>
				</g>
			</g>
			<g>
				<path class="st3" d="M241.6,83.4h-30.4c-0.2,0-0.4-0.2-0.4-0.4c0-0.2,0.2-0.4,0.4-0.4h30.4c0.2,0,0.4,0.2,0.4,0.4
					C242,83.2,241.8,83.4,241.6,83.4z"/>
			</g>
		</g>
	</g>
	<g>
		<rect x="215.5" y="102.2" class="st3" width="0.8" height="0.9"/>
	</g>
	<g>
		<rect x="224.4" y="106" class="st3" width="3.4" height="0.9"/>
	</g>
	<g>
		<rect x="213.5" y="108.3" class="st3" width="5.2" height="0.9"/>
	</g>
	<g>
		<rect x="213.5" y="110.5" class="st3" width="5.2" height="0.9"/>
	</g>
	<g>
		<rect x="233.1" y="108.3" class="st3" width="5.2" height="0.9"/>
	</g>
	<g>
		<rect x="233.1" y="110.5" class="st3" width="5.2" height="0.9"/>
	</g>
	<g>
		<rect x="235.4" y="102.2" class="st3" width="0.8" height="0.9"/>
	</g>
	<g>
		<g>
			<rect x="225.6" y="102.2" class="st3" width="0.8" height="0.9"/>
		</g>
		<g>
			<rect x="227.3" y="102.2" class="st3" width="0.8" height="0.9"/>
		</g>
		<g>
			<rect x="223.9" y="102.2" class="st3" width="0.8" height="0.9"/>
		</g>
	</g>
	<g>
		<path class="st3" d="M219.1,113.4H213v-7h6.1V113.4z M213.9,112.5h4.4v-5.3h-4.4V112.5z"/>
	</g>
	<g>
		<path class="st3" d="M238.9,113.4h-6.1v-7h6.1V113.4z M233.7,112.5h4.4v-5.3h-4.4V112.5z"/>
	</g>
	<g>
		<path d="M221.3,113.4h-10.3v-13.2h10.3V113.4z M211.8,112.5h8.6V101h-8.6V112.5z"/>
	</g>
</g>
<g>
	<g>
		<path class="st3" d="M273.6,97.7c-0.1,0-0.3,0-0.4-0.1L249.7,91c-0.5-0.1-0.9-0.5-1.1-0.9c-0.2-0.5-0.3-1-0.2-1.5l1-4
			c0.4-1.5,1.3-2.8,2.5-3.5c1.3-0.8,2.7-1,4.1-0.6l19.8,5.6c0.5,0.1,0.9,0.5,1.1,0.9c0.3,0.5,0.3,1,0.2,1.5l-2,7.9
			c-0.1,0.5-0.4,0.8-0.8,1.1C274.2,97.7,273.9,97.7,273.6,97.7z M273.5,96.6c0.2,0,0.3,0,0.5-0.1c0.1-0.1,0.3-0.2,0.3-0.4l2-7.9
			c0.1-0.2,0-0.5-0.1-0.7c-0.1-0.2-0.3-0.4-0.5-0.4l-19.8-5.6c-1.1-0.3-2.3-0.2-3.3,0.5c-1,0.6-1.7,1.6-2,2.9l-1,4
			c-0.1,0.2,0,0.5,0.1,0.6c0.1,0.2,0.3,0.3,0.5,0.4L273.5,96.6z"/>
	</g>
	<g>
		<path d="M262,87.9c0,0-0.1,0-0.1,0l-8.1-2.4c-0.3-0.1-0.4-0.4-0.4-0.7c0.1-0.3,0.4-0.5,0.6-0.4l8.1,2.4c0.3,0.1,0.4,0.4,0.4,0.7
			C262.5,87.7,262.3,87.9,262,87.9z"/>
	</g>
	<g>
		<path d="M261.5,90c0,0-0.1,0-0.1,0l-8.1-2.4c-0.3-0.1-0.4-0.4-0.4-0.7c0.1-0.3,0.4-0.5,0.6-0.4l8.1,2.4c0.3,0.1,0.4,0.4,0.4,0.7
			C261.9,89.8,261.7,90,261.5,90z"/>
	</g>
	<g>
		<path class="st3" d="M277.6,96.9c-0.2,0-0.3,0-0.5-0.1v0l-2.8-0.8l1.9-7.4l2.8,0.8c1,0.3,1.7,1.5,1.4,2.6l-0.8,3.4
			C279.2,96.2,278.4,96.9,277.6,96.9z M277.3,95.7c0.5,0.1,1-0.2,1.1-0.7l0.8-3.4c0.1-0.5-0.2-1.1-0.7-1.2l-1.8-0.5l-1.3,5.3
			L277.3,95.7z"/>
	</g>
	<g>
		<path class="st3" d="M270.3,99.2c-0.2,0-0.4,0-0.7-0.1L251.8,94c-0.6-0.2-1.2-0.6-1.5-1.3c-0.3-0.6-0.4-1.3-0.3-2l0.2-0.7
			l22.8,6.5l-0.2,0.7c-0.2,0.7-0.6,1.3-1.2,1.6C271.2,99.1,270.7,99.2,270.3,99.2z M250.9,91.3c0,0.3,0.1,0.6,0.2,0.9
			c0.2,0.4,0.5,0.6,0.9,0.7l17.9,5.1c0.4,0.1,0.8,0.1,1.1-0.2c0.2-0.2,0.4-0.4,0.6-0.6L250.9,91.3z"/>
	</g>
	<g>
		<path d="M250,112.2c-0.3,0-0.5-0.2-0.5-0.6V98.5c0-0.3,0.2-0.6,0.5-0.6c0.3,0,0.5,0.2,0.5,0.6v13.1
			C250.5,112,250.3,112.2,250,112.2z"/>
	</g>
	<g>
		<path class="st3" d="M252,105.7H250v-1.1h2.1c1.8,0,3.3-1.6,3.3-3.6v-6.4h1v6.4C256.4,103.6,254.5,105.7,252,105.7z"/>
	</g>
</g>
<g>
	<g>
		<polygon points="98.2,148.8 97.4,148.8 97.5,128.3 120.5,128.3 120.5,148.8 119.7,148.8 119.7,129.1 98.3,129.1 		"/>
	</g>
	<g>
		<g>
			<path d="M122.5,148.8c-0.2,0-0.4-0.2-0.4-0.4v-24.6l-13.1-6.1l-13.1,6.1v24.6c0,0.2-0.2,0.4-0.4,0.4s-0.4-0.2-0.4-0.4v-25.1
				l13.9-6.5l13.9,6.5v25.1C122.9,148.6,122.7,148.8,122.5,148.8z"/>
		</g>
		<g>
			<path d="M95.5,148.8h-1.6c-0.2,0-0.4-0.2-0.4-0.4c0-0.2,0.2-0.4,0.4-0.4h1.6c0.2,0,0.4,0.2,0.4,0.4
				C95.9,148.6,95.7,148.8,95.5,148.8z"/>
		</g>
		<g>
			<path d="M124.1,148.8h-1.6c-0.2,0-0.4-0.2-0.4-0.4c0-0.2,0.2-0.4,0.4-0.4h1.6c0.2,0,0.4,0.2,0.4,0.4
				C124.5,148.6,124.3,148.8,124.1,148.8z"/>
		</g>
	</g>
	<g>
		<path class="st3" d="M106.1,144H103v-3.2h3.1V144z M103.8,143.2h1.6v-1.6h-1.6V143.2z"/>
	</g>
	<g>
		<path class="st3" d="M115.4,144h-3.1v-3.2h3.1V144z M113,143.2h1.6v-1.6H113V143.2z"/>
	</g>
	<g>
		<path class="st3" d="M117.7,148.8h-7.9v-7.9h7.9V148.8z M110.6,148h6.3v-6.4h-6.3V148z"/>
	</g>
	<g>
		<path class="st3" d="M110.1,135.3h-3.1v-3.1h3.1V135.3z M107.7,134.5h1.6v-1.6h-1.6V134.5z"/>
	</g>
	<g>
		<g>
			<rect x="106.6" y="123.1" class="st3" width="1" height="1.1"/>
		</g>
		<g>
			<rect x="108.7" y="123.1" class="st3" width="1" height="1.1"/>
		</g>
		<g>
			<rect x="110.9" y="123.1" class="st3" width="1" height="1.1"/>
		</g>
	</g>
	<g>
		<path class="st3" d="M108.5,148.8h-7.9v-7.9h7.9V148.8z M101.4,148h6.3v-6.4h-6.3V148z"/>
	</g>
	<g>
		<path class="st3" d="M112.4,140h-7.9v-7.9h7.9V140z M105.3,139.2h6.3v-6.4h-6.3V139.2z"/>
	</g>
</g>
<g>
	<g>
		<g>
			<path class="st3" d="M146.2,138.8l1.3-2.3c0.1-0.2,0.1-0.4,0-0.6s-0.3-0.3-0.5-0.3h-0.4l0.8-1.1c0.2-0.3,0.2-0.7-0.1-0.9
				c-0.3-0.2-0.7-0.2-0.9,0.1l-1.6,2.1c-0.1,0.2-0.2,0.5-0.1,0.7c0.1,0.2,0.3,0.4,0.6,0.4h0.7l-0.8,1.4c-0.2,0.3-0.1,0.7,0.2,0.9
				c0.1,0.1,0.2,0.1,0.3,0.1C145.9,139.1,146.1,139,146.2,138.8z"/>
		</g>
	</g>
	<path class="st2" d="M133.5,144.4c-2.1-2.7-3.3-6.1-3.3-9.8c0-8.9,7.2-16.1,16-16.1c8.8,0,16,7.2,16,16.1c0,1.4-0.2,2.8-0.5,4.1
		c-0.3,1.3-0.9,2.6-1.5,3.8c-0.6,1.2-1.4,2.2-2.4,3.2c-0.9,1-1.9,1.8-3.1,2.5c-1.5,0.9-3.2,1.7-4.9,2.1c-0.2,0.1-0.4,0.1-0.7,0.1"/>
	<g>
		<g>
			<path d="M135.3,143.9c1,0,1.8,0.8,1.8,1.8s-0.8,1.8-1.8,1.8c-1,0-1.8-0.8-1.8-1.8S134.4,143.9,135.3,143.9 M135.3,142.9
				c-1.5,0-2.8,1.3-2.8,2.8c0,1.6,1.3,2.8,2.8,2.8c1.5,0,2.8-1.3,2.8-2.8C138.1,144.2,136.9,142.9,135.3,142.9L135.3,142.9z"/>
		</g>
	</g>
	<g>
		<g>
			<path d="M151.1,132.5v2.9c0,2.6-2.1,4.6-4.6,4.6s-4.6-2.1-4.6-4.6v-2.9H151.1 M152.1,131.5h-11.3v3.9c0,3.1,2.5,5.6,5.6,5.6h0
				c3.1,0,5.6-2.5,5.6-5.6V131.5L152.1,131.5z"/>
		</g>
		<g>
			<path d="M151.5,128.6c0.8,0,1.4,0.6,1.4,1.4c0,0.8-0.6,1.4-1.4,1.4h-9.9c-0.8,0-1.4-0.6-1.4-1.4c0-0.8,0.6-1.4,1.4-1.4H151.5
				 M151.5,127.6h-9.9c-1.3,0-2.4,1.1-2.4,2.4v0c0,1.3,1.1,2.4,2.4,2.4h9.9c1.3,0,2.4-1.1,2.4-2.4v0
				C153.9,128.7,152.8,127.6,151.5,127.6L151.5,127.6z"/>
		</g>
		<g>
			<g>
				<path d="M143.1,122.7c0.5,0,0.9,0.4,0.9,0.9v3.9h-1.8v-3.9C142.2,123.1,142.6,122.7,143.1,122.7 M143.1,121.7
					c-1,0-1.9,0.8-1.9,1.9v4.9h3.8v-4.9C145,122.6,144.1,121.7,143.1,121.7L143.1,121.7z"/>
			</g>
			<g>
				<path d="M150,122.7c0.5,0,0.9,0.4,0.9,0.9v3.9h-1.8v-3.9C149.1,123.1,149.5,122.7,150,122.7 M150,121.7c-1,0-1.9,0.8-1.9,1.9
					v4.9h3.8v-4.9C151.8,122.6,151,121.7,150,121.7L150,121.7z"/>
			</g>
		</g>
		<path class="st2" d="M147.9,140.7v1.2c0,0.3-0.2,0.5-0.5,0.5h-1.6c-0.3,0-0.5-0.2-0.5-0.5v-1.2"/>
	</g>
	<path class="st2" d="M149.3,150.4c0,0-2.9,0.5-2.9-1.9c0-2.3,0-2.3,0-2.3v-3.7"/>
</g>
<g>
	<path d="M185.2,132.2c0.4,0.4,0.9,0.6,1.5,0.6c0.5,0,1.1-0.2,1.5-0.6c0.2-0.2,0.2-0.5,0-0.7c-0.2-0.2-0.5-0.2-0.7,0
		c-0.2,0.2-0.5,0.3-0.8,0.3c-0.3,0-0.6-0.1-0.8-0.3c-0.2-0.2-0.5-0.2-0.7,0C185,131.7,185,132,185.2,132.2L185.2,132.2z
		 M185.2,132.2"/>
	<path d="M184.8,129.9c0.3,0,0.5-0.2,0.5-0.5V129c0-0.3-0.2-0.5-0.5-0.5s-0.5,0.2-0.5,0.5v0.5C184.4,129.7,184.6,129.9,184.8,129.9
		L184.8,129.9z M184.8,129.9"/>
	<g>
		<defs>
			<rect id="SVGID_3_" x="170.6" y="120.1" width="32" height="32"/>
		</defs>
		<clipPath id="SVGID_4_">
			<use xlink:href="#SVGID_3_"  style="overflow:visible;"/>
		</clipPath>
		<path class="st12" d="M188.4,129.9c0.3,0,0.5-0.2,0.5-0.5V129c0-0.3-0.2-0.5-0.5-0.5c-0.3,0-0.5,0.2-0.5,0.5v0.5
			C188,129.7,188.2,129.9,188.4,129.9L188.4,129.9z M188.4,129.9"/>
		<path class="st13" d="M201.2,135.9h-2.7c-0.3,0-0.5,0.2-0.5,0.5c0,0.3,0.2,0.5,0.5,0.5h2.7c0.3,0,0.5,0.2,0.5,0.5v1.2
			c0,0.3-0.2,0.5-0.5,0.5h-29.1c-0.3,0-0.5-0.2-0.5-0.5v-1.2c0-0.3,0.2-0.5,0.5-0.5h24.5c0.3,0,0.5-0.2,0.5-0.5
			c0-0.3-0.2-0.5-0.5-0.5h-4.5c-0.4-0.9-1.2-1.6-2.1-1.8c1-0.9,1.6-2.2,1.6-3.6v-0.2c1.8-0.7,2.8-1.8,2.8-3c0-1,0-2.8-1-4.3
			c-1.2-1.9-3.4-2.9-6.7-2.9c-2.1,0-3.8,0.4-5,1.2c-0.2,0.1-0.3,0.4-0.1,0.7c0.1,0.2,0.4,0.3,0.7,0.1c1.1-0.7,2.6-1.1,4.5-1.1
			c2.3,0,4,0.5,5.1,1.5c-2.2-0.2-4.4-0.1-6.5,0.4c-2.1,0.5-4,1.3-5.1,2.3c0,0-0.1,0.1-0.1,0.1c0.1-0.7,0.4-1.4,0.8-2
			c0.1-0.2,0.1-0.5-0.1-0.7c-0.2-0.1-0.5-0.1-0.7,0.1c-1.1,1.6-1.1,3.5-1.1,4.6c0,1.2,1,2.3,2.8,3v0.2c0,1.4,0.6,2.7,1.6,3.6
			c-1,0.2-1.8,0.9-2.1,1.8h-9.1c-0.8,0-1.5,0.7-1.5,1.5v1.2c0,0.7,0.5,1.3,1.1,1.4v9.4c0,1.4,1.2,2.6,2.6,2.6h24.5
			c1.4,0,2.6-1.2,2.6-2.6v-9.4c0.7-0.1,1.1-0.7,1.1-1.4v-1.2C202.6,136.6,202,135.9,201.2,135.9L201.2,135.9z M179.9,127.3
			c0-0.4,0.3-0.9,0.9-1.4c2-1.7,6.7-3.1,11.8-2.3c0.7,1.3,0.7,2.8,0.7,3.7c0,0.7-0.7,1.4-1.8,1.9v-2.1c0-0.2-0.1-0.4-0.3-0.4
			c-2.9-1.3-6.3-1.3-9.2,0c-0.2,0.1-0.3,0.2-0.3,0.4v2.1C180.6,128.7,179.9,128,179.9,127.3L179.9,127.3z M182.7,130.5v-3.1
			c2.5-1,5.4-1,7.9,0v3.1c0,1.9-1.3,3.5-3.2,3.9c-0.2,0-0.4,0.1-0.6,0.1c0,0,0,0,0,0c0,0-0.1,0-0.1,0
			C184.5,134.4,182.7,132.6,182.7,130.5L182.7,130.5z M184,134.9h0.6c0.6,0.3,1.3,0.4,2,0.4c0,0,0.1,0,0.1,0h0c0.3,0,0.5,0,0.8-0.1
			c0.4-0.1,0.7-0.2,1-0.3h0.6c0.7,0,1.4,0.4,1.7,1h-8.7C182.6,135.3,183.3,134.9,184,134.9L184,134.9z M179.9,140.1h2.6v11h-2.6
			V140.1z M179,151.1h-2.6v-11h2.6V151.1z M183.5,140.1h2.6v11h-2.6V140.1z M187.1,140.1h2.6v11h-2.6V140.1z M190.7,140.1h2.6v11
			h-2.6V140.1z M194.3,140.1h2.6v11h-2.6V140.1z M172.7,149.4v-9.3h2.6v11h-1C173.5,151.1,172.7,150.3,172.7,149.4L172.7,149.4z
			 M200.5,149.4c0,0.9-0.7,1.7-1.7,1.7h-1v-11h2.6V149.4z M200.5,149.4"/>
	</g>
	<path class="st3" d="M197,132.2c-0.4,0.3-0.9,0.8-0.9,1.6c0,0.3,0.2,0.5,0.5,0.5c0.3,0,0.5-0.2,0.5-0.5c0-0.4,0.2-0.6,0.5-0.9
		c0.4-0.3,0.9-0.8,0.9-1.6c0-0.8-0.5-1.3-0.9-1.6c-0.4-0.3-0.5-0.5-0.5-0.9c0-0.4,0.2-0.6,0.5-0.9c0.4-0.3,0.9-0.8,0.9-1.6
		c0-0.3-0.2-0.5-0.5-0.5s-0.5,0.2-0.5,0.5c0,0.4-0.2,0.6-0.5,0.9c-0.4,0.3-0.9,0.8-0.9,1.6c0,0.8,0.5,1.3,0.9,1.6
		c0.4,0.3,0.5,0.5,0.5,0.9C197.6,131.7,197.4,131.9,197,132.2L197,132.2z M197,132.2"/>
	<path class="st3" d="M175.6,132.2c-0.4,0.3-0.9,0.8-0.9,1.6c0,0.3,0.2,0.5,0.5,0.5c0.3,0,0.5-0.2,0.5-0.5c0-0.4,0.2-0.6,0.5-0.9
		c0.4-0.3,0.9-0.8,0.9-1.6c0-0.8-0.5-1.3-0.9-1.6c-0.4-0.3-0.5-0.5-0.5-0.9c0-0.4,0.2-0.6,0.5-0.9c0.4-0.3,0.9-0.8,0.9-1.6
		c0-0.3-0.2-0.5-0.5-0.5c-0.3,0-0.5,0.2-0.5,0.5c0,0.4-0.2,0.6-0.5,0.9c-0.4,0.3-0.9,0.8-0.9,1.6c0,0.8,0.5,1.3,0.9,1.6
		c0.4,0.3,0.5,0.5,0.5,0.9S176,131.9,175.6,132.2L175.6,132.2z M175.6,132.2"/>
</g>
<g>
	<g>
		<g>
			<path class="st3" d="M230.6,147.3c-0.3,0-0.6,0.3-0.6,0.6s0.3,0.6,0.6,0.6s0.6-0.3,0.6-0.6S230.9,147.3,230.6,147.3z"/>
			<path d="M236.6,141.7c-0.6-0.9-1.6-1.7-2.6-2.1l-4.6-1.8c1.2-1.2,1.9-2.8,1.9-4.5c0-0.7-0.1-1.3-0.3-2c0.2-0.1,0.3-0.3,0.3-0.5
				V129l1.1-2.2l1.1-0.5c0.2-0.1,0.4-0.3,0.4-0.6v-1.9c0-0.3-0.2-0.5-0.4-0.6l-1.8-0.6l-4.4-3.3c-0.1-0.1-0.2-0.1-0.4-0.1H223
				c-0.1,0-0.3,0-0.4,0.1l-4.4,3.3l-1.8,0.6c-0.3,0.1-0.4,0.3-0.4,0.6v1.9c0,0.2,0.1,0.5,0.4,0.6l1.1,0.5l1.1,2.2v1.9
				c0,0.2,0.1,0.4,0.3,0.5c-0.2,0.6-0.3,1.3-0.3,2c0,1.7,0.7,3.3,1.9,4.5l-4.7,1.8c-1.1,0.4-2,1.1-2.6,2.1c-0.6,0.9-1,2-1,3.2v5.7
				c0,0.3,0.3,0.6,0.6,0.6h11.4c0,0,0,0,0,0c0,0,0,0,0,0h1.3c0,0,0,0,0,0c0,0,0,0,0,0h11.4c0.4,0,0.6-0.3,0.6-0.6v-5.7
				C237.5,143.8,237.2,142.7,236.6,141.7z M224.6,150l-1-1.6v-4c0-0.1,0-0.3,0.1-0.4l1.1-1.5l1.1,1.5c0.1,0.1,0.1,0.2,0.1,0.4v4
				l-1,1.6H224.6z M223,139.3v0.9c0,0.5,0.2,1,0.6,1.3c0.1,0.1,0.2,0.2,0.3,0.2l-1.1,1.5c-0.2,0.3-0.4,0.7-0.4,1.1v1.9l-3.9-6.3
				l3.2-1.2C222,139,222.5,139.2,223,139.3z M224.9,140.9c-0.2,0-0.3-0.1-0.4-0.2c-0.1-0.1-0.2-0.3-0.2-0.4v-0.7c0.2,0,0.4,0,0.6,0
				c0.2,0,0.4,0,0.6,0v0.7C225.5,140.6,225.2,140.9,224.9,140.9z M227,143.3l-1.1-1.5c0.5-0.3,0.9-0.9,0.9-1.6v-0.9
				c0.5-0.1,0.9-0.3,1.3-0.6l3.2,1.2l-3.9,6.3v-1.9C227.4,144,227.3,143.6,227,143.3z M219.8,130.3v-0.9h10.1v1l-1.7,0.5
				c-1.1,0.4-2.3,0.5-3.4,0.5c-0.6,0-1.2,0-1.7-0.1c-0.6-0.1-1.1-0.2-1.7-0.4C221.4,131,219.8,130.4,219.8,130.3z M218.2,125.8
				l-0.9-0.5v-1l1.5-0.5c0.1,0,0.1-0.1,0.2-0.1l4.3-3.2h3.4l4.3,3.2c0.1,0,0.1,0.1,0.2,0.1l1.5,0.5v1l-0.9,0.5
				c-0.1,0.1-0.2,0.2-0.3,0.3l-1.1,2.2h-10.6l-1.1-2.2C218.4,125.9,218.3,125.8,218.2,125.8z M219.8,133.4c0-0.5,0.1-1.1,0.2-1.6
				l1,0.3c0.6,0.2,1.3,0.4,1.9,0.5c0.6,0.1,1.3,0.2,1.9,0.2c1.3,0,2.6-0.2,3.8-0.6l1-0.3c0.2,0.5,0.3,1,0.3,1.6
				c0,1.7-0.8,3.2-2.2,4.1c0,0,0,0,0,0c-0.5,0.3-1.1,0.6-1.7,0.7c-0.7,0.2-1.5,0.2-2.3,0c-0.6-0.1-1.2-0.4-1.7-0.7
				C220.6,136.6,219.8,135,219.8,133.4z M213.5,144.9c0-1.8,1.1-3.4,2.8-4.1l1-0.4l5.1,8.4l0.7,1.2h-9.7V144.9z M236.3,150h-9.7
				l5.9-9.6l1,0.4c1.7,0.7,2.8,2.3,2.8,4.1V150L236.3,150z"/>
			<path class="st3" d="M224.9,126.9c1.4,0,2.5-1.1,2.5-2.5c0-1.4-1.1-2.5-2.5-2.5s-2.5,1.1-2.5,2.5
				C222.3,125.8,223.5,126.9,224.9,126.9z M224.9,123.2c0.7,0,1.3,0.6,1.3,1.2s-0.6,1.3-1.3,1.3s-1.3-0.6-1.3-1.3
				S224.2,123.2,224.9,123.2z"/>
			<path class="st3" d="M234.4,147.3h-1.3c-0.4,0-0.6,0.3-0.6,0.6s0.3,0.6,0.6,0.6h1.3c0.4,0,0.6-0.3,0.6-0.6
				S234.7,147.3,234.4,147.3z"/>
		</g>
	</g>
	<polyline class="st14" points="217.6,139.9 224.3,150.6 225.5,150.6 232.2,139.8 	"/>
</g>
<g>
	<path class="st15" d="M263.7,139.3c0,2.7-2.1,4.9-4.8,4.9s-4.7-2.2-4.7-4.9"/>
	<polygon class="st16" points="261.7,132.6 261.7,121.6 256,121.6 256,132.6 	"/>
	<path class="st16" d="M270.5,135.9c-0.2-0.1-0.4-0.3-0.4-0.6V134c0-4.6-2.8-8.8-7.1-10.5v9.7c0,0.4-0.3,0.7-0.7,0.7h-7.1
		c-0.4,0-0.7-0.3-0.7-0.7v-9.7c-4.3,1.7-7.1,5.8-7.1,10.5v1.3c0,0.3-0.2,0.5-0.4,0.6l-1.3,0.5v2.4h25.8v-2.4L270.5,135.9z"/>
	<path d="M272.7,135.4l-1.3-0.5V134c0-5.3-3.3-10.1-8.4-11.9v-1.2c0-0.4-0.3-0.7-0.7-0.7h-7c-0.4,0-0.7,0.3-0.7,0.7v1.2
		c-5,1.8-8.4,6.5-8.4,11.9v0.9l-1.3,0.5c-0.2,0.1-0.4,0.3-0.4,0.6v3.5c0,0.4,0.3,0.7,0.7,0.7h0.9h1.3h6h1.3h0h8.1h7.3h1.3h0.7h0.1
		c0.4,0,0.7-0.3,0.7-0.7V136C273.1,135.8,272.9,135.5,272.7,135.4z M261.7,121.6v11H256l0-11H261.7z M271.8,138.8h-25.8v-2.4
		l1.3-0.5c0.2-0.1,0.4-0.3,0.4-0.6V134c0-4.6,2.8-8.8,7.1-10.5v9.7c0,0.4,0.3,0.7,0.7,0.7h7.1c0.4,0,0.7-0.3,0.7-0.7v-9.7
		c4.3,1.7,7.1,5.9,7.1,10.5v1.3c0,0.3,0.2,0.5,0.4,0.6l1.3,0.5V138.8L271.8,138.8L271.8,138.8z"/>
	<path d="M246.8,142.1h2.4c0.2,0.8,0.6,1.6,1,2.4l-1.7,1.7c-0.3,0.3-0.3,0.7,0,0.9l2.8,2.8c0.3,0.3,0.7,0.3,0.9,0l1.7-1.7
		c0.7,0.4,1.5,0.8,2.3,1v2.4c0,0.4,0.3,0.7,0.7,0.7h3.9c0.4,0,0.7-0.3,0.7-0.7v-2.4c0.8-0.2,1.6-0.6,2.4-1l1.7,1.7
		c0.3,0.3,0.7,0.3,0.9,0l2.8-2.8c0.3-0.3,0.3-0.7,0-0.9l-1.7-1.7c0.4-0.7,0.8-1.5,1-2.4h2.4c0.4,0,0.7-0.3,0.7-0.7v-1.3h-1.3l0,0.7
		h-2.2c-0.3,0-0.6,0.2-0.7,0.5c-0.2,1-0.6,2-1.2,2.9c-0.2,0.3-0.1,0.6,0.1,0.8l1.6,1.6l-1.9,1.9l-1.6-1.6c-0.2-0.2-0.6-0.3-0.8-0.1
		c-0.9,0.6-1.9,1-2.9,1.2c-0.3,0.1-0.5,0.3-0.5,0.7v2.2h-2.6v-2.2c0-0.3-0.2-0.6-0.5-0.7c-1-0.2-2-0.6-2.9-1.2
		c-0.3-0.2-0.6-0.1-0.8,0.1l-1.6,1.6l-1.9-1.9l1.6-1.6c0.2-0.2,0.3-0.6,0.1-0.8c-0.6-0.9-1-1.9-1.2-2.9c-0.1-0.3-0.3-0.5-0.7-0.5
		h-2.2v-0.7h-1.3v1.3C246.1,141.9,246.4,142.1,246.8,142.1z"/>
	<path class="st3" d="M246.8,142.1h2.4c0.2,0.8,0.6,1.6,1,2.4l-1.7,1.7c-0.3,0.3-0.3,0.7,0,0.9l2.8,2.8c0.3,0.3,0.7,0.3,0.9,0
		l1.7-1.7c0.7,0.4,1.5,0.8,2.3,1v2.4c0,0.4,0.3,0.7,0.7,0.7h3.9c0.4,0,0.7-0.3,0.7-0.7v-2.4c0.8-0.2,1.6-0.6,2.4-1l1.7,1.7
		c0.3,0.3,0.7,0.3,0.9,0l2.8-2.8c0.3-0.3,0.3-0.7,0-0.9l-1.7-1.7c0.4-0.7,0.8-1.5,1-2.4h2.4c0.4,0,0.7-0.3,0.7-0.7v-1.3h-1.3l0,0.7
		h-2.2c-0.3,0-0.6,0.2-0.7,0.5c-0.2,1-0.6,2-1.2,2.9c-0.2,0.3-0.1,0.6,0.1,0.8l1.6,1.6l-1.9,1.9l-1.6-1.6c-0.2-0.2-0.6-0.3-0.8-0.1
		c-0.9,0.6-1.9,1-2.9,1.2c-0.3,0.1-0.5,0.3-0.5,0.7v2.2h-2.6v-2.2c0-0.3-0.2-0.6-0.5-0.7c-1-0.2-2-0.6-2.9-1.2
		c-0.3-0.2-0.6-0.1-0.8,0.1l-1.6,1.6l-1.9-1.9l1.6-1.6c0.2-0.2,0.3-0.6,0.1-0.8c-0.6-0.9-1-1.9-1.2-2.9c-0.1-0.3-0.3-0.5-0.7-0.5
		h-2.2v-0.7h-1.3v1.3C246.1,141.9,246.4,142.1,246.8,142.1z"/>
</g>
<g>
	<polygon class="st0" points="116.5,168.2 107.8,177.9 104.1,174.6 112.8,164.8 	"/>
	<path class="st0" d="M101.9,185l-1.2,1.4c-0.4,0.5-1.2,0.5-1.6,0.1l-2-1.8c-0.5-0.4-0.5-1.2-0.1-1.7l1.1-1.3L101.9,185z"/>
	<path class="st0" d="M122.6,161.5l1.3-1.4c0.4-0.5,0.4-1.2-0.1-1.7l-2-1.8c-0.5-0.4-1.2-0.4-1.6,0.1l-1.3,1.4L122.6,161.5z"/>
	<path class="st2" d="M113.3,184.3l-2,2.2c-0.4,0.4-1,0.5-1.5,0.1l-14.3-12.8c-0.4-0.4-0.5-1-0.1-1.5l2-2.2c0.4-0.4,1-0.5,1.5-0.1
		l14.3,12.8C113.6,183.2,113.7,183.9,113.3,184.3z"/>
	<path class="st2" d="M125.4,170.8l-2,2.2c-0.4,0.4-1,0.5-1.5,0.1l-14.3-12.8c-0.4-0.4-0.5-1-0.1-1.5l2-2.2c0.4-0.4,1-0.5,1.5-0.1
		l14.3,12.8C125.8,169.7,125.8,170.3,125.4,170.8z"/>
	<path class="st2" d="M108.3,185.2l-1.9,2.2c-0.4,0.4-1.1,0.5-1.5,0.1l-9.2-8.2c-0.4-0.4-0.5-1.1-0.1-1.5l1.9-2.2L108.3,185.2z"/>
	<path class="st2" d="M123.6,167.7c0.2,0.1,0.4,0.1,0.5,0l1.6-1.9c0.4-0.4,0.4-1.1-0.1-1.5l-9.2-8.2c-0.4-0.4-1.1-0.4-1.5,0.1
		l-1.6,1.8c-0.1,0.1-0.1,0.4,0,0.5L123.6,167.7z"/>
</g>
<g>
	<g>
		<g>
			<g>
				<path d="M26.6,25.4c0.3-8.6,5.1-15.8,5.1-15.9c0.2-0.3,0.2-0.7,0-0.9c-0.2-0.3-0.5-0.3-0.8-0.1c-3.9,2.8-6.2,7.4-7.4,10.8
					c-0.2,0.6-0.4,1.2-0.6,1.8c0.1-3.2,0.7-7.4,2.3-11.1c0.1-0.3,0.1-0.7-0.1-0.9S24.7,8.8,24.4,9c-1.2,0.9-2.3,2.2-3.1,3.7
					C21.6,8.1,23.4,2,23.4,2c0.1-0.3,0-0.6-0.2-0.8c-0.2-0.2-0.5-0.2-0.7,0c-1.6,1.6-2.9,4.1-3.8,7.5c-0.5,1.7-0.8,3.3-1,4.8
					c-1-2.4-2.4-4.3-4.1-5.6c-0.2-0.2-0.5-0.2-0.8,0.1c-0.2,0.2-0.3,0.6-0.1,0.9c1.9,4.1,2.4,8.8,2.5,12.3c-0.2-0.7-0.4-1.4-0.7-2.2
					c-1.3-3.6-3.7-8.5-7.9-11.5C6.2,7.1,5.8,7.2,5.6,7.4c-0.2,0.3-0.2,0.7,0,0.9c0,0.1,4,6.1,5.2,13.8c-0.3-0.7-0.7-1.5-1.1-2.3
					c-2.1-4.2-4.4-7-6.8-8.2c-0.3-0.1-0.6,0-0.7,0.2c-0.2,0.3-0.2,0.6,0,0.9c1.5,2.4,5.1,9.2,5.3,12.6L26.6,25.4z M24.7,19.8
					c0.8-2.2,2.1-5,4-7.3c-0.2,0.4-0.4,0.9-0.6,1.3c-1.2,2.8-2.6,7-2.7,11.6h-2.2C23.4,24.3,23.9,22.2,24.7,19.8L24.7,19.8z
					 M23.1,12.3c-0.9,3-1.2,6-1.3,8.3c-0.1,2.2,0,3.9,0,4.8h-2.1c0-2.1,0.3-5.1,1-7.9C21.3,15.4,22.1,13.7,23.1,12.3L23.1,12.3z
					 M21.3,4.9c-0.7,3.1-1.6,7.6-1.2,10.5c-0.2,0.5-0.4,1.1-0.5,1.7c-0.2,0.7-0.3,1.3-0.5,2c-0.2-0.8-0.3-1.7-0.6-2.6
					c0-0.2-0.1-0.3-0.1-0.5C18.7,13.5,19.5,8.5,21.3,4.9L21.3,4.9z M14.7,11.1c1.1,1.5,2,3.5,2.7,5.8c0.8,3.1,1.1,6.2,1.1,8.5h-2.3
					c0.1-1,0.2-2.9,0-5.2C16.1,17.7,15.7,14.4,14.7,11.1L14.7,11.1z M8.7,11.2c2.2,2.6,3.6,5.7,4.5,8.1c0.9,2.6,1.4,4.9,1.6,6h-2.4
					c-0.2-5-1.7-9.5-2.9-12.4C9.2,12.4,8.9,11.8,8.7,11.2L8.7,11.2z M6.1,17.3c-0.4-0.9-0.8-1.7-1.2-2.4c3,3.1,5.1,8.4,5.9,10.5h-2
					C8.6,23.5,7.8,20.8,6.1,17.3L6.1,17.3z M6.1,17.3"/>
			</g>
		</g>
		<g>
			<line class="st9" x1="4" y1="29.6" x2="6.8" y2="29.6"/>
			<line class="st9" x1="11.4" y1="29.6" x2="14.1" y2="29.6"/>
			<line class="st9" x1="7.1" y1="33" x2="9.9" y2="33"/>
			<line class="st9" x1="14.9" y1="33" x2="17.7" y2="33"/>
			<line class="st9" x1="22" y1="33" x2="24.7" y2="33"/>
			<line class="st9" x1="18.9" y1="29.6" x2="21.7" y2="29.6"/>
			<line class="st9" x1="25.3" y1="29.6" x2="28.1" y2="29.6"/>
		</g>
	</g>
	<line class="st9" x1="2.5" y1="25.3" x2="31.1" y2="25.3"/>
</g>
</svg>
