<?xml version="1.0" encoding="UTF-8"?>
<svg width="12px" height="8px" viewBox="0 0 12 8" version="1.1" xmlns="http://www.w3.org/2000/svg" xmlns:xlink="http://www.w3.org/1999/xlink">
    <!-- Generator: Sketch 50.2 (55047) - http://www.bohemiancoding.com/sketch -->
    <title>Combined Shape</title>
    <desc>Created with Sketch.</desc>
    <defs></defs>
    <g id="Other-pages" stroke="none" stroke-width="1" fill="none" fill-rule="evenodd">
        <g id="Artboard-2" transform="translate(-684.000000, -47.000000)" fill="#979797" fill-rule="nonzero">
            <path d="M686.16179,52.8790663 C686.470078,51.5129212 686.88861,49.4151115 686.886158,49.4257423 C687.122222,48.4021362 687.383476,47.9271562 687.985067,47.6804294 C688.466486,47.4829885 693.082548,47.6734423 695.689614,47.5090448 L695.752548,48.5070625 C692.938897,48.684487 688.607967,48.5057974 688.364518,48.6056413 C688.153292,48.6922702 688.029767,48.9168471 687.860581,49.6504636 C687.867103,49.6221848 687.476703,51.5794731 687.168524,52.9599159 C687.209075,52.9370172 687.242213,52.9183471 687.262212,52.9071856 C687.549678,52.7467511 687.823548,52.6011578 688.131584,52.4477891 L688.577287,53.3429698 C688.28434,53.4888259 688.024082,53.6271828 687.749551,53.7803984 C687.662432,53.8290198 687.273975,54.049745 687.183706,54.0990256 C686.727356,54.3481617 686.472391,54.4226222 686.141665,54.2882659 C685.823626,54.1590635 684.702725,52.5778709 684.299988,52.1051175 L685.061214,51.4566308 C685.501992,51.9740384 685.754032,52.3057123 686.16179,52.8790663 Z" id="Combined-Shape"></path>
        </g>
    </g>
</svg>