<?xml version="1.0" encoding="UTF-8"?>
<svg width="23px" height="20px" viewBox="0 0 23 20" version="1.1" xmlns="http://www.w3.org/2000/svg" xmlns:xlink="http://www.w3.org/1999/xlink">
    <!-- Generator: Sketch 50.2 (55047) - http://www.bohemiancoding.com/sketch -->
    <title>Shape</title>
    <desc>Created with Sketch.</desc>
    <defs></defs>
    <g id="Page-1" stroke="none" stroke-width="1" fill="none" fill-rule="evenodd">
        <g id="bed" fill="#00A3E4" fill-rule="nonzero">
            <path d="M22.7921243,14.4309157 C22.8273045,14.3367449 22.8397001,14.2330768 22.8073289,14.1284277 L20.9267718,8.01682363 L20.9267718,2.37803541 C20.9267718,1.06726897 19.8604421,0 18.5487428,0 L4.28047909,0 C2.96873519,0 1.90245002,1.06726897 1.90245002,2.37803541 L1.90245002,8.01686821 L0.021892867,14.1284277 C-0.0104336678,14.2320958 0.00191729793,14.3358085 0.0370974854,14.4309157 C0.0142682636,14.5317747 0,14.6354429 0,14.743882 L0,20 L22.8292664,20 L22.8292664,14.743882 C22.8292218,14.6354429 22.8149535,14.5317747 22.7921243,14.4309157 Z M2.85365273,2.37803541 C2.85365273,1.59136152 3.49380729,0.951205248 4.28047909,0.951205248 L18.5487428,0.951205248 C19.3354146,0.951205248 19.9755691,1.59136152 19.9755691,2.37803541 L19.9755691,7.60973115 L18.6828644,7.60973115 L18.2396119,5.83667173 C18.0798073,5.20030548 17.5100131,4.75607082 16.8546094,4.75607082 L13.79264,4.75607082 C13.0059682,4.75607082 12.3658136,5.39622709 12.3658136,6.18290098 L12.3658136,7.60973115 L10.4633636,7.60973115 L10.4633636,6.18383734 C10.4633636,5.39716345 9.82320904,4.75700717 9.03653725,4.75700717 L5.97456786,4.75700717 C5.31916409,4.75700717 4.74941449,5.20217819 4.58960994,5.83760809 L4.14635741,7.60973115 L2.85365273,7.60973115 L2.85365273,2.37803541 Z M2.72902836,8.56093637 L4.16062567,8.56093637 C4.21105507,8.70361942 4.27668908,8.84059513 4.37273233,8.96423886 C4.64668299,9.31238544 5.05667263,9.51214163 5.49898881,9.51214163 L9.03658183,9.51214163 C9.65582448,9.51214163 10.1789792,9.11262916 10.3758813,8.56093637 L12.4533405,8.56093637 C12.6502425,9.11361012 13.1733973,9.51214163 13.79264,9.51214163 L17.330233,9.51214163 C17.7725491,9.51214163 18.1815579,9.31238544 18.4555085,8.96423886 C18.5515964,8.84153148 18.6172304,8.70361942 18.6676152,8.56093637 L20.1001488,8.56093637 L21.5688437,13.3341738 C21.5136879,13.3275301 21.4594685,13.3170518 21.4023954,13.3170518 L1.42682636,13.3170518 C1.36975331,13.3170518 1.31553391,13.3275301 1.2613145,13.3341738 L2.72902836,8.56093637 Z M21.8780191,19 L0.951202712,19 L0.951202712,14.743882 C0.951202712,14.4813452 1.16522667,14.2682571 1.42682636,14.2682571 L21.4023954,14.2682571 C21.6639952,14.2682571 21.8780191,14.4813452 21.8780191,14.743882 L21.8780191,19 Z M17.9659613,8.37834083 C17.8692364,8.49440445 17.724149,8.5609749 17.5679628,8.5609749 L13.8208635,8.5609749 C13.5437711,8.5609749 13.3170721,8.3478869 13.3170721,8.08535034 L13.3170721,6.18294119 C13.3170721,5.92040462 13.5437711,5.7073166 13.8208635,5.7073166 L17.0651632,5.7073166 C17.2969158,5.7073166 17.4974027,5.85477048 17.5538413,6.06687755 L18.0576328,7.9693313 C18.0959355,8.11295057 18.0626863,8.2613408 17.9659613,8.37834083 Z M9.51219434,6.1828966 L9.51219434,8.08057936 C9.51021067,8.34886783 9.28450122,8.5609749 9.00844508,8.5609749 L5.26130859,8.5609749 C5.10412902,8.5609749 4.960032,8.49440437 4.86330611,8.37834075 C4.76658021,8.26134077 4.73333069,8.11201419 4.77163377,7.96933127 L5.2754302,6.06687755 C5.33186938,5.85570684 5.53235835,5.70731661 5.76510504,5.70731661 L9.00844508,5.70731661 C9.28549301,5.70727202 9.51219434,5.92036003 9.51219434,6.1828966 Z" id="Shape"></path>
        </g>
    </g>
</svg>