<?xml version="1.0" encoding="UTF-8"?>
<svg width="23px" height="23px" viewBox="0 0 23 23" version="1.1" xmlns="http://www.w3.org/2000/svg" xmlns:xlink="http://www.w3.org/1999/xlink">
    <!-- Generator: Sketch 50.2 (55047) - http://www.bohemiancoding.com/sketch -->
    <title>calendar</title>
    <desc>Created with Sketch.</desc>
    <defs></defs>
    <g id="Page-1" stroke="none" stroke-width="1" fill="none" fill-rule="evenodd">
        <g id="calendar" fill="#7F7F7F" fill-rule="nonzero">
            <path d="M20.3645248,23 L2.63547517,23 C1.18165591,23 0,21.8230114 0,20.3749344 L0,4.62489074 C0,3.17681378 1.18165591,2 2.63547517,2 L20.3645248,2 C21.8183441,2 23,3.17681378 23,4.62489074 L23,20.3749344 C23,21.8230114 21.8183441,23 20.3645248,23 Z M2.63547517,3.43182215 C1.97515869,3.43182215 1.4375,3.96718238 1.4375,4.62489074 L1.4375,20.3749344 C1.4375,21.0326428 1.97515869,21.5681778 2.63547517,21.5681778 L20.3645248,21.5681778 C21.0248413,21.5681778 21.5625,21.0326428 21.5625,20.3749344 L21.5625,4.62489074 C21.5625,3.96718238 21.0248413,3.43182215 20.3645248,3.43182215 L2.63547517,3.43182215 Z" id="Shape"></path>
            <path d="M22.28125,9 L0.71875,9 C0.321998607,9 0,8.77600097 0,8.5 C0,8.22399903 0.321998607,8 0.71875,8 L22.28125,8 C22.6780014,8 23,8.22399903 23,8.5 C23,8.77600097 22.6780014,9 22.28125,9 Z" id="Shape"></path>
            <path d="M4.5,5 C4.22399903,5 4,4.72000121 4,4.375 L4,0.625 C4,0.279998789 4.22399903,0 4.5,0 C4.77600097,0 5,0.279998789 5,0.625 L5,4.375 C5,4.72000121 4.77600097,5 4.5,5 Z" id="Shape"></path>
            <path d="M18.5,5 C18.223999,5 18,4.72000121 18,4.375 L18,0.625 C18,0.279998789 18.223999,0 18.5,0 C18.776001,0 19,0.279998789 19,0.625 L19,4.375 C19,4.72000121 18.776001,5 18.5,5 Z" id="Shape"></path>
            <path d="M5.50010686,11 L4.50010681,11 C4.22388379,11 4,11.2236702 4,11.5001069 C4,11.7763299 4.22388379,12 4.50010681,12 L5.50010686,12 C5.77611621,12 6,11.7763299 6,11.5001069 C6,11.2236702 5.77611621,11 5.50010686,11 Z" id="Shape"></path>
            <path d="M9.49989315,11 L8.49989318,11 C8.22388378,11 8,11.2236702 8,11.5001069 C8,11.7763299 8.22388378,12 8.49989318,12 L9.49989315,12 C9.77611622,12 10,11.7763299 10,11.5001069 C10,11.2236702 9.77611622,11 9.49989315,11 Z" id="Shape"></path>
            <path d="M13.5001068,11 L12.5001068,11 C12.2238838,11 12,11.2236702 12,11.5001069 C12,11.7763299 12.2238838,12 12.5001068,12 L13.5001068,12 C13.7763298,12 14,11.7763299 14,11.5001069 C14,11.2236702 13.7763298,11 13.5001068,11 Z" id="Shape"></path>
            <path d="M16.4998931,12 L17.4998932,12 C17.7761162,12 18,11.7763299 18,11.5001069 C18,11.2236702 17.7761162,11 17.4998932,11 L16.4998931,11 C16.2238838,11 16,11.2236702 16,11.5001069 C16,11.7763299 16.2238838,12 16.4998931,12 Z" id="Shape"></path>
            <path d="M5.50010686,14 L4.50010681,14 C4.22388379,14 4,14.2234565 4,14.4998932 C4,14.7763298 4.22388379,15 4.50010681,15 L5.50010686,15 C5.77611621,15 6,14.7763298 6,14.4998932 C6,14.2234565 5.77611621,14 5.50010686,14 Z" id="Shape"></path>
            <path d="M9.49989315,14 L8.49989318,14 C8.22388378,14 8,14.2234565 8,14.4998932 C8,14.7763298 8.22388378,15 8.49989318,15 L9.49989315,15 C9.77611622,15 10,14.7763298 10,14.4998932 C10,14.2234565 9.77611622,14 9.49989315,14 Z" id="Shape"></path>
            <path d="M13.5001068,14 L12.5001068,14 C12.2238838,14 12,14.2234565 12,14.4998932 C12,14.7763298 12.2238838,15 12.5001068,15 L13.5001068,15 C13.7763298,15 14,14.7763298 14,14.4998932 C14,14.2234565 13.7763298,14 13.5001068,14 Z" id="Shape"></path>
            <path d="M16.4998931,15 L17.4998932,15 C17.7761162,15 18,14.7763298 18,14.4998932 C18,14.2234565 17.7761162,14 17.4998932,14 L16.4998931,14 C16.2238838,14 16,14.2234565 16,14.4998932 C16,14.7763298 16.2238838,15 16.4998931,15 Z" id="Shape"></path>
            <path d="M5.50010686,17 L4.50010681,17 C4.22388379,17 4,17.2236702 4,17.5001068 C4,17.7763298 4.22388379,18 4.50010681,18 L5.50010686,18 C5.77611621,18 6,17.7763298 6,17.5001068 C6,17.2236702 5.77611621,17 5.50010686,17 Z" id="Shape"></path>
            <path d="M9.49989315,17 L8.49989318,17 C8.22388378,17 8,17.2236702 8,17.5001068 C8,17.7763298 8.22388378,18 8.49989318,18 L9.49989315,18 C9.77611622,18 10,17.7763298 10,17.5001068 C10,17.2236702 9.77611622,17 9.49989315,17 Z" id="Shape"></path>
        </g>
    </g>
</svg>