<?xml version="1.0" encoding="UTF-8"?>
<svg width="32px" height="26px" viewBox="0 0 32 26" version="1.1" xmlns="http://www.w3.org/2000/svg" xmlns:xlink="http://www.w3.org/1999/xlink">
    <!-- Generator: Sketch 50.2 (55047) - http://www.bohemiancoding.com/sketch -->
    <title>Group 46</title>
    <desc>Created with Sketch.</desc>
    <defs></defs>
    <g id="amenities" stroke="none" stroke-width="1" fill="none" fill-rule="evenodd">
        <g id="Artboard" transform="translate(-463.000000, -274.000000)" fill="#858585" fill-rule="nonzero">
            <g id="lawn" transform="translate(270.000000, 144.000000)">
                <g id="Group" transform="translate(193.000000, 130.000000)">
                    <g id="Group-18">
                        <g>
                            <g id="Group-37">
                                <g id="Group-43">
                                    <g id="Group-46">
                                        <path d="M11.3,24.4 L1,24.4 L1,11.2 L11.3,11.2 L11.3,24.4 Z M1.8,23.5 L10.4,23.5 L10.4,12 L1.8,12 L1.8,23.5 Z" id="Shape"></path>
                                        <path d="M11.3,16.1 L1,16.1 L1,11.1 L11.3,11.1 L11.3,16.1 Z M1.8,15.3 L10.4,15.3 L10.4,12 L1.8,12 L1.8,15.3 Z" id="Shape"></path>
                                        <path d="M31.1,24.4 L20.8,24.4 L20.8,11.2 L31.1,11.2 L31.1,24.4 Z M21.7,23.5 L30.3,23.5 L30.3,12 L21.7,12 L21.7,23.5 Z" id="Shape"></path>
                                        <path d="M31.1,16.1 L20.8,16.1 L20.8,11.1 L31.1,11.1 L31.1,16.1 Z M21.7,15.3 L30.3,15.3 L30.3,12 L21.7,12 L21.7,15.3 Z" id="Shape"></path>
                                        <path d="M21.7,25.5 L10.4,25.5 L10.4,11.1 L21.7,11.1 L21.7,25.5 Z M11.3,24.7 L20.8,24.7 L20.8,12 L11.3,12 L11.3,24.7 Z" id="Shape"></path>
                                        <path d="M21.7,16.1 L10.4,16.1 L10.4,11.1 L21.7,11.1 L21.7,16.1 Z M11.3,15.3 L20.8,15.3 L20.8,12 L11.3,12 L11.3,15.3 Z" id="Shape"></path>
                                        <rect id="Rectangle-path" x="8.7" y="5.8" width="14.7" height="1"></rect>
                                        <path d="M23.3,6.6 L8.3,6.6 L8.3,6.1 L10.6,2.6 L21.2,2.6 L23.8,6.1 L23.8,6.7 L23.3,6.6 Z M9.5,5.8 L22.5,5.8 L20.8,3.5 L11.1,3.5 L9.5,5.8 Z" id="Shape"></path>
                                        <path d="M21.7,3.5 L10.4,3.5 L10.4,0.6 L21.7,0.6 L21.7,3.5 Z M11.3,2.6 L20.9,2.6 L20.9,1.4 L11.3,1.4 L11.3,2.6 Z" id="Shape"></path>
                                        <path d="M31.6,1.4 L1.2,1.4 C1,1.4 0.8,1.2 0.8,1 C0.8,0.8 1,0.6 1.2,0.6 L31.6,0.6 C31.8,0.6 32,0.8 32,1 C32,1.2 31.8,1.4 31.6,1.4 Z" id="Shape"></path>
                                        <path d="M11.3,24.4 L1,24.4 L1,11.2 L11.3,11.2 L11.3,24.4 Z M1.8,23.5 L10.4,23.5 L10.4,12 L1.8,12 L1.8,23.5 Z" id="Shape"></path>
                                    </g>
                                </g>
                            </g>
                        </g>
                    </g>
                </g>
            </g>
        </g>
    </g>
</svg>