<?xml version="1.0" encoding="UTF-8"?>
<svg width="24px" height="22px" viewBox="0 0 24 22" version="1.1" xmlns="http://www.w3.org/2000/svg" xmlns:xlink="http://www.w3.org/1999/xlink">
    <!-- Generator: Sketch 50.2 (55047) - http://www.bohemiancoding.com/sketch -->
    <title>Shape</title>
    <desc>Created with Sketch.</desc>
    <defs></defs>
    <g id="Page-1" stroke="none" stroke-width="1" fill="none" fill-rule="evenodd">
        <g id="tape" fill="#00A3E4" fill-rule="nonzero">
            <g id="ladder">
                <path d="M22.2093094,1.1 L16.9798202,1.1 C16.4376828,1.1 15.9987586,1.54110188 16.0021845,2.08932242 L16.0021388,7.37458638 L9.13658732,7.37458638 C8.59646619,7.37458638 8.15813068,7.81264403 8.15813068,8.35225878 L8.15813068,13.6491728 L2.07767768,13.6491728 C1.53553969,13.6491728 1.09661524,14.0902754 1.09996701,14.6256497 C1.12706612,16.9472925 1.15466324,18.7119727 1.18264847,19.9166588 L22.2093094,20.1581422 L22.2093094,1.1 Z M7.05813068,8.35225878 C7.05813068,7.20470798 7.98937586,6.27458638 9.13658732,6.27458638 L14.9021483,6.27458638 L14.9021845,2.08931292 C14.8949365,0.936803916 15.8284779,0 16.9798202,0 L23.3093094,0 L23.3093094,21.2708479 L0.112508062,21.0044411 C0.0741079679,19.8941357 0.0366192607,17.7721515 4.19409382e-05,14.6384884 C-0.0072077676,13.4859781 0.9263345,12.5491728 2.07767768,12.5491728 L7.05813068,12.5491728 L7.05813068,8.35225878 Z" id="Shape"></path>
            </g>
        </g>
    </g>
</svg>