<?xml version="1.0" encoding="UTF-8"?>
<svg width="24px" height="22px" viewBox="0 0 24 22" version="1.1" xmlns="http://www.w3.org/2000/svg" xmlns:xlink="http://www.w3.org/1999/xlink">
    <!-- Generator: Sketch 50.2 (55047) - http://www.bohemiancoding.com/sketch -->
    <title>Shape</title>
    <desc>Created with Sketch.</desc>
    <defs></defs>
    <g id="detail" stroke="none" stroke-width="1" fill="none" fill-rule="evenodd">
        <g id="property-detail" transform="translate(-709.000000, -131.000000)" fill="#FF3B30" fill-rule="nonzero">
            <g id="heart" transform="translate(709.000000, 131.000000)">
                <path d="M11.0506213,20.9627193 C10.0829679,20.1165936 9.15003654,19.3214547 8.32693712,18.6200658 C5.90953946,16.5599415 3.82565792,14.7839912 2.37573099,13.0345395 C0.754934222,11.0787646 0,9.2244152 0,7.19864767 C0,5.23044589 0.674890339,3.41465642 1.90021932,2.08552632 C3.14016814,0.740679813 4.84155701,0 6.69152047,0 C8.07419593,0 9.34046054,0.437134503 10.4550438,1.29915935 C11.0175439,1.7342836 11.5274123,2.26681287 11.9766082,2.88797516 C12.4259869,2.26681287 12.9356725,1.7342836 13.4983553,1.29915935 C14.6129386,0.437134503 15.8792032,0 17.2618786,0 C19.1116594,0 20.813231,0.740679813 22.0531798,2.08552632 C23.2785088,3.41465642 23.9532164,5.23044589 23.9532164,7.19864767 C23.9532164,9.2244152 23.1984649,11.0787646 21.5776681,13.0343567 C20.1277412,14.7839912 18.0440424,16.5597588 15.6312135,18.6160453 C14.8066521,19.3185307 13.8722588,20.1149488 12.9024123,20.9630848 C12.6463816,21.1871345 12.3174342,21.3106725 11.9766082,21.3106725 C11.6355994,21.3106725 11.3068348,21.1871345 11.0506213,20.9627193 Z" id="Shape"></path>
            </g>
        </g>
    </g>
</svg>