<?xml version="1.0" encoding="UTF-8"?>
<svg width="273px" height="41px" viewBox="0 0 273 41" version="1.1" xmlns="http://www.w3.org/2000/svg" xmlns:xlink="http://www.w3.org/1999/xlink">
    <!-- Generator: Sketch 50.2 (55047) - http://www.bohemiancoding.com/sketch -->
    <title>Group</title>
    <desc>Created with Sketch.</desc>
    <defs></defs>
    <g id="Page-1" stroke="none" stroke-width="1" fill="none" fill-rule="evenodd">
        <g id="Artboard" transform="translate(-162.000000, -114.000000)" fill="#FFFFFF" fill-rule="nonzero">
            <g id="Group" transform="translate(162.000000, 114.000000)">
                <g id="logo-white">
                    <path d="M6.67176484,37.7670593 L4.41952652,36.2492241 C4.04404601,35.9961793 3.81900128,35.5734347 3.81900128,35.1211431 L3.81900128,21.5848541 L1.36319689,21.5848541 C0.610324036,21.5848541 0,20.9755038 0,20.2238323 C0,19.8567238 0.14853768,19.5051832 0.411899647,19.2489992 L18.3248768,1.11678997 C18.5834843,0.865230862 19.2642327,0.00579866671 19.9546986,3.16646509e-05 C20.6777401,-0.00600741947 21.4114377,0.853488168 21.6821973,1.1169656 L39.5882802,19.2491749 C40.1274288,19.7738231 40.1385041,20.6355034 39.6130175,21.1737919 C39.3564364,21.4366237 39.0044101,21.5848541 38.6368025,21.5848541 L36.1801099,21.5848541 L36.1801099,25.2715614 C36.1801099,25.5730891 36.1801099,27.1364027 36.1801099,29.9615022 C35.5560922,30.3820422 31.8560027,28.1738733 31.4347908,27.5508513 C31.2827269,27.325931 31.2014778,27.0607613 31.2014778,26.7893966 L30.5779358,19.4505155 C30.5114478,18.6679742 30.1407457,17.9427086 29.5454344,17.4304627 L20.5156645,9.66064166 C19.9920437,9.16913001 19.1761632,9.16792395 18.6510869,9.6578854 L10.5334508,16.5362586 C9.89089506,17.0807198 9.50679373,17.8702018 9.47499435,18.7118103 L8.79763339,36.6389782 C8.79763339,37.3906498 8.18730935,38 7.4344365,38 C7.16263808,38 6.89704459,37.9188805 6.67176484,37.7670593 Z" id="Path-6"></path>
                    <circle id="Oval-7" cx="20.5" cy="25.5" r="4.5"></circle>
                    <path d="M54,27.6396149 L54,7.36038514 C54,6.45345718 54.4416148,6 55.3248578,6 L57.0597906,6 C57.8063412,6 58.347845,6.3005472 58.6843186,6.90165062 L66.8227306,19.2874828 C67.0750857,19.6882184 67.3616096,20.186494 67.6823108,20.7823247 C68.0030122,21.3781552 68.2579922,21.8711581 68.4472585,22.261348 L68.7311566,22.8466299 L68.7942451,22.8466299 C68.647038,21.3807813 68.5734354,20.1944108 68.5734354,19.2874828 L68.5734354,7.36038514 C68.5734354,6.92801251 68.6917251,6.59319238 68.9283081,6.35591472 C69.164891,6.11863706 69.4987308,6 69.9298374,6 L71.3808721,6 C71.8119788,6 72.1458186,6.11863706 72.3824015,6.35591472 C72.6189845,6.59319238 72.7372741,6.92801251 72.7372741,7.36038514 L72.7372741,27.6396149 C72.7372741,28.5465429 72.2851447,29 71.3808721,29 L69.6301671,29 C68.915161,29 68.3894291,28.6994528 68.0529555,28.0983493 L59.8829994,15.7441541 C59.6306442,15.3434184 59.346749,14.8451428 59.031305,14.2493122 C58.7158612,13.6534817 58.4582525,13.1604788 58.2584714,12.7702889 L57.9745733,12.1850069 L57.9114848,12.1850069 C58.0586919,13.6508556 58.1322945,14.837226 58.1322945,15.7441541 L58.1322945,27.6396149 C58.1322945,28.5465429 57.6906796,29 56.8074367,29 L55.3248578,29 C54.4416148,29 54,28.5465429 54,27.6396149 Z M74.5834036,20.5963515 C74.5834036,18.1188255 75.3723879,16.0994674 76.95038,14.5382165 C78.528372,12.9769657 80.574382,12.1963519 83.0884709,12.1963519 C85.4099915,12.1963519 87.2286669,12.9053028 88.5445519,14.3232257 C89.8604369,15.7411486 90.5183694,17.5813495 90.5183694,19.8438836 C90.5183694,20.2022034 90.3766197,20.5170083 90.093116,20.7883077 C89.8096124,21.059607 89.469948,21.1952547 89.0741127,21.1952547 L78.8519845,21.1952547 C78.9803636,22.5875833 79.5179427,23.6676456 80.4647379,24.4354738 C81.4115332,25.2033021 82.5482054,25.5872104 83.8747885,25.5872104 C85.1478804,25.5872104 86.3514157,25.2442523 87.4854303,24.5583257 C87.7849813,24.4149978 88.0577827,24.3433349 88.3038425,24.3433349 C88.7317726,24.3433349 89.0741115,24.5583236 89.3308695,24.9883074 L89.7320518,25.6179235 C89.8818274,25.8943417 89.9567141,26.1502807 89.956714,26.3857479 C89.9567141,26.7850187 89.7267051,27.1177393 89.2666803,27.3839197 C87.4907705,28.4588794 85.5972084,28.9963512 83.5859372,28.9963512 C81.7886309,28.9963512 80.19729,28.6124427 78.8118664,27.8446144 C77.4264429,27.0767862 76.3753554,26.0581492 75.6585725,24.788673 C74.9417897,23.5191969 74.5834036,22.1217704 74.5834036,20.5963515 Z M78.9482683,19.0847639 L86.3781668,19.0847639 C86.3460721,17.9366896 86.0171058,17.0300462 85.3912581,16.3648069 C84.7654103,15.6995675 83.9657281,15.3669528 82.9921871,15.3669528 C81.9330603,15.3669528 81.0451188,15.7022499 80.3283359,16.3728541 C79.611553,17.0434583 79.1515352,17.9474192 78.9482683,19.0847639 Z M91.636402,33.8589618 L91.636402,13.9225183 C91.636402,13.4974542 91.7567554,13.1682936 91.9974662,12.9350267 C92.2381768,12.7017598 92.5778412,12.5851281 93.0164695,12.5851281 L94.0755911,12.5851281 C94.5035212,12.5851281 94.8351619,12.6862089 95.0705235,12.8883736 C95.3058851,13.0905382 95.4235641,13.3574952 95.4235641,13.6892525 L95.4235641,14.4201518 L95.3754221,15.0577447 L95.4556586,15.0577447 C95.4984517,14.9851729 95.5599657,14.8840921 95.6402025,14.7544993 C95.7204395,14.6249066 95.9156796,14.394235 96.2259289,14.0624777 C96.5361781,13.7307203 96.8758425,13.440437 97.2449322,13.191619 C97.6140219,12.942801 98.1221813,12.7147212 98.7694255,12.5073729 C99.4166697,12.3000245 100.104022,12.1963519 100.831503,12.1963519 C103.088834,12.1963519 104.896812,12.9790802 106.255489,14.5445602 C107.614167,16.1100402 108.293496,18.1627579 108.293496,20.7027752 C108.293496,23.2531598 107.571375,25.3084694 106.127111,26.8687658 C104.682847,28.429062 102.842775,29.2091985 100.606841,29.2091985 C99.9542476,29.2091985 99.3444564,29.1236686 98.777449,28.9526062 C98.2104418,28.7815438 97.7504238,28.5741985 97.3973815,28.3305643 C97.0443393,28.0869299 96.7394436,27.8432993 96.4826856,27.5996649 C96.2259277,27.3560307 96.0440601,27.1512772 95.9370776,26.9853986 L95.7766046,26.7210308 L95.7124154,26.7210308 C95.7766049,27.1046252 95.8086992,27.571152 95.8086992,28.120625 L95.8086992,33.8589618 C95.8086992,34.7505597 95.3486813,35.1963519 94.4286316,35.1963519 L93.0164695,35.1963519 C92.0964198,35.1963519 91.636402,34.7505597 91.636402,33.8589618 Z M95.6803208,21.0965665 C95.6803208,22.4914233 96.0520795,23.7011751 96.7956079,24.7258583 C97.5391364,25.7505416 98.5581296,26.2628756 99.852618,26.2628756 C101.050822,26.2628756 102.051094,25.7988244 102.853462,24.8707082 C103.655831,23.9425919 104.05701,22.6738278 104.05701,21.0643777 C104.05701,19.4763869 103.674553,18.1995756 102.909628,17.2339056 C102.144703,16.2682355 101.147106,15.7854077 99.9168072,15.7854077 C98.7293013,15.7854077 97.7263552,16.2333646 96.907939,17.1292918 C96.0895227,18.025219 95.6803208,19.3476307 95.6803208,21.0965665 Z M108.256123,24.31701 C108.256123,23.664356 108.373802,23.0660986 108.609164,22.5222202 C108.844525,21.9783418 109.15477,21.519937 109.539907,21.1469917 C109.925044,20.7740465 110.390411,20.4425446 110.936022,20.1524761 C111.481633,19.8624078 112.040608,19.6345002 112.612964,19.4687467 C113.185321,19.3029933 113.80581,19.1657308 114.474451,19.0569552 C115.143092,18.9481795 115.758232,18.8756635 116.31989,18.839405 C116.881548,18.8031464 117.456571,18.7850173 118.044974,18.7850173 L118.735008,18.7850173 L118.735008,18.3965347 C118.735008,17.4020141 118.448834,16.6768539 117.876478,16.221032 C117.304121,15.7652101 116.55258,15.5373026 115.621833,15.5373026 C114.445025,15.5373026 113.284282,15.8429058 112.139569,16.4541216 C111.850716,16.5784366 111.588613,16.6405933 111.353252,16.6405933 C110.893227,16.6405933 110.54019,16.4023262 110.29413,15.9257851 L109.973184,15.3197523 C109.823409,15.0400433 109.748522,14.7862373 109.748522,14.5583263 C109.748522,14.1439428 109.994578,13.8020815 110.486698,13.5327322 C112.273306,12.6418076 114.102679,12.1963519 115.974873,12.1963519 C118.146618,12.1963519 119.847615,12.7635309 121.077914,13.8979059 C122.308212,15.0322808 122.923353,16.619864 122.923353,18.6607028 L122.923353,27.471489 C122.923353,28.3624137 122.463335,28.8078692 121.543285,28.8078692 L120.419974,28.8078692 C119.521321,28.8078692 119.072001,28.3624137 119.072001,27.471489 L119.072001,26.8343775 L119.136191,26.1351087 L119.072001,26.1351087 C119.029208,26.2179854 118.96502,26.3293493 118.879434,26.4692038 C118.793848,26.6090582 118.593259,26.8550948 118.27766,27.2073209 C117.962062,27.5595468 117.619723,27.8677399 117.250633,28.1319095 C116.881544,28.3960789 116.386757,28.6395256 115.766258,28.8622568 C115.14576,29.0849879 114.493176,29.1963519 113.808488,29.1963519 C112.246543,29.1963519 110.930678,28.7431267 109.860853,27.8366626 C108.791028,26.9301987 108.256123,25.7569929 108.256123,24.31701 Z M112.396326,24.3959228 C112.396326,24.9967841 112.620986,25.5144828 113.070312,25.9490343 C113.519639,26.3835859 114.140128,26.6008584 114.931799,26.6008584 C116.033719,26.6008584 116.95108,26.1368073 117.68391,25.208691 C118.416741,24.2805748 118.78315,23.2693187 118.78315,22.1748926 L118.78315,21.5633048 L118.093116,21.5633048 C117.451221,21.5633048 116.849454,21.5954932 116.287795,21.6598712 C115.726137,21.7242493 115.127044,21.8476385 114.490498,22.0300429 C113.853952,22.2124473 113.345793,22.5048264 112.966005,22.9071889 C112.586217,23.3095514 112.396326,23.805791 112.396326,24.3959228 Z M124.859797,28 L124.859797,7.38412017 C124.859797,6.46136878 125.309117,6 126.20777,6 L127.652027,6 C128.55068,6 129,6.46136878 129,7.38412017 L129,28 C129,28.5522847 128.552285,29 128,29 L125.859797,29 C125.307513,29 124.859797,28.5522847 124.859797,28 Z" id="Nepal"></path>
                    <path d="M130.669637,27.6396149 L130.669637,7.36038514 C130.669637,6.45345718 131.129498,6 132.049234,6 L133.59307,6 C134.512806,6 134.972668,6.45345718 134.972668,7.36038514 L134.972668,15.7441541 L145.910905,15.7441541 L145.910905,7.36038514 C145.910905,6.45345718 146.381715,6 147.323351,6 L148.834339,6 C149.754075,6 150.213937,6.45345718 150.213937,7.36038514 L150.213937,27.6396149 C150.213937,28.5465429 149.754075,29 148.834339,29 L147.323351,29 C146.381715,29 145.910905,28.5465429 145.910905,27.6396149 L145.910905,19.3507565 L134.972668,19.3507565 L134.972668,27.6396149 C134.972668,28.5465429 134.512806,29 133.59307,29 L132.049234,29 C131.129498,29 130.669637,28.5465429 130.669637,27.6396149 Z M151.726365,20.4935767 C151.726365,18.8762596 152.140779,17.4144757 152.969619,16.1081812 C153.79846,14.8018866 154.920608,13.7884868 156.336095,13.0679513 C157.751583,12.3474158 159.304291,11.9871535 160.994264,11.9871535 C162.684238,11.9871535 164.236945,12.3474158 165.652433,13.0679513 C167.067921,13.7884868 168.192759,14.8018866 169.026981,16.1081812 C169.861204,17.4144757 170.278308,18.8762596 170.278308,20.4935767 C170.278308,22.1212611 169.861204,23.5882287 169.026981,24.8945233 C168.192759,26.2008179 167.070612,27.2116258 165.660506,27.9269776 C164.2504,28.6423294 162.695001,29 160.994264,29 C159.293526,29 157.740818,28.6423294 156.336095,27.9269776 C154.931373,27.2116258 153.811916,26.2008179 152.977693,24.8945233 C152.14347,23.5882287 151.726365,22.1212611 151.726365,20.4935767 Z M156.005098,20.4935767 C156.005098,21.9761174 156.486787,23.1890869 157.450181,24.1325219 C158.413574,25.0759569 159.594922,25.5476672 160.994264,25.5476672 C162.393605,25.5476672 163.580337,25.0759569 164.554494,24.1325219 C165.52865,23.1890869 166.015721,21.9761174 166.015721,20.4935767 C166.015721,19.0214035 165.52865,17.8084339 164.554494,16.8546315 C163.580337,15.9008291 162.393605,15.4239351 160.994264,15.4239351 C159.594922,15.4239351 158.413574,15.9008291 157.450181,16.8546315 C156.486787,17.8084339 156.005098,19.0214035 156.005098,20.4935767 Z M171.435522,27.6866817 L171.435522,14.1261678 C171.435522,13.23457 171.88761,12.7887777 172.7918,12.7887777 L174.083493,12.7887777 C174.987682,12.7887777 175.439771,13.23457 175.439771,14.1261678 L175.439771,15.1058839 L175.375186,15.8367831 C175.913395,14.9348178 176.645346,14.1365387 177.635649,13.4419217 C178.625953,12.7473048 179.734645,12.4000015 180.961759,12.4000015 C183.534394,12.4000015 185.175905,13.5144821 185.886339,15.7434768 C186.424548,14.8311442 187.186101,14.0458241 188.235606,13.3874931 C189.285113,12.7291621 190.439552,12.4000015 191.698959,12.4000015 C195.380304,12.4000015 197.220948,14.457903 197.220948,18.5737676 L197.220948,27.6866817 C197.220948,28.5782796 196.758096,29.0240718 195.832377,29.0240718 L194.411515,29.0240718 C193.485797,29.0240718 193.022945,28.5782796 193.022945,27.6866817 L193.022945,19.335769 C193.022945,18.8277654 192.993344,18.3949323 192.934141,18.0372564 C192.874938,17.6795805 192.764606,17.3452363 192.603144,17.0342139 C192.441682,16.7231913 192.204874,16.4899279 191.892713,16.3344167 C191.580553,16.1789054 191.187666,16.101151 190.714042,16.101151 C189.809853,16.101151 189.024081,16.3784751 188.356703,16.933132 C187.689325,17.4877888 187.199562,18.1823954 186.887402,19.0169725 C186.575241,19.8515496 186.419163,20.7560931 186.419163,21.7306302 L186.419163,27.6866817 C186.419163,28.5782796 185.967075,29.0240718 185.062885,29.0240718 L183.60973,29.0240718 C182.684012,29.0240718 182.22116,28.5782796 182.22116,27.6866817 L182.22116,19.335769 C182.22116,18.9418071 182.207705,18.6022792 182.180795,18.3171752 C182.153885,18.0320713 182.091991,17.741788 181.995113,17.4463166 C181.898237,17.1508453 181.77176,16.9098064 181.615679,16.7231929 C181.459599,16.5365793 181.241628,16.386254 180.961759,16.2722125 C180.68189,16.1581709 180.348206,16.101151 179.960697,16.101151 C179.250262,16.101151 178.609804,16.2670271 178.039304,16.5987845 C177.468803,16.9305418 177.011332,17.3685586 176.666879,17.912848 C176.322427,18.4571374 176.058708,19.0558468 175.875717,19.7089941 C175.692726,20.3621413 175.601232,21.0360133 175.601232,21.7306302 L175.601232,27.6866817 C175.601232,28.5782796 175.149145,29.0240718 174.244954,29.0240718 L172.7918,29.0240718 C171.88761,29.0240718 171.435522,28.5782796 171.435522,27.6866817 Z M198.200553,20.4935767 C198.200553,17.9846617 198.994398,15.9397194 200.582113,14.3586882 C202.169826,12.7776572 204.228442,11.9871535 206.75802,11.9871535 C209.093843,11.9871535 210.923724,12.7050863 212.247716,14.1409736 C213.571709,15.5768609 214.233695,17.4403761 214.233695,19.7315754 C214.233695,20.0944349 214.091072,20.4132283 213.805822,20.6879648 C213.520572,20.9627014 213.178814,21.1000676 212.78054,21.1000676 L202.495432,21.1000676 C202.624603,22.5100364 203.165494,23.6037824 204.118123,24.3813387 C205.070752,25.1588949 206.214426,25.5476672 207.549182,25.5476672 C208.830117,25.5476672 210.041068,25.200364 211.18207,24.5057471 C211.483466,24.3606033 211.757949,24.2880324 212.005524,24.2880324 C212.436091,24.2880324 212.780538,24.5057449 213.038878,24.9411764 L213.442533,25.5787694 C213.593232,25.8586896 213.668578,26.1178713 213.668578,26.3563217 C213.668578,26.7606511 213.437152,27.0975871 212.974294,27.3671399 C211.187443,28.4557187 209.282214,29 207.258552,29 C205.450172,29 203.849026,28.6112276 202.455068,27.8336713 C201.061108,27.0561151 200.003544,26.0245725 199.282346,24.7390127 C198.561147,23.4534531 198.200553,22.0383218 198.200553,20.4935767 Z M202.59231,18.6430019 L210.067984,18.6430019 C210.035692,17.5336884 209.704699,16.6576547 209.074995,16.0148749 C208.445292,15.3720951 207.640682,15.0507099 206.661143,15.0507099 C205.595492,15.0507099 204.70208,15.3746869 203.980879,16.0226504 C203.259681,16.670614 202.796829,17.5440558 202.59231,18.6430019 Z M214.309115,26.5273833 C214.29835,26.4755462 214.29835,26.4237099 214.309115,26.3718728 C214.309115,26.0919525 214.416755,25.8068528 214.632038,25.5165653 L215.035693,24.9411764 C215.283268,24.609419 215.55775,24.4228084 215.859147,24.3813387 C215.912968,24.3709713 215.966788,24.3657876 216.020608,24.3657876 C216.278948,24.3657876 216.574958,24.4539093 216.908648,24.6301555 C217.317685,24.8478712 217.645988,25.0163393 217.893563,25.1355645 C218.141139,25.2547898 218.536716,25.3869725 219.080307,25.5321162 C219.623897,25.67726 220.159406,25.7498309 220.68685,25.7498309 C221.408049,25.7498309 221.978542,25.6020974 222.398344,25.306626 C222.818146,25.0111547 223.028044,24.6042396 223.028044,24.0858688 C223.028044,23.7333766 222.874657,23.4223588 222.567879,23.152806 C222.261099,22.883253 221.860141,22.6525814 221.364989,22.4607843 C220.869838,22.268987 220.326256,22.0771927 219.734226,21.8853955 C219.142197,21.6935983 218.550177,21.4629267 217.958148,21.1933738 C217.366119,20.923821 216.822538,20.6128032 216.327386,20.2603109 C215.832234,19.9078188 215.431275,19.441292 215.124496,18.8607167 C214.817718,18.2801414 214.66433,17.611453 214.66433,16.8546315 C214.66433,15.3202537 215.275187,14.1254268 216.496921,13.2701149 C217.718653,12.414803 219.255214,11.9871535 221.106651,11.9871535 C222.78586,11.9871535 224.352022,12.3811094 225.805184,13.1690331 C226.278808,13.4178511 226.515616,13.7496035 226.515616,14.1643001 C226.515616,14.3923833 226.445649,14.651565 226.305715,14.9418526 L225.966645,15.5172414 C225.71907,15.9837752 225.36924,16.2170384 224.917146,16.2170384 C224.680334,16.2170384 224.416616,16.1548349 224.125983,16.0304259 C222.888104,15.5016877 221.817086,15.2373225 220.912897,15.2373225 C220.180933,15.2373225 219.618514,15.3746887 219.225622,15.6494253 C218.832731,15.9241619 218.636287,16.315526 218.636287,16.8235294 C218.636287,17.1760215 218.789674,17.4896312 219.096452,17.7643678 C219.403232,18.0391044 219.80419,18.2697758 220.299342,18.4563894 C220.794494,18.643003 221.338075,18.8296136 221.930105,19.0162271 C222.522134,19.2028407 223.114154,19.4283286 223.706182,19.6926978 C224.298212,19.9570668 224.841794,20.2629011 225.336945,20.6102095 C225.832097,20.9575181 226.233057,21.421453 226.539835,22.0020283 C226.846613,22.5826037 227,23.2461084 227,23.9925624 C227,25.4440009 226.413363,26.6414195 225.240069,27.5848546 C224.066775,28.5282896 222.516758,29 220.589973,29 C218.523253,29 216.644936,28.4453515 214.954962,27.3360378 C214.567452,27.1286894 214.352171,26.8591407 214.309115,26.5273833 Z" id="Homes"></path>
                    <path d="M231,28.3364674 L231,27.7253189 C231,27.4401149 231.130691,27.297515 231.392078,27.297515 L231.936187,27.297515 C232.197574,27.297515 232.328265,27.4401149 232.328265,27.7253189 L232.328265,28.3364674 C232.328265,28.6333124 232.197574,28.7817327 231.936187,28.7817327 L231.392078,28.7817327 C231.130691,28.7817327 231,28.6333124 231,28.3364674 Z M234.288658,22.4170584 C234.288658,21.5148824 234.432685,20.6680139 234.720744,19.8764271 C235.008803,19.0848404 235.403544,18.4053084 235.904981,17.8378106 C236.406417,17.2703129 237.018534,16.8221418 237.741348,16.4932841 C238.464163,16.1644264 239.241644,16 240.073815,16 C240.553913,16 241.014001,16.0465632 241.45409,16.1396911 C241.894182,16.2328189 242.275587,16.3565025 242.59832,16.5107454 C242.921052,16.6649885 243.185103,16.8061332 243.390478,16.934184 C243.595853,17.0622349 243.781222,17.1961041 243.94659,17.3357959 C244.047944,17.4231032 244.09862,17.5278704 244.09862,17.6501008 C244.09862,17.7432286 244.069281,17.8479959 244.010603,17.9644057 L243.858571,18.2001343 C243.778555,18.3165441 243.685205,18.3747481 243.578515,18.3747481 C243.493165,18.3747481 243.40248,18.3398257 243.306462,18.2699798 C242.346264,17.5307776 241.279395,17.161182 240.105822,17.161182 C239.193635,17.161182 238.382813,17.3925431 237.673335,17.855272 C236.963856,18.3180009 236.419752,18.9451493 236.041008,19.7367361 C235.662264,20.5283228 235.472894,21.4159341 235.472894,22.3995971 C235.472894,23.3949009 235.662264,24.3028838 236.041008,25.1235729 C236.419752,25.944262 236.970524,26.6005125 237.693339,27.0923438 C238.416154,27.5841752 239.238977,27.8300872 240.161832,27.8300872 C241.426091,27.8300872 242.567641,27.3790061 243.586518,26.4768301 C243.687872,26.3895228 243.781223,26.3458697 243.866574,26.3458697 C243.967928,26.3458697 244.058612,26.4069839 244.138628,26.5292141 L244.290659,26.7212894 C244.365341,26.8260583 244.402681,26.9279152 244.402681,27.0268636 C244.402681,27.1374529 244.354671,27.2451303 244.258652,27.3498992 C243.058406,28.4499718 241.682144,29 240.129826,29 C239.270983,29 238.474831,28.8282981 237.741348,28.4848891 C237.007864,28.1414802 236.390413,27.6743929 235.888978,27.0836132 C235.387542,26.4928334 234.995467,25.794385 234.712743,24.9882472 C234.430018,24.1821092 234.288658,23.3250549 234.288658,22.4170584 Z M245.906981,22.4170584 C245.906981,21.5265234 246.056343,20.6854752 246.35507,19.8938884 C246.6538,19.1023018 247.061877,18.4213147 247.579316,17.8509066 C248.096755,17.2804986 248.71954,16.8294173 249.44769,16.4976495 C250.175839,16.1658815 250.95332,16 251.780157,16 C252.884383,16 253.885907,16.2822895 254.784757,16.8468771 C255.683608,17.4114646 256.385075,18.1826681 256.889179,19.1605105 C257.393281,20.1383527 257.64533,21.223858 257.64533,22.4170584 C257.64533,23.6335409 257.393281,24.7437827 256.889179,25.7478173 C256.385075,26.7518519 255.683608,27.5448817 254.784757,28.1269308 C253.885907,28.7089798 252.884383,29 251.780157,29 C250.95332,29 250.175839,28.8282981 249.44769,28.4848891 C248.71954,28.1414802 248.096755,27.6773031 247.579316,27.0923438 C247.061877,26.5073845 246.6538,25.8089361 246.35507,24.9969778 C246.056343,24.1850194 245.906981,23.3250549 245.906981,22.4170584 Z M247.091218,22.4170584 C247.091218,23.4240033 247.293924,24.3407167 247.699339,25.1672264 C248.104757,25.9937359 248.666197,26.6441659 249.383677,27.118536 C250.101157,27.5929058 250.899975,27.8300872 251.780157,27.8300872 C252.665671,27.8300872 253.467157,27.5929058 254.184637,27.118536 C254.902117,26.6441659 255.460891,25.9937359 255.860973,25.1672264 C256.261054,24.3407167 256.461092,23.4240033 256.461092,22.4170584 C256.461092,21.4333956 256.261054,20.5414187 255.860973,19.7411014 C255.460891,18.940784 254.902117,18.3107254 254.184637,17.8509066 C253.467157,17.3910879 252.665671,17.161182 251.780157,17.161182 C250.899975,17.161182 250.101157,17.3896329 249.383677,17.8465413 C248.666197,18.3034498 248.104757,18.9335084 247.699339,19.7367361 C247.293924,20.5399637 247.091218,21.4333956 247.091218,22.4170584 Z M259.677736,28.319006 L260.541908,16.6198791 C260.557912,16.3463161 260.693939,16.2095366 260.94999,16.2095366 L261.398079,16.2095366 C261.63813,16.2095366 261.795493,16.3230344 261.870175,16.5500335 L264.750751,23.5957017 L265.326866,25.1323035 L265.358872,25.1323035 C265.556246,24.5386136 265.742948,24.0264181 265.918984,23.5957017 L268.79956,16.5500335 C268.890246,16.3230344 269.050276,16.2095366 269.279657,16.2095366 L269.719744,16.2095366 C269.975797,16.2095366 270.111823,16.3463161 270.127827,16.6198791 L271,28.319006 L271,28.3713902 C271,28.6449531 270.869309,28.7817327 270.607922,28.7817327 L270.279857,28.7817327 C270.01847,28.7817327 269.879777,28.6449531 269.863773,28.3713902 L269.263653,19.9811954 L269.207641,18.2350571 L269.175636,18.2350571 C268.962258,18.9684389 268.767556,19.5504792 268.591519,19.9811954 L265.999,26.1014104 C265.924318,26.3284095 265.772289,26.4419073 265.542909,26.4419073 L265.15083,26.4419073 C264.905447,26.4419073 264.745417,26.3284095 264.670735,26.1014104 L262.10222,19.9811954 C262.027539,19.7949398 261.939522,19.553393 261.838168,19.256548 C261.736814,18.959703 261.654132,18.7094257 261.590118,18.5057085 L261.494099,18.2001343 L261.462092,18.2001343 C261.462092,18.9335161 261.44609,19.5271972 261.414083,19.9811954 L260.805962,28.3713902 C260.789958,28.6449531 260.653933,28.7817327 260.397881,28.7817327 L260.069814,28.7817327 C259.808427,28.7817327 259.677736,28.6449531 259.677736,28.3713902 L259.677736,28.319006 Z" id=".COM"></path>
                </g>
                <path d="M212.485,40 L213.37,32.835 L215.49,32.835 C215.863335,32.835 216.184165,32.8724996 216.4525,32.9475 C216.720835,33.0225004 216.941666,33.129166 217.115,33.2675 C217.288334,33.405834 217.416666,33.5741657 217.5,33.7725 C217.583334,33.9708343 217.625,34.1916655 217.625,34.435 C217.625,34.6483344 217.594167,34.8516657 217.5325,35.045 C217.470833,35.2383343 217.378334,35.4166659 217.255,35.58 C217.131666,35.7433342 216.977501,35.8883327 216.7925,36.015 C216.607499,36.1416673 216.391668,36.243333 216.145,36.32 C216.575002,36.4166672 216.898332,36.5858321 217.115,36.8275 C217.331668,37.0691679 217.44,37.3766648 217.44,37.75 C217.44,38.0800016 217.380834,38.3824986 217.2625,38.6575 C217.144166,38.9325014 216.973334,39.169999 216.75,39.37 C216.526666,39.570001 216.254168,39.7249994 215.9325,39.835 C215.610832,39.9450006 215.248335,40 214.845,40 L212.485,40 Z M213.825,36.725 L213.51,39.26 L214.92,39.26 C215.183335,39.26 215.414999,39.2250004 215.615,39.155 C215.815001,39.0849997 215.981666,38.9850007 216.115,38.855 C216.248334,38.7249994 216.348333,38.5683342 216.415,38.385 C216.481667,38.2016658 216.515,37.9950012 216.515,37.765 C216.515,37.4483318 216.408334,37.1958343 216.195,37.0075 C215.981666,36.8191657 215.660002,36.725 215.23,36.725 L213.825,36.725 Z M213.905,36.065 L215.06,36.065 C215.330001,36.065 215.565832,36.029167 215.7675,35.9575 C215.969168,35.885833 216.137499,35.785834 216.2725,35.6575 C216.407501,35.529166 216.508333,35.3750009 216.575,35.195 C216.641667,35.0149991 216.675,34.8166678 216.675,34.6 C216.675,34.256665 216.571668,33.9991675 216.365,33.8275 C216.158332,33.6558325 215.838335,33.57 215.405,33.57 L214.215,33.57 L213.905,36.065 Z M223.19,36.02 C223.19,36.2400011 223.145,36.4424991 223.055,36.6275 C222.965,36.8125009 222.800001,36.9791659 222.56,37.1275 C222.319999,37.2758341 221.990002,37.4049994 221.57,37.515 C221.149998,37.6250005 220.610003,37.713333 219.95,37.78 C219.946667,37.8166668 219.945,37.8524998 219.945,37.8875 L219.945,37.995 C219.945,38.4416689 220.042499,38.7824988 220.2375,39.0175 C220.432501,39.2525012 220.726665,39.37 221.12,39.37 C221.280001,39.37 221.422499,39.3533335 221.5475,39.32 C221.672501,39.2866665 221.784166,39.2458336 221.8825,39.1975 C221.980834,39.1491664 222.0675,39.0958336 222.1425,39.0375 C222.2175,38.9791664 222.286666,38.9258336 222.35,38.8775 C222.413334,38.8291664 222.471666,38.7883335 222.525,38.755 C222.578334,38.7216665 222.631666,38.705 222.685,38.705 C222.745,38.705 222.8,38.733333 222.85,38.79 L223.07,39.065 C222.899999,39.2416676 222.734167,39.3924994 222.5725,39.5175 C222.410833,39.6425006 222.245001,39.7466663 222.075,39.83 C221.904999,39.9133337 221.727501,39.9741665 221.5425,40.0125 C221.357499,40.0508335 221.158334,40.07 220.945,40.07 C220.654999,40.07 220.395001,40.0216671 220.165,39.925 C219.934999,39.8283328 219.740001,39.6908342 219.58,39.5125 C219.419999,39.3341658 219.296667,39.1183346 219.21,38.865 C219.123333,38.6116654 219.08,38.3283349 219.08,38.015 C219.08,37.7549987 219.1075,37.4958346 219.1625,37.2375 C219.2175,36.9791654 219.297499,36.7333345 219.4025,36.5 C219.507501,36.2666655 219.635833,36.050001 219.7875,35.85 C219.939167,35.649999 220.112499,35.4775007 220.3075,35.3325 C220.502501,35.1874993 220.717499,35.0733338 220.9525,34.99 C221.187501,34.9066663 221.439999,34.865 221.71,34.865 C221.966668,34.865 222.188332,34.9016663 222.375,34.975 C222.561668,35.0483337 222.714999,35.1416661 222.835,35.255 C222.955001,35.3683339 223.044166,35.4933326 223.1025,35.63 C223.160834,35.7666673 223.19,35.8966661 223.19,36.02 Z M221.66,35.505 C221.449999,35.505 221.256668,35.5483329 221.08,35.635 C220.903332,35.7216671 220.746667,35.8408326 220.61,35.9925 C220.473333,36.1441674 220.356667,36.322499 220.26,36.5275 C220.163333,36.732501 220.088334,36.9533322 220.035,37.19 C220.548336,37.1266664 220.959998,37.0541671 221.27,36.9725 C221.580002,36.8908329 221.818332,36.8025005 221.985,36.7075 C222.151667,36.6124995 222.261666,36.5100006 222.315,36.4 C222.368334,36.2899994 222.395,36.1750006 222.395,36.055 C222.395,35.9949997 222.381667,35.9325003 222.355,35.8675 C222.328333,35.8024997 222.285834,35.7433336 222.2275,35.69 C222.169166,35.6366664 222.093334,35.5925002 222,35.5575 C221.906666,35.5224998 221.793334,35.505 221.66,35.505 Z M225.02,39.045 C225.02,39.0249999 225.020833,38.9991668 225.0225,38.9675 C225.024167,38.9358332 225.0275,38.8900003 225.0325,38.83 C225.0375,38.7699997 225.045,38.6916672 225.055,38.595 C225.065,38.4983328 225.08,38.3716675 225.1,38.215 L225.415,35.68 L224.85,35.68 C224.806666,35.68 224.770833,35.6675001 224.7425,35.6425 C224.714166,35.6174999 224.7,35.5783336 224.7,35.525 C224.7,35.515 224.701667,35.4950002 224.705,35.465 C224.708333,35.4349998 224.7125,35.4008335 224.7175,35.3625 C224.7225,35.3241665 224.7275,35.2850002 224.7325,35.245 C224.7375,35.2049998 224.741667,35.1666668 224.745,35.13 L225.525,35.025 L225.9,33.46 C225.913333,33.4099997 225.938333,33.3691668 225.975,33.3375 C226.011667,33.3058332 226.056666,33.29 226.11,33.29 L226.58,33.29 L226.36,35.035 L227.69,35.035 L227.615,35.68 L226.28,35.68 L225.975,38.17 C225.958333,38.3066673 225.945833,38.4166662 225.9375,38.5 L225.9175,38.7 C225.9125,38.7500002 225.909167,38.7849999 225.9075,38.805 C225.905833,38.8250001 225.905,38.8399999 225.905,38.85 C225.905,39.0200009 225.944166,39.1458329 226.0225,39.2275 C226.100834,39.3091671 226.208333,39.35 226.345,39.35 C226.431667,39.35 226.508333,39.3375001 226.575,39.3125 C226.641667,39.2874999 226.699166,39.2600001 226.7475,39.23 C226.795834,39.1999998 226.836666,39.1725001 226.87,39.1475 C226.903333,39.1224999 226.933333,39.11 226.96,39.11 C226.986667,39.11 227.0075,39.1166666 227.0225,39.13 C227.0375,39.1433334 227.053333,39.1649999 227.07,39.195 L227.255,39.62 C227.094999,39.763334 226.910834,39.8758329 226.7025,39.9575 C226.494166,40.0391671 226.285001,40.08 226.075,40.08 C225.751665,40.08 225.496668,39.9916676 225.31,39.815 C225.123332,39.6383325 225.026667,39.3816683 225.02,39.045 Z M232.56,40 L232.1,40 C231.983333,40 231.904167,39.9700003 231.8625,39.91 C231.820833,39.8499997 231.8,39.7766671 231.8,39.69 L231.89,38.665 C231.769999,38.8783344 231.640834,39.0716658 231.5025,39.245 C231.364166,39.4183342 231.217501,39.5658327 231.0625,39.6875 C230.907499,39.8091673 230.745001,39.903333 230.575,39.97 C230.404999,40.036667 230.228334,40.07 230.045,40.07 C229.844999,40.07 229.663334,40.0308337 229.5,39.9525 C229.336666,39.8741663 229.197501,39.7591674 229.0825,39.6075 C228.967499,39.4558326 228.878334,39.2691678 228.815,39.0475 C228.751666,38.8258322 228.72,38.5716681 228.72,38.285 C228.72,37.9849985 228.7575,37.6925014 228.8325,37.4075 C228.9075,37.1224986 229.014166,36.8533346 229.1525,36.6 C229.290834,36.3466654 229.456666,36.1141677 229.65,35.9025 C229.843334,35.6908323 230.059165,35.5075008 230.2975,35.3525 C230.535834,35.1974992 230.791665,35.0775004 231.065,34.9925 C231.338335,34.9074996 231.624998,34.865 231.925,34.865 C232.141668,34.865 232.352499,34.8824998 232.5575,34.9175 C232.762501,34.9525002 232.964999,35.0133329 233.165,35.1 L232.56,40 Z M230.38,39.33 C230.543334,39.33 230.703332,39.2791672 230.86,39.1775 C231.016667,39.0758328 231.164999,38.9350009 231.305,38.755 C231.445001,38.5749991 231.575833,38.3608346 231.6975,38.1125 C231.819167,37.8641654 231.926666,37.5916682 232.02,37.295 L232.235,35.555 C232.161666,35.5383333 232.089167,35.5275 232.0175,35.5225 C231.945833,35.5175 231.875,35.515 231.805,35.515 C231.604999,35.515 231.411668,35.5474997 231.225,35.6125 C231.038332,35.6775003 230.863334,35.7683327 230.7,35.885 C230.536666,36.0016672 230.388334,36.1408325 230.255,36.3025 C230.121666,36.4641675 230.0075,36.6416657 229.9125,36.835 C229.817499,37.0283343 229.743334,37.2341656 229.69,37.4525 C229.636666,37.6708344 229.61,37.8949989 229.61,38.125 C229.61,38.9283373 229.866664,39.33 230.38,39.33 Z M237.74,32.835 L238.485,32.835 C238.568334,32.835 238.633333,32.8566664 238.68,32.9 C238.726667,32.9433335 238.758333,32.9966663 238.775,33.06 L239.97,38.18 C239.996667,38.2866672 240.0225,38.404166 240.0475,38.5325 C240.0725,38.660834 240.093333,38.7949993 240.11,38.935 C240.156667,38.7949993 240.205833,38.6616673 240.2575,38.535 C240.309167,38.4083327 240.361666,38.2900006 240.415,38.18 L242.86,33.06 C242.886667,33.0066664 242.930833,32.9558336 242.9925,32.9075 C243.054167,32.8591664 243.125,32.835 243.205,32.835 L243.955,32.835 L240.39,40 L239.545,40 L237.74,32.835 Z M248.065,36.02 C248.065,36.2400011 248.02,36.4424991 247.93,36.6275 C247.839999,36.8125009 247.675001,36.9791659 247.435,37.1275 C247.194999,37.2758341 246.865002,37.4049994 246.445,37.515 C246.024998,37.6250005 245.485003,37.713333 244.825,37.78 C244.821667,37.8166668 244.82,37.8524998 244.82,37.8875 L244.82,37.995 C244.82,38.4416689 244.917499,38.7824988 245.1125,39.0175 C245.307501,39.2525012 245.601665,39.37 245.995,39.37 C246.155001,39.37 246.297499,39.3533335 246.4225,39.32 C246.547501,39.2866665 246.659166,39.2458336 246.7575,39.1975 C246.855834,39.1491664 246.9425,39.0958336 247.0175,39.0375 C247.0925,38.9791664 247.161666,38.9258336 247.225,38.8775 C247.288334,38.8291664 247.346666,38.7883335 247.4,38.755 C247.453333,38.7216665 247.506666,38.705 247.56,38.705 C247.62,38.705 247.675,38.733333 247.725,38.79 L247.945,39.065 C247.774999,39.2416676 247.609167,39.3924994 247.4475,39.5175 C247.285832,39.6425006 247.120001,39.7466663 246.95,39.83 C246.779999,39.9133337 246.602501,39.9741665 246.4175,40.0125 C246.232499,40.0508335 246.033334,40.07 245.82,40.07 C245.529998,40.07 245.270001,40.0216671 245.04,39.925 C244.809999,39.8283328 244.615001,39.6908342 244.455,39.5125 C244.294999,39.3341658 244.171667,39.1183346 244.085,38.865 C243.998333,38.6116654 243.955,38.3283349 243.955,38.015 C243.955,37.7549987 243.9825,37.4958346 244.0375,37.2375 C244.0925,36.9791654 244.172499,36.7333345 244.2775,36.5 C244.3825,36.2666655 244.510832,36.050001 244.6625,35.85 C244.814167,35.649999 244.987499,35.4775007 245.1825,35.3325 C245.377501,35.1874993 245.592499,35.0733338 245.8275,34.99 C246.062501,34.9066663 246.314999,34.865 246.585,34.865 C246.841668,34.865 247.063332,34.9016663 247.25,34.975 C247.436667,35.0483337 247.589999,35.1416661 247.71,35.255 C247.83,35.3683339 247.919166,35.4933326 247.9775,35.63 C248.035834,35.7666673 248.065,35.8966661 248.065,36.02 Z M246.535,35.505 C246.324999,35.505 246.131667,35.5483329 245.955,35.635 C245.778332,35.7216671 245.621667,35.8408326 245.485,35.9925 C245.348333,36.1441674 245.231667,36.322499 245.135,36.5275 C245.038333,36.732501 244.963333,36.9533322 244.91,37.19 C245.423336,37.1266664 245.834998,37.0541671 246.145,36.9725 C246.455001,36.8908329 246.693332,36.8025005 246.86,36.7075 C247.026667,36.6124995 247.136666,36.5100006 247.19,36.4 C247.243333,36.2899994 247.27,36.1750006 247.27,36.055 C247.27,35.9949997 247.256667,35.9325003 247.23,35.8675 C247.203333,35.8024997 247.160834,35.7433336 247.1025,35.69 C247.044166,35.6366664 246.968334,35.5925002 246.875,35.5575 C246.781666,35.5224998 246.668334,35.505 246.535,35.505 Z M249.455,40 L250.065,34.93 L250.51,34.93 C250.603334,34.93 250.676666,34.9516664 250.73,34.995 C250.783333,35.0383335 250.81,35.1049996 250.81,35.195 C250.81,35.2083334 250.809167,35.2274999 250.8075,35.2525 C250.805833,35.2775001 250.804167,35.3033332 250.8025,35.33 C250.800833,35.3566668 250.799167,35.3799999 250.7975,35.4 C250.795833,35.4200001 250.795,35.4316666 250.795,35.435 L250.725,36.355 C250.941668,35.888331 251.184165,35.5283346 251.4525,35.275 C251.720835,35.0216654 252.003332,34.895 252.3,34.895 C252.440001,34.895 252.579999,34.9249997 252.72,34.985 L252.56,35.84 C252.403332,35.7766663 252.251667,35.745 252.105,35.745 C251.781665,35.745 251.493334,35.9024984 251.24,36.2175 C250.986665,36.5325016 250.775001,37.0099968 250.605,37.65 L250.325,40 L249.455,40 Z M257.055,35.745 C257.028333,35.7850002 257.001667,35.8141666 256.975,35.8325 C256.948333,35.8508334 256.915,35.86 256.875,35.86 C256.828333,35.86 256.7775,35.8416668 256.7225,35.805 C256.6675,35.7683332 256.600834,35.7275002 256.5225,35.6825 C256.444166,35.6374998 256.348334,35.5958335 256.235,35.5575 C256.121666,35.5191665 255.985001,35.5 255.825,35.5 C255.674999,35.5 255.538334,35.5208331 255.415,35.5625 C255.291666,35.6041669 255.185,35.6616663 255.095,35.735 C255.004999,35.8083337 254.935833,35.8941662 254.8875,35.9925 C254.839166,36.0908338 254.815,36.1949994 254.815,36.305 C254.815,36.4616675 254.866666,36.5866662 254.97,36.68 C255.073334,36.7733338 255.203332,36.8541663 255.36,36.9225 C255.516667,36.9908337 255.685832,37.0566664 255.8675,37.12 C256.049167,37.1833337 256.218332,37.2633328 256.375,37.36 C256.531667,37.4566672 256.661666,37.5799993 256.765,37.73 C256.868334,37.8800008 256.92,38.0749988 256.92,38.315 C256.92,38.5483345 256.874167,38.7716656 256.7825,38.985 C256.690833,39.1983344 256.559167,39.3858325 256.3875,39.5475 C256.215832,39.7091675 256.009168,39.8383329 255.7675,39.935 C255.525832,40.0316672 255.255001,40.08 254.955,40.08 C254.631665,40.08 254.345834,40.0225006 254.0975,39.9075 C253.849165,39.7924994 253.646667,39.6450009 253.49,39.465 L253.71,39.125 C253.736667,39.0816665 253.768333,39.0483335 253.805,39.025 C253.841667,39.0016665 253.888333,38.99 253.945,38.99 C253.998333,38.99 254.051666,39.0133331 254.105,39.06 C254.158333,39.1066669 254.224999,39.1591664 254.305,39.2175 C254.385,39.2758336 254.485833,39.3283331 254.6075,39.375 C254.729167,39.4216669 254.883332,39.445 255.07,39.445 C255.233334,39.445 255.380833,39.4200003 255.5125,39.37 C255.644167,39.3199998 255.755833,39.2533337 255.8475,39.17 C255.939167,39.0866663 256.009166,38.9891672 256.0575,38.8775 C256.105833,38.7658328 256.13,38.6466673 256.13,38.52 C256.13,38.3499992 256.078334,38.2150005 255.975,38.115 C255.871666,38.0149995 255.741667,37.931667 255.585,37.865 C255.428332,37.798333 255.260001,37.7358336 255.08,37.6775 C254.899999,37.6191664 254.731667,37.5441671 254.575,37.4525 C254.418332,37.3608329 254.288334,37.2416674 254.185,37.095 C254.081666,36.9483326 254.03,36.7533345 254.03,36.51 C254.03,36.2966656 254.072499,36.0908343 254.1575,35.8925 C254.2425,35.6941657 254.364999,35.5183341 254.525,35.365 C254.685001,35.2116659 254.879165,35.0891671 255.1075,34.9975 C255.335834,34.9058329 255.593332,34.86 255.88,34.86 C256.183335,34.86 256.450832,34.9108328 256.6825,35.0125 C256.914168,35.1141672 257.113332,35.2516658 257.28,35.425 L257.055,35.745 Z M260.12,34.935 L259.51,40 L258.635,40 L259.245,34.935 L260.12,34.935 Z M260.455,33.345 C260.455,33.4316671 260.4375,33.5124996 260.4025,33.5875 C260.3675,33.6625004 260.320833,33.7291664 260.2625,33.7875 C260.204166,33.8458336 260.138334,33.8916665 260.065,33.925 C259.991666,33.9583335 259.915,33.975 259.835,33.975 C259.758333,33.975 259.683334,33.9583335 259.61,33.925 C259.536666,33.8916665 259.4725,33.8458336 259.4175,33.7875 C259.3625,33.7291664 259.318333,33.6625004 259.285,33.5875 C259.251666,33.5124996 259.235,33.4316671 259.235,33.345 C259.235,33.2583329 259.251666,33.176667 259.285,33.1 C259.318333,33.0233329 259.363333,32.9558336 259.42,32.8975 C259.476667,32.8391664 259.541666,32.7925002 259.615,32.7575 C259.688334,32.7224998 259.763333,32.705 259.84,32.705 C259.92,32.705 259.996666,32.7216665 260.07,32.755 C260.143334,32.7883335 260.209166,32.8341664 260.2675,32.8925 C260.325833,32.9508336 260.371666,33.0191663 260.405,33.0975 C260.438333,33.1758337 260.455,33.2583329 260.455,33.345 Z M263.665,39.375 C263.908334,39.375 264.129999,39.308334 264.33,39.175 C264.530001,39.041666 264.699999,38.8641678 264.84,38.6425 C264.980001,38.4208322 265.088333,38.1650014 265.165,37.875 C265.241667,37.5849986 265.28,37.2816682 265.28,36.965 C265.28,36.498331 265.188334,36.1466679 265.005,35.91 C264.821666,35.6733322 264.556668,35.555 264.21,35.555 C263.963332,35.555 263.740834,35.6208327 263.5425,35.7525 C263.344166,35.8841673 263.175001,36.0608322 263.035,36.2825 C262.894999,36.5041678 262.786667,36.7599985 262.71,37.05 C262.633333,37.3400015 262.595,37.6433318 262.595,37.96 C262.595,38.426669 262.685832,38.7791655 262.8675,39.0175 C263.049167,39.2558345 263.314998,39.375 263.665,39.375 Z M263.585,40.07 C263.308332,40.07 263.055001,40.0225005 262.825,39.9275 C262.594999,39.8324995 262.396667,39.6950009 262.23,39.515 C262.063332,39.3349991 261.933334,39.1150013 261.84,38.855 C261.746666,38.5949987 261.7,38.298335 261.7,37.965 C261.7,37.5383312 261.766666,37.1366685 261.9,36.76 C262.033334,36.3833315 262.215832,36.0533347 262.4475,35.77 C262.679168,35.4866653 262.952498,35.2633341 263.2675,35.1 C263.582501,34.9366658 263.923331,34.855 264.29,34.855 C264.566668,34.855 264.819999,34.9024995 265.05,34.9975 C265.280001,35.0925005 265.478332,35.2299991 265.645,35.41 C265.811667,35.5900009 265.941666,35.810832 266.035,36.0725 C266.128334,36.334168 266.175,36.6299984 266.175,36.96 C266.175,37.3833354 266.108334,37.7833314 265.975,38.16 C265.841666,38.5366686 265.659168,38.8666652 265.4275,39.15 C265.195832,39.4333348 264.921668,39.6574992 264.605,39.8225 C264.288332,39.9875008 263.948335,40.07 263.585,40.07 Z M267.635,40 L268.24,34.93 L268.685,34.93 C268.885001,34.93 268.985,35.029999 268.985,35.23 L268.91,36.21 C269.180001,35.7633311 269.484165,35.4266678 269.8225,35.2 C270.160835,34.9733322 270.511665,34.86 270.875,34.86 C271.251668,34.86 271.544165,34.9866654 271.7525,35.24 C271.960834,35.4933346 272.065,35.8633309 272.065,36.35 C272.065,36.416667 272.063333,36.4849996 272.06,36.555 C272.056666,36.6250004 272.05,36.698333 272.04,36.775 L271.66,40 L270.77,40 L271.15,36.775 C271.156667,36.708333 271.1625,36.644167 271.1675,36.5825 C271.1725,36.520833 271.175,36.461667 271.175,36.405 C271.175,36.1316653 271.124167,35.9291673 271.0225,35.7975 C270.920833,35.6658327 270.761668,35.6 270.545,35.6 C270.384999,35.6 270.222501,35.6433329 270.0575,35.73 C269.892499,35.8166671 269.733334,35.9391659 269.58,36.0975 C269.426666,36.2558341 269.284167,36.4474989 269.1525,36.6725 C269.020832,36.8975011 268.908334,37.1483319 268.815,37.425 L268.525,40 L267.635,40 Z" id="Beta-Version"></path>
            </g>
        </g>
    </g>
</svg>