<?xml version="1.0" encoding="UTF-8"?>
<svg width="40px" height="38px" viewBox="0 0 40 38" version="1.1" xmlns="http://www.w3.org/2000/svg" xmlns:xlink="http://www.w3.org/1999/xlink">
    <!-- Generator: Sketch 50.2 (55047) - http://www.bohemiancoding.com/sketch -->
    <title>Group 2</title>
    <desc>Created with Sketch.</desc>
    <defs></defs>
    <g id="Visiting-Card" stroke="none" stroke-width="1" fill="none" fill-rule="evenodd">
        <g id="FRONT2" transform="translate(-39.000000, -27.000000)" fill-rule="nonzero">
            <g id="Group" transform="translate(39.000000, 27.000000)">
                <g id="Group-2">
                    <path d="M6.67176484,37.7670593 L4.41952652,36.2492241 C4.04404601,35.9961793 3.81900128,35.5734347 3.81900128,35.1211431 L3.81900128,21.5848541 L1.36319689,21.5848541 C0.610324036,21.5848541 0,20.9755038 0,20.2238323 C0,19.8567238 0.14853768,19.5051832 0.411899647,19.2489992 L18.3248768,1.11678997 C18.5834843,0.865230862 19.2642327,0.00579866671 19.9546986,3.16646509e-05 C20.6777401,-0.00600741947 21.4114377,0.853488168 21.6821973,1.1169656 L39.5882802,19.2491749 C40.1274288,19.7738231 40.1385041,20.6355034 39.6130175,21.1737919 C39.3564364,21.4366237 39.0044101,21.5848541 38.6368025,21.5848541 L36.1801099,21.5848541 L36.1801099,25.2715614 C36.1801099,25.5730891 36.1801099,27.1364027 36.1801099,29.9615022 C35.5560922,30.3820422 31.8560027,28.1738733 31.4347908,27.5508513 C31.2827269,27.325931 31.2014778,27.0607613 31.2014778,26.7893966 L30.5779358,19.4505155 C30.5114478,18.6679742 30.1407457,17.9427086 29.5454344,17.4304627 L20.5156645,9.66064166 C19.9920437,9.16913001 19.1761632,9.16792395 18.6510869,9.6578854 L10.5334508,16.5362586 C9.89089506,17.0807198 9.50679373,17.8702018 9.47499435,18.7118103 L8.79763339,36.6389782 C8.79763339,37.3906498 8.18730935,38 7.4344365,38 C7.16263808,38 6.89704459,37.9188805 6.67176484,37.7670593 Z" id="Path-6" fill="#0291DD"></path>
                    <circle id="Oval-7" fill="#2c357d" cx="20.5" cy="25.5" r="4.5"></circle>
                </g>
            </g>
        </g>
    </g>
</svg>