<?xml version="1.0" encoding="UTF-8"?>
<svg width="128px" height="122px" viewBox="0 0 128 122" version="1.1" xmlns="http://www.w3.org/2000/svg" xmlns:xlink="http://www.w3.org/1999/xlink">
    <!-- Generator: Sketch 50.2 (55047) - http://www.bohemiancoding.com/sketch -->
    <title>logo-outline</title>
    <desc>Created with Sketch.</desc>
    <defs></defs>
    <g id="Page-1" stroke="none" stroke-width="1" fill="none" fill-rule="evenodd">
        <g id="logo-outline" transform="translate(1.000000, 1.000000)" stroke="#FFFFFF">
            <path d="M20.9749319,119.264398 L13.8942649,114.471234 C12.7138159,113.672145 12.0063122,112.337162 12.0063122,110.908873 L12.0063122,68.1626972 L4.28566694,68.1626972 C1.91875844,68.1626972 0,66.2384331 0,63.8647336 C0,62.7054436 0.466978049,61.5953154 1.29494478,60.7863133 L57.6104004,3.52670517 C58.4234198,2.73230799 60.5635809,0.0183115791 62.7342922,9.99936343e-05 C65.0074158,-0.0189707983 67.3140405,2.69522579 68.1652641,3.52725979 L124.459045,60.7868681 C126.15404,62.4436519 126.188859,65.1647476 124.536815,66.864606 C123.730167,67.6946012 122.623454,68.1626972 121.467756,68.1626972 L113.744318,68.1626972 L113.744318,79.8049307 C113.744318,80.7571235 113.744318,85.6939033 113.744318,94.6152701 C111.782509,95.9432912 100.150036,88.9701262 98.825815,87.0026883 C98.347751,86.2924137 98.0923172,85.4550357 98.0923172,84.5980945 L96.1320037,61.4226805 C95.9229763,58.9514975 94.7575499,56.6611851 92.885989,55.0435664 L64.4978768,30.5072895 C62.8516991,28.9551474 60.2867049,28.9513388 58.6359513,30.4985855 L33.1154378,52.219764 C31.0953482,53.9391152 29.8877967,56.4322162 29.7878247,59.0899273 L27.6583132,115.702036 C27.6583132,118.075736 25.7395547,120 23.3726463,120 C22.5181567,120 21.6831744,119.743833 20.9749319,119.264398 Z" id="Path-6"></path>
            <ellipse id="Oval-7" cx="64.5205479" cy="80.5479452" rx="13.5616438" ry="13.9726027"></ellipse>
        </g>
    </g>
</svg>