<?xml version="1.0" encoding="UTF-8"?>
<svg width="27px" height="27px" viewBox="0 0 27 27" version="1.1" xmlns="http://www.w3.org/2000/svg" xmlns:xlink="http://www.w3.org/1999/xlink">
    <!-- Generator: Sketch 50.2 (55047) - http://www.bohemiancoding.com/sketch -->
    <title>Group 45</title>
    <desc>Created with Sketch.</desc>
    <defs></defs>
    <g id="amenities" stroke="none" stroke-width="1" fill="none" fill-rule="evenodd">
        <g id="Artboard" transform="translate(-281.000000, -336.000000)">
            <g id="Group-32" transform="translate(209.000000, 274.000000)">
                <g id="Group-44" transform="translate(73.000000, 63.000000)">
                    <g id="Group-45">
                        <circle id="Oval-5-Copy" stroke="#7F7F7F" stroke-width="1.2" cx="12.5" cy="12.5" r="12.5"></circle>
                        <path d="M9,18.5644531 L9,5.49804688 C9,5.16601396 9.15950361,5 9.47851562,5 L13.8535156,5 C15.1295637,5 16.1728475,5.38573833 16.9833984,6.15722656 C17.7939494,6.92871479 18.1992188,7.95572275 18.1992188,9.23828125 C18.1992188,10.5338606 17.7939494,11.5755169 16.9833984,12.3632812 C16.1728475,13.1510456 15.1295637,13.5449219 13.8535156,13.5449219 L10.3769531,13.5449219 L10.3769531,18.5644531 C10.3769531,18.896486 10.2174495,19.0625 9.8984375,19.0625 L9.47851562,19.0625 C9.15950361,19.0625 9,18.896486 9,18.5644531 Z M10.3769531,12.3046875 L13.6777344,12.3046875 C14.62826,12.3046875 15.3818332,12.0328803 15.9384766,11.4892578 C16.49512,10.9456353 16.7734375,10.1953173 16.7734375,9.23828125 C16.7734375,8.30077656 16.49512,7.56673442 15.9384766,7.03613281 C15.3818332,6.5055312 14.6347703,6.24023438 13.6972656,6.24023438 L10.3769531,6.24023438 L10.3769531,12.3046875 Z" id="P-Copy" fill="#7F7F7F"></path>
                    </g>
                </g>
            </g>
        </g>
    </g>
</svg>