<?xml version="1.0" encoding="UTF-8"?>
<svg width="26px" height="22px" viewBox="0 0 26 22" version="1.1" xmlns="http://www.w3.org/2000/svg" xmlns:xlink="http://www.w3.org/1999/xlink">
    <!-- Generator: Sketch 50.2 (55047) - http://www.bohemiancoding.com/sketch -->
    <title>pillar-blue</title>
    <desc>Created with Sketch.</desc>
    <defs></defs>
    <g id="Page-1" stroke="none" stroke-width="1" fill="none" fill-rule="evenodd">
        <g id="pillar-blue" fill="#00A4E4" fill-rule="nonzero">
            <path d="M25.3809511,21.0975013 L24.8451846,21.0975013 L24.8451846,17.3461538 C24.8451846,17.0502066 24.605169,16.810191 24.3090254,16.810191 L22.7013331,16.810191 L22.7013331,14.1307692 C22.7013331,13.8346257 22.4613175,13.5948064 22.1655665,13.5948064 L16.2705639,13.5384615 L16.2705639,0.535962866 C16.2705639,0.239819361 16.0307445,0 15.734601,0 C15.43885,0 15.1986382,0.239819361 15.1986382,0.535962866 L15.1986382,3.72307692 L14.1269087,3.72307692 L14.1269087,0.535962866 C14.1269087,0.239819361 13.8868931,0 13.5911421,0 C13.2949986,0 13.0549831,0.239819361 13.0549831,0.535962866 L13.0549831,3.72307692 L11.9832536,3.72307692 L11.9832536,0.535962866 C11.9832536,0.239819361 11.7434343,0 11.4472907,0 C11.1513434,0 10.9115241,0.239819361 10.9115241,0.535962866 L10.9115241,21.0975013 L7.41441532,21.0975013 L7.41441532,0.535962866 C7.41441532,0.239819361 7.17420348,0 6.87845246,0 C6.58230895,0 6.34248959,0.239819361 6.34248959,0.535962866 L6.34248959,3.72307692 L5.27056391,3.72307692 L5.27056391,0.535962866 C5.27056391,0.239819361 5.03074455,0 4.73479728,0 C4.43885002,0 4.19883442,0.239819361 4.19883442,0.535962866 L4.19883442,3.72307692 L3.12710497,3.72307692 L3.12710497,0.535962866 C3.12710497,0.239819361 2.88708942,0 2.5913384,0 C2.29519489,0 2.05537553,0.239819361 2.05537553,0.535962866 L2.05537553,21.0975013 L0.222107628,21.0975013 C-0.0740358761,21.0975013 -0.0740358761,22 0.222107628,22 L25.3811474,22 C25.6768984,22 25.6768984,21.0975013 25.3809511,21.0975013 Z M23.7732588,21.0975013 L16.2705639,21.0975013 L16.2705639,17.8821167 L23.7732588,17.8821167 L23.7732588,21.0975013 Z M21.6297999,16.810191 L16.2705639,16.810191 L16.2705639,14.6665358 L21.6297999,14.6665358 L21.6297999,16.810191 Z M11.9834498,4.79500265 L15.1988344,4.79500265 L15.1988344,21.0975013 L11.9834498,21.0975013 L11.9834498,4.79500265 Z M3.12710497,4.79500265 L6.34248959,4.79500265 L6.34248959,21.0975013 L3.12710497,21.0975013 L3.12710497,4.79500265 Z" id="Shape"></path>
        </g>
    </g>
</svg>