<?xml version="1.0" encoding="UTF-8"?>
<svg width="28px" height="21px" viewBox="0 0 28 21" version="1.1" xmlns="http://www.w3.org/2000/svg" xmlns:xlink="http://www.w3.org/1999/xlink">
    <!-- Generator: Sketch 50.2 (55047) - http://www.bohemiancoding.com/sketch -->
    <title>road</title>
    <desc>Created with Sketch.</desc>
    <defs></defs>
    <g id="Page-1" stroke="none" stroke-width="1" fill="none" fill-rule="evenodd">
        <g id="road" fill="#00A4E4" fill-rule="nonzero">
            <path d="M27.8467925,19.7411295 L18.0736937,0.27446289 C17.9877974,0.103072122 17.8414553,0 17.6846604,0 L10.2384898,0 C10.0819221,0 9.93558019,0.103072122 9.84945658,0.27446289 L0.0763577621,19.7411295 C-0.0174919672,19.9279663 -0.02544535,20.1673787 0.0559062734,20.3640177 C0.137030614,20.5609537 0.294507289,20.6833333 0.465391084,20.6833333 L27.4577592,20.6833333 C27.6288702,20.6833333 27.7861196,20.5609537 27.8674713,20.3640177 C27.9488228,20.1673787 27.9408695,19.9279663 27.8467925,19.7411295 Z M14.4269608,19.4666666 L13.4961894,19.4666666 L6.19522476,19.4666666 L11.989367,1.21666666 L13.4961894,1.21666666 L14.4269608,1.21666666 L15.932647,1.21666666 L21.7265621,19.4666666 L14.4269608,19.4666666 Z M22.7807242,19.4666666 L16.9865819,1.21666666 L17.4367425,1.21666666 L26.5953868,19.4666666 L22.7807242,19.4666666 Z M10.4898163,1.21666666 L10.939977,1.21666666 L5.14265329,19.4666666 L1.32776344,19.4666666 L10.4898163,1.21666666 Z" id="Shape"></path>
        </g>
    </g>
</svg>