<?xml version="1.0" encoding="UTF-8"?>
<svg width="45px" height="31px" viewBox="0 0 45 31" version="1.1" xmlns="http://www.w3.org/2000/svg" xmlns:xlink="http://www.w3.org/1999/xlink">
    <!-- Generator: Sketch 50.2 (55047) - http://www.bohemiancoding.com/sketch -->
    <title>euro</title>
    <desc>Created with Sketch.</desc>
    <defs></defs>
    <g id="Page-1" stroke="none" stroke-width="1" fill="none" fill-rule="evenodd">
        <g id="euro" fill="#000000">
            <path d="M44.937276,17.0054116 C44.7759857,15.8575904 43.5752688,14.9393335 41.3261649,14.2682996 C39.5071685,13.7297066 37.2043011,13.4030191 34.6953405,13.3500427 L34.6953405,3.92908003 C34.6953405,3.73483338 34.6326165,3.54941612 34.5071685,3.39931643 C34.2114695,2.37510681 33.0107527,1.54514383 30.9318996,0.9270863 C28.9157706,0.326687553 26.281362,0 23.5125448,0 C20.7526882,0 18.1451613,0.326687553 16.1738351,0.9270863 C14.5519713,1.42153233 12.6075269,2.33978923 12.6075269,3.92025064 C12.6075269,4.01737397 12.6164875,4.11449729 12.6344086,4.21162062 L12.7329749,8.23782398 C6.91756272,7.13414981 1.29928315,10.9043008 0.188172043,16.6434064 C0.0627240143,17.2879522 0,17.9501567 0,18.6123612 C0,24.4397608 4.81182796,29.181145 10.7258065,29.181145 C13.1899642,29.181145 15.5734767,28.3423526 17.4910394,26.8148676 C19.1756272,27.2033609 21.1469534,27.4152663 23.234767,27.4329251 C23.6917563,29.878667 29.0681004,31 34.0860215,31 C36.8458781,31 39.4444444,30.6644831 41.4336918,30.0552549 C43.0645161,29.5608089 45,28.6337226 45,27.0532612 L45,17.3497579 C45,17.2349758 44.9820789,17.1113643 44.937276,17.0054116 Z M16.7114695,2.61350043 C18.5215054,2.06607804 20.9408602,1.75704927 23.5215054,1.75704927 C26.0842294,1.75704927 28.59319,2.06607804 30.421147,2.61350043 C32.3655914,3.19624039 32.7867384,3.79663913 32.7867384,3.92025064 C32.7867384,4.04386215 32.3655914,4.65309029 30.4121864,5.22700085 C28.59319,5.76559385 26.0842294,6.08345201 23.5215054,6.08345201 C21.0483871,6.08345201 18.7007168,5.80091142 16.9175627,5.28880661 C14.9910394,4.74138422 14.453405,4.13215608 14.4086022,3.93790943 C14.4086022,3.92025064 14.4086022,3.91142125 14.3996416,3.91142125 C14.4086022,3.78780974 14.8207885,3.18741099 16.7114695,2.61350043 Z M32.9032258,6.12759897 L32.9032258,8.38792367 C32.8225806,8.51153518 32.7777778,8.66163486 32.7867384,8.81173455 C32.7867384,8.92651666 32.3655914,9.5357448 30.4121864,10.1184848 C28.59319,10.6570778 26.0752688,10.9749359 23.5125448,10.9749359 C21.2992832,10.9749359 19.1308244,10.7453717 17.4103943,10.3127314 C17.3835125,10.303902 17.3655914,10.303902 17.3387097,10.2950726 C16.4874552,9.63286813 15.546595,9.11193392 14.5340502,8.73227001 L14.4713262,6.24238109 C15.0896057,6.55140985 15.734767,6.79863287 16.40681,6.97522073 C18.3512545,7.53147251 20.8691756,7.83167189 23.5125448,7.83167189 C26.281362,7.83167189 28.9157706,7.50498433 30.9229391,6.90458559 C31.6129032,6.71916833 32.2759857,6.45428653 32.9032258,6.12759897 Z M16.7383513,25.119624 C13.0913978,28.395329 7.43727599,28.1304472 4.1218638,24.5368841 C0.806451613,20.943321 1.06630824,15.3719738 4.71326165,12.1050983 C6.36200717,10.6305896 8.50358423,9.809456 10.7258065,9.809456 C11.6218638,9.809456 12.5179211,9.9418969 13.3781362,10.1979493 C16.4784946,11.1603532 18.8172043,13.6943891 19.4892473,16.8288237 C19.6057348,17.4115637 19.6684588,18.0119624 19.6684588,18.6035318 C19.6684588,21.0934207 18.6021505,23.4596981 16.7383513,25.119624 Z M19.0143369,25.3138707 C19.7401434,24.4397608 20.3225806,23.4596981 20.734767,22.4090003 C21.4964158,22.470806 22.3028674,22.514953 23.1272401,22.5237824 L23.1272401,22.6827115 L23.172043,25.6758758 C21.7831541,25.658217 20.3942652,25.5346055 19.0143369,25.3138707 Z M21.3978495,17.5616633 C21.9265233,17.5969809 22.4731183,17.6146397 23.0286738,17.6234691 C23.0286738,17.6411279 23.0376344,17.6676161 23.0376344,17.6852749 L23.0913978,20.7490743 C22.4551971,20.7402449 21.8369176,20.7137568 21.2365591,20.6696098 C21.3709677,19.9897465 21.4426523,19.2922244 21.4426523,18.6035318 C21.4516129,18.2591854 21.4336918,17.9148391 21.3978495,17.5616633 Z M23.6021505,15.8664198 C23.5752688,15.8664198 23.5483871,15.8664198 23.5215054,15.8664198 C22.6612903,15.8664198 21.827957,15.8311023 21.0573477,15.7781259 C20.7168459,14.5949872 20.1792115,13.4824836 19.453405,12.4935916 C20.797491,12.66135 22.1505376,12.749644 23.5125448,12.749644 C26.281362,12.749644 28.9157706,12.4229564 30.9318996,11.8225577 C31.6218638,11.6106522 32.2759857,11.3545998 32.9032258,11.0279123 L32.9032258,13.3677015 C29.0501792,13.4736542 25.0716846,14.2682996 23.6021505,15.8664198 Z M24.8028674,17.2261464 C24.8924731,16.9789234 25.546595,16.4050128 27.3835125,15.892908 C29.1308244,15.4072914 31.40681,15.1424096 33.7992832,15.1424096 L33.9157706,15.1424096 C36.4784946,15.1424096 38.9874552,15.4337795 40.8154122,15.9812019 C42.7060932,16.5462831 43.1541219,17.1113643 43.1810036,17.261464 L43.1810036,17.2702934 C43.172043,17.4027343 42.7240143,18.0119624 40.734767,18.5947024 C38.8978495,19.1332954 36.4784946,19.4246653 33.9157706,19.4246653 C31.4964158,19.4246653 29.1845878,19.1509541 27.4103943,18.6653375 C25.6989247,18.1885503 25.0089606,17.6499573 24.8387097,17.3762461 C24.8297491,17.3232697 24.8207885,17.2702934 24.8028674,17.2261464 Z M43.2078853,27.0532612 C43.2078853,27.1768727 42.8046595,27.7861008 40.9050179,28.3688408 C39.0860215,28.9250926 36.6666667,29.2341213 34.0860215,29.2341213 C31.4964158,29.2341213 29.0770609,28.933922 27.2849462,28.395329 C25.3853047,27.8214184 25,27.229849 25,27.0974081 C25,27.0885788 25,27.0885788 25,27.0797494 L24.9551971,24.5280547 C27.0878136,25.5964113 30.6451613,26.0820279 33.90681,26.0820279 C36.6756272,26.0820279 39.2921147,25.7553404 41.2992832,25.1549416 C41.9623656,24.960695 42.5985663,24.6958132 43.2078853,24.377955 L43.2078853,27.0532612 Z M43.1272401,22.1617773 C43.1272401,22.2853888 42.7150538,22.8857875 40.7795699,23.4685275 C38.9426523,24.0159499 36.5053763,24.3161492 33.90681,24.3161492 C28.9874552,24.3161492 25.6541219,23.2301339 24.9193548,22.3736827 L24.9014337,21.6143549 L24.8655914,19.5924238 C25.5197133,19.9191114 26.2007168,20.1751638 26.9086022,20.360581 C28.8351254,20.8903446 31.3172043,21.190544 33.8978495,21.190544 C36.6218638,21.190544 39.2204301,20.8726858 41.218638,20.2899459 C41.9086022,20.0956992 42.5716846,19.8396468 43.1989247,19.5129593 L43.1989247,21.7821134 L43.2078853,21.7821134 C43.2078853,21.8968955 43.1272401,22.0293364 43.1272401,22.1617773 Z" id="Shape" fill-rule="nonzero"></path>
            <text id="Rs." font-family="Circular-Std-Book, Circular Std" font-size="12" font-weight="300">
                <tspan x="3.9" y="23">R</tspan>
                <tspan x="11.328" y="23">s.</tspan>
            </text>
        </g>
    </g>
</svg>