<?xml version="1.0" encoding="UTF-8"?>
<svg width="21px" height="23px" viewBox="0 0 21 23" version="1.1" xmlns="http://www.w3.org/2000/svg" xmlns:xlink="http://www.w3.org/1999/xlink">
    <!-- Generator: Sketch 50.2 (55047) - http://www.bohemiancoding.com/sketch -->
    <title>Share</title>
    <desc>Created with Sketch.</desc>
    <defs></defs>
    <g id="detail" stroke="none" stroke-width="1" fill="none" fill-rule="evenodd">
        <g id="property-detail" transform="translate(-747.000000, -130.000000)" fill="#02B7DD">
            <path d="M764.5,138.05 C763.566667,138.05 762.75,138.395 762.166667,138.97 L753.883333,134.255 C754,134.025 754,133.68 754,133.45 C754,131.495 752.483333,130 750.5,130 C748.516667,130 747,131.495 747,133.45 C747,135.405 748.516667,136.9 750.5,136.9 C751.433333,136.9 752.25,136.555 752.833333,135.98 L761.116667,140.695 C761,140.925 761,141.27 761,141.5 C761,141.73 761,142.075 761.116667,142.305 L752.833333,147.135 C752.25,146.56 751.433333,146.215 750.5,146.215 C748.633333,146.215 747.116667,147.71 747.116667,149.55 C747.116667,151.39 748.633333,152.885 750.5,152.885 C752.366667,152.885 753.883333,151.39 753.883333,149.55 C753.883333,149.32 753.883333,149.09 753.766667,148.745 L762.05,143.915 C762.633333,144.49 763.45,144.835 764.383333,144.835 C766.366667,144.835 767.883333,143.34 767.883333,141.385 C767.883333,139.43 766.483333,138.05 764.5,138.05 L764.5,138.05 Z" id="Share" transform="translate(757.500000, 141.500000) scale(-1, 1) translate(-757.500000, -141.500000) "></path>
        </g>
    </g>
</svg>