<?xml version="1.0" encoding="UTF-8"?>
<svg width="28px" height="22px" viewBox="0 0 28 22" version="1.1" xmlns="http://www.w3.org/2000/svg" xmlns:xlink="http://www.w3.org/1999/xlink">
    <!-- Generator: Sketch 50.2 (55047) - http://www.bohemiancoding.com/sketch -->
    <title>shower</title>
    <desc>Created with Sketch.</desc>
    <defs></defs>
    <g id="amenities" stroke="none" stroke-width="1" fill="none" fill-rule="evenodd">
        <g id="Artboard" transform="translate(-397.000000, -337.000000)" fill="#7F7F7F" fill-rule="nonzero">
            <g id="Group-32" transform="translate(209.000000, 274.000000)">
                <g id="Group-44" transform="translate(66.000000, 63.000000)">
                    <g id="Group-45">
                        <g id="shower" transform="translate(122.000000, 0.000000)">
                            <path d="M27.4716959,14.2999961 C27.7634498,14.2999961 28,14.0537316 28,13.7499963 L28,0.549999852 C28,0.246264566 27.7634498,0 27.4716959,0 C25.1856454,0 21.6603502,1.88981882 21.6603502,4.39999883 L21.6603502,4.94999868 L10.5659632,4.94999868 C9.10770963,4.95187858 7.92624815,6.18185872 7.92444246,7.69999795 L7.92444246,10.3208225 C7.39717016,10.8079805 7.04144191,11.4645965 6.91323532,12.1864714 C3.71735639,12.6854458 1.28813753,15.4367879 1.07867318,18.7939891 C0.343226399,19.0504587 -0.104593912,19.8244332 0.0210330494,20.6212347 C0.146918021,21.4180362 0.809361891,22.0021426 1.58479272,21.9999941 L17.4339171,21.9999941 C18.2093478,22.0021426 18.8717917,21.4180362 18.9976766,20.6212347 C19.1233037,19.8244332 18.6754834,19.0504587 17.9400365,18.7939891 C17.7305721,15.4367879 15.3013535,12.6854458 12.1054745,12.1864714 C11.9772678,11.4645965 11.6215397,10.8079805 11.0942673,10.3208225 L11.0942673,8.2499978 L21.6603502,8.2499978 L21.6603502,9.89999735 C21.6603502,12.4101773 25.1856454,14.2999961 27.4716959,14.2999961 Z M22.7169586,4.39999883 C22.7169586,2.80505295 25.1534002,1.38923301 26.9433916,1.13894011 L26.9433916,13.1610561 C25.1534002,12.9107631 22.7169586,11.4949432 22.7169586,9.89999735 L22.7169586,4.39999883 Z M10.9990797,12.0999968 L8.01963005,12.0999968 C8.19813908,11.5416717 8.60055826,10.9999971 8.98105076,10.9999971 L10.037659,10.9999971 C10.4196993,10.9999971 10.8205707,11.5416717 10.9990797,12.0999968 Z M17.4339171,20.8999945 L1.58479272,20.8999945 C1.2930388,20.8999945 1.05648857,20.6537298 1.05648857,20.3499946 C1.05648857,20.0462592 1.2930388,19.7999947 1.58479272,19.7999947 L17.4339171,19.7999947 C17.7256711,19.7999947 17.9622212,20.0462592 17.9622212,20.3499946 C17.9622212,20.6537298 17.7256711,20.8999945 17.4339171,20.8999945 Z M16.8818805,18.6999951 L2.13682928,18.6999951 C2.41362142,15.5863728 4.92100242,13.2037562 7.92444246,13.1999964 L11.0942673,13.1999964 C14.0977074,13.2037562 16.6050884,15.5863728 16.8818805,18.6999951 Z M10.5659632,7.14999809 C10.2742093,7.14999809 10.037659,7.39626267 10.037659,7.69999795 L10.037659,9.89999735 L8.98105076,9.89999735 L8.98105076,7.69999795 C8.98105076,6.78879216 9.69070144,6.04999839 10.5659632,6.04999839 L21.6603502,6.04999839 L21.6603502,7.14999809 L10.5659632,7.14999809 Z" id="Shape"></path>
                        </g>
                    </g>
                </g>
            </g>
        </g>
    </g>
</svg>