<?xml version="1.0" encoding="UTF-8"?>
<svg width="33px" height="25px" viewBox="0 0 33 25" version="1.1" xmlns="http://www.w3.org/2000/svg" xmlns:xlink="http://www.w3.org/1999/xlink">
    <!-- Generator: Sketch 50.2 (55047) - http://www.bohemiancoding.com/sketch -->
    <title>Shape</title>
    <desc>Created with Sketch.</desc>
    <defs></defs>
    <g id="amenities" stroke="none" stroke-width="1" fill="none" fill-rule="evenodd">
        <g id="Artboard" transform="translate(-464.000000, -211.000000)" fill="#858585" fill-rule="nonzero">
            <g id="armchair-(1)" transform="translate(464.000000, 211.000000)">
                <g id="Group-11">
                    <g id="Group-29">
                        <path d="M28.4835966,7.83180179 L28.4835966,4.34435166 C28.4809197,1.94614101 26.5353826,0.00267408982 24.1346174,0 L8.86882612,0 C6.46831385,0.00303051561 4.5231708,1.94639324 4.52049457,4.34435166 L4.52049457,7.83083135 C3.15734307,7.58434969 1.7670313,8.09100167 0.882970334,9.1564037 C-0.00109063633,10.2218057 -0.241615009,11.6805116 0.253677494,12.9728699 C0.748969997,14.2652282 1.90316542,15.1905488 3.27344179,15.3938203 L3.27344179,24.2504103 C3.27362044,24.5629804 3.5272338,24.8163239 3.84013677,24.8165023 L6.54440522,24.8165023 L9.86232337,24.8165023 L23.1404725,24.8165023 L26.459686,24.8165023 L29.1636306,24.8165023 C29.4765336,24.8163239 29.7301469,24.5629804 29.7303256,24.2504103 L29.7303256,15.3938203 C31.7169858,15.0963124 33.1380247,13.3190297 32.9893264,11.3178123 C32.840628,9.31659499 31.1724902,7.76836203 29.1636306,7.76710556 C28.9354763,7.7684005 28.7078939,7.79005195 28.4835966,7.83180179 Z M5.65388453,4.34435166 C5.65602571,2.57120715 7.09444053,1.13432287 8.86947377,1.13218398 L24.1352651,1.13218398 C25.9101193,1.13450143 27.3482443,2.57138559 27.3502067,4.34435166 L27.3502067,8.22353745 C26.1047938,8.89170391 25.3273778,10.1891662 25.326296,11.6013275 L25.326296,12.4960763 C24.9941922,12.3803664 24.6450165,12.3211025 24.293292,12.3207495 L8.71079917,12.3207495 C8.35907469,12.3211025 8.00989896,12.3803664 7.67779518,12.4960763 L7.67779518,11.6013275 C7.67671335,10.1891662 6.89929744,8.89170391 5.65388453,8.22353745 L5.65388453,4.34435166 Z M7.67844283,23.6852888 L7.67844283,16.0220207 L25.3269437,16.0220207 L25.3269437,23.6852888 L7.67844283,23.6852888 Z M25.326296,14.8898367 L7.67779518,14.8898367 L7.67779518,13.7434196 C7.98871251,13.5531806 8.34619312,13.4524313 8.71079917,13.4522865 L24.293292,13.4522865 C24.6578981,13.4524313 25.0153787,13.5531806 25.326296,13.7434196 L25.326296,14.8898367 Z M1.13554449,11.6013275 C1.13554449,10.1090331 2.34657668,8.89928954 3.84046059,8.89928954 C5.33434451,8.89928954 6.54537669,10.1090331 6.54537669,11.6013275 L6.54537669,23.6843184 L4.40812705,23.6843184 L4.40812705,14.8694574 C4.40804123,14.7191786 4.34817511,14.5750936 4.24170766,14.4689214 C4.13524022,14.3627493 3.99089942,14.3031937 3.84046059,14.3033654 C2.34657668,14.3033654 1.13554449,13.0936218 1.13554449,11.6013275 Z M7.67779518,24.8165023 L8.73022872,24.8165023 L7.67779518,24.8165023 Z M24.2764531,24.8165023 L25.326296,24.8165023 L24.2764531,24.8165023 Z M28.5995262,14.8694574 L28.5995262,23.6843184 L26.4622766,23.6843184 L26.4622766,11.6013275 C26.4622766,10.1090752 27.673243,8.8993491 29.1670848,8.89928956 C30.6609265,8.89923002 31.8719896,10.1088596 31.8721088,11.6011118 C31.872228,13.0933641 30.6613583,14.3031868 29.1675165,14.3033654 C28.8532442,14.3033654 28.5995262,14.5568134 28.5995262,14.8694574 Z" id="Shape"></path>
                    </g>
                </g>
            </g>
        </g>
    </g>
</svg>