<?xml version="1.0" encoding="UTF-8"?>
<svg width="29px" height="22px" viewBox="0 0 29 22" version="1.1" xmlns="http://www.w3.org/2000/svg" xmlns:xlink="http://www.w3.org/1999/xlink">
    <!-- Generator: Sketch 50.2 (55047) - http://www.bohemiancoding.com/sketch -->
    <title>tape</title>
    <desc>Created with Sketch.</desc>
    <defs></defs>
    <g id="Page-1" stroke="none" stroke-width="1" fill="none" fill-rule="evenodd">
        <g id="tape" fill="#7F7F7F" fill-rule="nonzero">
            <path d="M28.4171732,13.5284428 L19.8150731,13.5284428 L19.8150731,7.35687308 C19.8150731,3.3019769 15.3800602,0 9.90764046,0 C4.43501289,0 0,3.3019769 0,7.35687308 L0,14.6488357 C0,18.3836196 3.75906679,21.4663386 8.60210004,21.9346666 L8.70124716,21.9346666 C9.10323968,21.9703991 9.51126005,22 9.92510037,22 L28.4171732,22 C28.7389335,22 29,21.7344379 29,21.4071368 L29,14.1210945 C29,13.7940049 28.7389335,13.5284428 28.4171732,13.5284428 Z M9.93674028,1.19143498 C14.7446459,1.19143498 18.6787271,3.95996193 18.6787271,7.36300468 C18.6787271,10.765836 14.7681336,13.5343629 9.93674028,13.5343629 C5.10534688,13.5343629 1.19475344,10.765836 1.19475344,7.3627932 C1.19475344,3.95996193 5.1344467,1.19143498 9.93674028,1.19143498 Z M18.6787271,10.8191175 L18.6787271,13.5284428 L15.298373,13.5284428 C16.6178397,12.9201449 17.7689435,11.989409 18.6494195,10.8191175 L18.6787271,10.8191175 Z M27.8343463,20.8142738 L26.6686927,20.8142738 L26.6686927,17.8144371 C26.6686927,17.4873475 26.4076261,17.221574 26.0860737,17.221574 C25.7643133,17.221574 25.5032468,17.4871361 25.5032468,17.8144371 L25.5032468,20.8201939 L23.1719395,20.8201939 L23.1719395,19.1898204 C23.1719395,18.8625193 22.910873,18.5969572 22.5891127,18.5969572 C22.2673523,18.5969572 22.0062858,18.8625193 22.0062858,19.1898204 L22.0062858,20.8201939 L19.6751863,20.8201939 L19.6751863,19.1898204 C19.6751863,18.8625193 19.4141198,18.5969572 19.0923595,18.5969572 C18.7705992,18.5969572 18.5095327,18.8625193 18.5095327,19.1898204 L18.5095327,20.8201939 L16.1782253,20.8201939 L16.1782253,17.8144371 C16.1782253,17.4873475 15.9171588,17.221574 15.5953985,17.221574 C15.2738461,17.221574 15.0125716,17.4871361 15.0125716,17.8144371 L15.0125716,20.8201939 L12.7806193,20.8201939 L12.7806193,19.1898204 C12.7806193,18.8625193 12.5193449,18.5969572 12.1977924,18.5969572 C11.8760321,18.5969572 11.6149656,18.8625193 11.6149656,19.1898204 L11.6149656,20.8201939 L9.93632454,20.8201939 C9.71495844,20.8201939 9.4994123,20.8201939 9.28365826,20.8201939 L9.28365826,19.1898204 C9.28365826,18.8625193 9.02259174,18.5969572 8.70083142,18.5969572 C8.3790711,18.5969572 8.11800459,18.8625193 8.11800459,19.1898204 L8.11800459,20.6778983 C4.18454702,20.0850352 1.22385321,17.6070196 1.22385321,14.6429154 L1.22385321,10.8191175 C2.89064652,13.137077 6.17185348,14.7139575 9.96584,14.7139575 L27.8343463,14.7139575 L27.8343463,20.8142738 Z" id="Shape"></path>
        </g>
    </g>
</svg>