<?xml version="1.0" encoding="UTF-8"?>
<svg width="18px" height="18px" viewBox="0 0 18 18" version="1.1" xmlns="http://www.w3.org/2000/svg" xmlns:xlink="http://www.w3.org/1999/xlink">
    <!-- Generator: Sketch 50.2 (55047) - http://www.bohemiancoding.com/sketch -->
    <title>tick</title>
    <desc>Created with Sketch.</desc>
    <defs></defs>
    <g id="Page-1" stroke="none" stroke-width="1" fill="none" fill-rule="evenodd">
        <g id="Desktop-HD" transform="translate(-654.000000, -27.000000)" fill-rule="nonzero">
            <g id="tick" transform="translate(654.000000, 27.000000)">
                <path d="M18,9 C18,4.03022975 13.9697703,0 9,0 C4.03022975,0 0,4.03022975 0,9 C0,13.9697703 4.03022975,18 9,18 C13.9697703,18 18,13.9697703 18,9 Z" id="Shape" fill="#008FE0"></path>
                <path d="M13.9347308,6.44215303 C13.7252189,5.88708863 13.295358,5.97531079 12.8293745,6.07088479 C12.5512292,6.12969956 11.3122186,6.49729188 9.35797745,8.59991994 C8.5452154,9.47111374 8.01059858,10.1658632 7.65659556,10.6951962 C7.43985901,10.4268538 7.19422426,10.1364558 6.9341404,9.87546529 C6.13582746,9.06308627 5.24359534,8.50434594 5.20747259,8.4822904 C4.83540818,8.25070724 4.34775095,8.36833678 4.1165653,8.75063279 C3.88899193,9.12925288 4.00458476,9.62550251 4.37664916,9.8607616 C4.38387371,9.86443752 5.14967617,10.3459835 5.80711036,11.0186774 C6.47899366,11.7023991 7.08946826,12.6287318 7.09669281,12.6397595 C7.24479612,12.8676668 7.49404315,13 7.75773928,13 C7.80108659,13 7.84804617,12.9963241 7.89500576,12.9889722 C8.20566148,12.9338334 8.45129623,12.6985743 8.52715402,12.3897968 C8.53076629,12.3824449 8.84503429,11.4965474 10.5030689,9.71740059 C11.8396109,8.28011463 12.731843,7.82430015 13.0424987,7.69931876 C13.046111,7.69931876 13.046111,7.69931876 13.0533356,7.69931876 C13.0533356,7.69931876 13.0641724,7.69564284 13.0822338,7.68461507 C13.1364179,7.66255953 13.1653161,7.65520768 13.1653161,7.65520768 C13.150867,7.65888361 13.1436425,7.65888361 13.1436425,7.65888361 L13.1436425,7.65520768 C13.2881335,7.59271699 13.5554419,7.47508745 13.5590542,7.47141152 C13.9600168,7.29496721 14.093671,6.85385643 13.9347308,6.44215303 Z" id="Shape" fill="#FFFFFF"></path>
            </g>
        </g>
    </g>
</svg>