<?xml version="1.0" encoding="UTF-8"?>
<svg width="512px" height="423px" viewBox="0 0 512 423" version="1.1" xmlns="http://www.w3.org/2000/svg" xmlns:xlink="http://www.w3.org/1999/xlink">
    <!-- Generator: Sketch 50.2 (55047) - http://www.bohemiancoding.com/sketch -->
    <title>Shape</title>
    <desc>Created with Sketch.</desc>
    <defs></defs>
    <g id="Page-1" stroke="none" stroke-width="1" fill="none" fill-rule="evenodd">
        <g id="twitter" transform="translate(0.000000, -1.000000)" fill="#FFFFFF" fill-rule="nonzero">
            <path d="M194.816406,423.710938 C109.363281,423.710938 41.824219,408.78125 9.511719,382.757812 L8.882812,382.25 L8.3125,381.679688 C0.636719,374 -1.878906,363.925781 1.417969,354.042969 L1.71875,353.222656 C5.71875,343.21875 15.519531,336.484375 26.140625,336.421875 C48,336.042969 67.125,333.4375 84.480469,328.378906 C56.796875,315.503906 37.566406,293.210938 26.125,260.945312 C22.277344,250.882812 25.597656,239.726562 34.464844,233.074219 C36.652344,231.429688 39.125,230.1875 41.742188,229.355469 C26.359375,211.597656 14.996094,191.390625 8.632812,170.019531 L8.433594,169.355469 L8.296875,168.675781 C6.136719,157.867188 10.96875,146.753906 19.824219,141.96875 C23.539062,139.835938 27.574219,138.730469 31.625,138.636719 C27.257812,129.230469 24.082031,119.574219 22.199219,109.859375 C16.972656,82.9375 21.285156,55.949219 35.011719,29.644531 L38.1875,23.292969 C40.730469,18.210938 45.589844,14.640625 51.191406,13.730469 C56.792969,12.824219 62.535156,14.675781 66.546875,18.6875 L72.332031,24.480469 C118.035156,72.394531 158.972656,95.128906 229.75,110.683594 C232.910156,83.515625 244.65625,58.261719 263.605469,38.386719 C286.15625,14.738281 316.269531,1.46875 348.398438,1.015625 L348.609375,1.015625 C372.050781,1.015625 401.128906,14.398438 418.714844,23.835938 C433.800781,18.898438 451.976562,11.253906 470.835938,3.171875 C479.660156,-0.96875 490.539062,0.9257812 497.476562,7.863281 C504.277344,14.664062 506.164062,24.253906 502.554688,33.574219 C501.183594,37.390625 499.628906,41.136719 497.898438,44.800781 C500.480469,45.984375 502.84375,47.589844 504.839844,49.585938 C510.875,55.621094 513.390625,65.066406 511.246094,73.652344 L511.015625,74.46875 C503.789062,97.757812 489.90625,116.726562 471.546875,128.632812 C468.480469,291.917969 345.519531,423.710938 194.816406,423.710938 Z M38.304688,366.035156 C68.753906,383.261719 126.78125,393.683594 194.816406,393.683594 C260.226562,393.683594 321.953125,365.601562 368.621094,314.609375 C415.671875,263.199219 441.582031,194.929688 441.582031,122.375 L441.582031,121.558594 C441.582031,114.988281 445.199219,108.992188 451.019531,105.90625 C462.828125,99.652344 472.390625,89 478.609375,75.378906 C472.195312,76.390625 465.675781,73.816406 461.679688,68.449219 C457.035156,62.210938 456.984375,53.785156 461.550781,47.492188 C464.015625,44.09375 466.25,40.558594 468.242188,36.902344 C451.957031,43.742188 436.492188,49.875 423.066406,53.949219 C418.1875,55.425781 412.75,54.847656 408.292969,52.359375 C384.390625,39.042969 362.128906,31.082031 348.707031,31.042969 C299.179688,31.800781 258.910156,74.21875 258.910156,125.648438 C258.910156,130.964844 256.550781,135.949219 252.445312,139.328125 C248.335938,142.703125 242.992188,144.054688 237.773438,143.023438 C156.164062,126.945312 107.804688,102.835938 57.515625,52.300781 C50.308594,69.570312 48.339844,86.964844 51.671875,104.140625 C55.050781,121.539062 64.039062,138.972656 77.667969,154.554688 C82.847656,160.46875 83.535156,168.929688 79.378906,175.605469 C75.238281,182.257812 67.367188,185.367188 59.800781,183.339844 C53.886719,181.753906 48.449219,179.671875 43.292969,176.996094 C53.796875,199.8125 71.863281,220.914062 94.574219,236.476562 C101.15625,240.988281 103.90625,249.398438 101.265625,256.929688 C98.621094,264.472656 91.234375,269.328125 83.25,268.734375 C74.550781,268.089844 66.84375,266.4375 59.75,263.652344 C72.484375,289.585938 92.832031,303.855469 124.179688,309.308594 C131.644531,310.609375 137.457031,316.503906 138.644531,323.976562 C139.835938,331.449219 136.136719,338.855469 129.445312,342.40625 C102.726562,356.570312 73.523438,364.171875 38.304688,366.035156 Z" id="Shape"></path>
        </g>
    </g>
</svg>