<?xml version="1.0" encoding="UTF-8"?>
<svg width="35px" height="35px" viewBox="0 0 35 35" version="1.1" xmlns="http://www.w3.org/2000/svg" xmlns:xlink="http://www.w3.org/1999/xlink">
    <!-- Generator: Sketch 50.2 (55047) - http://www.bohemiancoding.com/sketch -->
    <title>user</title>
    <desc>Created with Sketch.</desc>
    <defs></defs>
    <g id="Page-1" stroke="none" stroke-width="1" fill="none" fill-rule="evenodd">
        <g id="user" transform="translate(1.000000, 1.000000)" fill="#FFFFFF" fill-rule="nonzero" stroke="#FFFFFF">
            <path d="M16.5,33.5 C7.12585763,33.5 -0.5,25.8741424 -0.5,16.5 C-0.5,7.12585763 7.12585763,-0.5 16.5,-0.5 C25.8741424,-0.5 33.5,7.12585763 33.5,16.5 C33.5,25.8741424 25.8741424,33.5 16.5,33.5 Z M16.5,1.5 C8.22914237,1.5 1.5,8.22914237 1.5,16.5 C1.5,24.7708576 8.22914237,31.5 16.5,31.5 C24.7708576,31.5 31.5,24.7708576 31.5,16.5 C31.5,8.22914237 24.7708576,1.5 16.5,1.5 Z" id="Shape"></path>
            <path d="M8.78183988,14.872991 C8.71440297,14.4763979 8.64228951,14.0212857 8.57952261,13.5834988 C7.90900708,9.47307585 8.74939766,6.72512424 12.3181474,5.28063037 C15.3224713,4.06266125 18.3468282,4.32485177 19.6915011,5.5262902 C20.9514775,5.6033446 22.1759498,6.04812327 23.1051312,7.1290253 C23.9410057,8.10120538 24.3302872,9.61222893 24.3969374,11.4961973 C24.4380671,12.6587915 24.3536475,13.8282536 24.2094691,14.8580619 C24.5599958,15.2989818 24.7698087,15.9134134 24.7686101,16.7292554 C24.6312863,18.5671366 24.1678249,19.3334491 23.1772641,19.8083291 C23.1614877,19.8159405 23.1480585,19.8224461 23.1365698,19.8280476 C23.1363336,19.8293163 23.1360557,19.8308113 23.1357109,19.8326662 C22.8557942,21.3507422 22.5350979,22.0796158 21.9284377,22.9636573 C21.6543546,23.363584 21.618,23.4594953 21.618,23.895 C21.618,26.2831079 22.4311695,27.2343264 26.1056027,28.5947364 C26.4542488,28.7229741 26.7027397,29.0338662 26.7508002,29.4023304 C26.798647,29.769156 26.6399339,30.1326423 26.33892,30.3473652 C23.4411995,32.4096604 20.0388527,33.5 16.5,33.5 C12.9611473,33.5 9.55880046,32.4096604 6.66063766,30.34705 C6.36015988,30.1327092 6.20122278,29.7681542 6.24924523,29.401983 C6.29744471,29.034462 6.54605578,28.722862 6.89339808,28.5951052 C10.5688305,27.2343264 11.382,26.2831079 11.382,23.895 C11.382,23.5601517 11.3438306,23.4028692 11.2411331,23.2244938 C11.2045733,23.1609929 11.1692132,23.1070862 11.0717357,22.9639101 C10.4635438,22.0776364 10.1431262,21.3503106 9.86369579,19.8348449 C9.85100785,19.7677046 9.93571264,19.863561 9.82195811,19.8084363 C8.83339453,19.3320987 8.36903293,18.5735916 8.23,16.73 C8.23,15.9351903 8.43575636,15.3197722 8.78183988,14.872991 Z M9.41798903,29.7135486 C11.5939025,30.8883357 14.0095409,31.5 16.5,31.5 C18.9905955,31.5 21.4063621,30.8882687 23.5823685,29.7133556 C20.6595533,28.3314002 19.618,26.7526864 19.618,23.896 C19.618,22.9930192 19.792758,22.5441109 20.2784376,21.8345248 C20.4787057,21.5420279 20.5695252,21.3932158 20.6819886,21.1508444 C20.8728665,20.7394807 21.0338182,20.2069921 21.1702856,19.4703524 C21.2759827,18.8970029 21.5350602,18.4986731 21.9187319,18.2283691 C22.04039,18.1426587 22.1343661,18.0920179 22.3109645,18.0070802 C22.6001532,17.86853 22.6907117,17.7019669 22.7710004,16.6556544 C22.7704815,16.2591828 22.6905857,16.1237817 22.6634106,16.1082495 C22.296557,15.8969099 22.0789534,15.4651117 22.1574845,15.04628 C22.6027868,12.6599626 22.5261967,9.52453776 21.5888509,8.43295396 C21.0010047,7.74917228 20.079579,7.49779193 19.2986852,7.52512029 C19.2887978,7.52430734 19.2887978,7.52430734 19.2740616,7.52323346 C19.1930614,7.51734311 19.1500378,7.51227342 19.0849787,7.4956295 C18.8121909,7.42638336 18.4980088,7.24142533 18.3591778,7.00105074 C18.036455,6.44815063 15.5225336,6.13933821 13.0686228,7.13246272 C10.5785471,8.14051565 10.0230889,10.0050155 10.5568812,13.2796378 C10.6583557,13.9833411 10.82394,14.9652071 10.8438999,15.0493649 C10.920199,15.4680791 10.7229811,15.8855211 10.360353,16.0946753 C10.3534021,16.1040467 10.3453335,16.1164778 10.3364336,16.1324736 C10.273331,16.2458879 10.23,16.4253655 10.2285373,16.6527822 C10.3091218,17.7039791 10.3986301,17.8654978 10.6897203,18.0054089 C10.8665555,18.0904611 10.9603327,18.1409755 11.082312,18.226923 C11.4659773,18.4972564 11.7251013,18.8954586 11.8306911,19.4682263 C11.9673591,20.2085111 12.1288002,20.7422352 12.3206393,21.1542989 C12.4323183,21.3941814 12.5225439,21.541853 12.7211604,21.8319385 C13.207454,22.5400215 13.383,22.9904246 13.383,23.894 C13.383,26.7532929 12.3415416,28.3323184 9.41798903,29.7135486 Z M10.4208694,16.0382534 L10.4208594,16.0382852 C10.4216806,16.0375107 10.4221776,16.0370419 10.4208694,16.0382534 Z M10.3710495,16.08159 C10.3702547,16.0821821 10.3694221,16.0827926 10.3684258,16.0835232 C10.3622554,16.0880997 10.3622554,16.0880997 10.3624677,16.0879367 C10.3648611,16.0861547 10.3648611,16.0861547 10.3683219,16.0834309 C10.373581,16.0789984 10.373581,16.0789984 10.3732384,16.0792897 C10.3725325,16.0800069 10.3718026,16.0807733 10.3710495,16.08159 Z" id="Shape"></path>
        </g>
    </g>
</svg>